STARTFONT 2.1
FONT -Adobe-Utopia-Bold-I-Normal--33-240-100-100-P-186-ISO10646-1
SIZE 24 100 100
FONTBOUNDINGBOX 48 56 -5 -17
COMMENT $Xorg: $
COMMENT ISO10646-1 extension by Markus Kuhn <mkuhn@acm.org>, 2001-03-20
STARTPROPERTIES 28
FOUNDRY "Adobe"
FAMILY_NAME "Utopia"
WEIGHT_NAME "Bold"
SLANT "I"
SETWIDTH_NAME "Normal"
ADD_STYLE_NAME ""
PIXEL_SIZE 33
POINT_SIZE 240
RESOLUTION_X 100
RESOLUTION_Y 100
SPACING "P"
AVERAGE_WIDTH 186
CHARSET_REGISTRY "ISO10646"
CHARSET_ENCODING "1"
CAP_HEIGHT 23
X_HEIGHT 16
RELATIVE_SETWIDTH 50
RELATIVE_WEIGHT 70
WEIGHT 208
FACE_NAME "Utopia Bold Italic"
COPYRIGHT "Copyright (c) 1989, 1991 Adobe Systems Incorporated.  All Rights Reserved."
NOTICE "Utopia is a registered trademark of Adobe Systems Incorporated."
DESTINATION 0
FONT_ASCENT 31
FONT_DESCENT 8
DEFAULT_CHAR 0
_ADOBE_PSFONT "Utopia-BoldItalic"
_DEC_DEVICE_FONTNAMES "PS=Utopia-BoldItalic"
ENDPROPERTIES
CHARS 723
STARTCHAR char0
ENCODING 0
SWIDTH 800 0
DWIDTH 27 0
BBX 29 23 1 0
BITMAP
AAAAAAA8
00000000
80000008
00000000
80000008
00000000
80000008
00000000
80000008
00000000
80000008
00000000
80000008
00000000
80000008
00000000
80000008
00000000
80000008
00000000
80000008
00000000
AAAAAAA8
ENDCHAR
STARTCHAR space
ENCODING 32
SWIDTH 210 0
DWIDTH 7 0
BBX 0 0 0 0
BITMAP
ENDCHAR
STARTCHAR exclam
ENCODING 33
SWIDTH 285 0
DWIDTH 10 0
BBX 10 24 2 0
BITMAP
0380
07C0
0FC0
0F80
0F80
0F80
0F00
0F00
0F00
0E00
0E00
1E00
1C00
1C00
1800
1800
0000
0000
3000
7C00
FC00
FC00
7800
3000
ENDCHAR
STARTCHAR quotedbl
ENCODING 34
SWIDTH 455 0
DWIDTH 15 0
BBX 12 10 6 14
BITMAP
30E0
79F0
F9F0
F1E0
F1E0
F1C0
E1C0
E180
C180
C180
ENDCHAR
STARTCHAR numbersign
ENCODING 35
SWIDTH 560 0
DWIDTH 19 0
BBX 19 21 2 1
BITMAP
0061C0
00E180
00E380
00C380
01C300
01C700
018700
1FFFE0
3FFFC0
070C00
071C00
061800
7FFF80
FFFF00
1C3000
1C7000
187000
386000
38E000
30C000
71C000
ENDCHAR
STARTCHAR dollar
ENCODING 36
SWIDTH 560 0
DWIDTH 19 0
BBX 19 30 2 -4
BITMAP
000C00
000C00
001800
007C00
03FF80
079BC0
0F13E0
0E31E0
1E30C0
1E3000
1F3000
0FF000
0FF000
07FC00
03FE00
01FF00
00FF00
00DF80
00CF80
21C780
718780
F18700
F98F00
7D9E00
3FFC00
07E000
030000
030000
030000
040000
ENDCHAR
STARTCHAR percent
ENCODING 37
SWIDTH 896 0
DWIDTH 30 0
BBX 25 24 5 -1
BITMAP
0F800400
1CC01E00
38FFF800
38FFF800
78F03000
70F06000
F0F0C000
F0F18000
F0E38000
F1E70000
71C60000
738C7E00
1E18E700
0031C780
0073C780
00E38780
00C38780
01878780
03078700
07078F00
0E078E00
0C039C00
1801F000
30000000
ENDCHAR
STARTCHAR ampersand
ENCODING 38
SWIDTH 752 0
DWIDTH 25 0
BBX 23 23 3 0
BITMAP
003800
00FE00
01C700
03C780
078780
078780
078F00
07CE00
07DC1C
03F03E
03E03C
0FF03C
1DF838
3CF878
78FC70
787EE0
F83FC0
F83F80
F81FC0
7C0FE0
7E1FF0
3FF9F8
0FE03C
ENDCHAR
STARTCHAR quotesingle
ENCODING 39
SWIDTH 246 0
DWIDTH 8 0
BBX 5 11 6 13
BITMAP
30
78
F8
F0
F0
F0
E0
E0
C0
C0
C0
ENDCHAR
STARTCHAR parenleft
ENCODING 40
SWIDTH 350 0
DWIDTH 12 0
BBX 11 28 4 -4
BITMAP
00E0
03C0
0780
0F00
0E00
1E00
1C00
3C00
3800
3800
7800
7000
7000
7000
7000
F000
E000
E000
E000
E000
E000
E000
E000
6000
7000
3000
3800
0800
ENDCHAR
STARTCHAR parenright
ENCODING 41
SWIDTH 350 0
DWIDTH 12 0
BBX 11 28 1 -4
BITMAP
0200
0380
0180
01C0
00C0
00E0
00E0
00E0
00E0
00E0
00E0
00E0
01E0
01C0
01C0
01C0
01C0
03C0
0380
0380
0780
0700
0F00
0E00
1E00
3C00
7800
E000
ENDCHAR
STARTCHAR asterisk
ENCODING 42
SWIDTH 500 0
DWIDTH 17 0
BBX 14 13 5 11
BITMAP
01C0
03C0
1188
39BC
7D7C
0FF0
0780
3FE0
FA78
F670
4620
0F00
0600
ENDCHAR
STARTCHAR plus
ENCODING 43
SWIDTH 600 0
DWIDTH 20 0
BBX 15 17 5 0
BITMAP
0380
0380
0380
0380
0380
0380
0380
FFFE
FFFE
FFFE
0380
0380
0380
0380
0380
0380
0380
ENDCHAR
STARTCHAR comma
ENCODING 44
SWIDTH 280 0
DWIDTH 9 0
BBX 7 12 1 -6
BITMAP
08
1C
3E
3E
3E
1C
1C
38
38
70
E0
40
ENDCHAR
STARTCHAR hyphen
ENCODING 45
SWIDTH 392 0
DWIDTH 13 0
BBX 9 3 4 7
BITMAP
7F80
FF80
FF00
ENDCHAR
STARTCHAR period
ENCODING 46
SWIDTH 280 0
DWIDTH 9 0
BBX 6 6 2 0
BITMAP
30
7C
FC
FC
F8
30
ENDCHAR
STARTCHAR slash
ENCODING 47
SWIDTH 260 0
DWIDTH 9 0
BBX 13 24 1 0
BITMAP
0078
0070
0070
00F0
00E0
01E0
01C0
01C0
03C0
0380
0780
0700
0700
0F00
0E00
1E00
1C00
1C00
3C00
3800
7800
7000
7000
F000
ENDCHAR
STARTCHAR zero
ENCODING 48
SWIDTH 560 0
DWIDTH 19 0
BBX 18 23 3 0
BITMAP
007000
03FE00
07CF00
0F8780
1F0780
1F07C0
3E07C0
3E07C0
7E07C0
7C0FC0
7C0FC0
7C0F80
F80F80
F80F80
F81F80
F81F00
F81F00
F83E00
783E00
787C00
3C7800
1FF000
038000
ENDCHAR
STARTCHAR one
ENCODING 49
SWIDTH 560 0
DWIDTH 19 0
BBX 13 23 4 0
BITMAP
0038
07F8
0FF0
01F0
01F0
01F0
01F0
01E0
01E0
03E0
03E0
03E0
03C0
07C0
07C0
07C0
07C0
0780
0F80
0F80
0F80
0F80
FFF0
ENDCHAR
STARTCHAR two
ENCODING 50
SWIDTH 560 0
DWIDTH 19 0
BBX 19 23 1 0
BITMAP
007C00
01FF80
07E7C0
07C3C0
0F83E0
0F83E0
0703E0
0207E0
0007E0
000FC0
001F80
003F00
007E00
00F800
01E000
038000
0F0000
1E0080
3C0180
7FFF80
7FFF00
FFFF00
FFFF00
ENDCHAR
STARTCHAR three
ENCODING 51
SWIDTH 560 0
DWIDTH 19 0
BBX 17 23 3 0
BITMAP
01F000
07FE00
0F9F00
1F0F00
3E0F80
1C0F80
081F80
001F80
001F00
003E00
0FF800
0FF800
003C00
001E00
001E00
001F00
601F00
F01F00
F03E00
F83E00
787C00
3FF000
0FC000
ENDCHAR
STARTCHAR four
ENCODING 52
SWIDTH 560 0
DWIDTH 19 0
BBX 18 23 2 0
BITMAP
0003C0
0007C0
000F80
001F80
003F80
006F80
00EF00
01CF00
039F00
071F00
071F00
0E1E00
1C3E00
383E00
703E00
7FFFC0
FFFF80
007C00
007C00
007C00
007800
00F800
07FF00
ENDCHAR
STARTCHAR five
ENCODING 53
SWIDTH 560 0
DWIDTH 19 0
BBX 19 23 2 0
BITMAP
03FFE0
07FFE0
07FFC0
07FF80
060000
060000
0E0000
0C0000
0C0000
0CF800
0FFE00
1C3F00
081F80
000F80
000F80
000F80
300F80
780F00
F81F00
7C1E00
7C3E00
3FF800
07C000
ENDCHAR
STARTCHAR six
ENCODING 54
SWIDTH 560 0
DWIDTH 19 0
BBX 18 23 3 0
BITMAP
003C00
01FF00
07C780
0F87C0
1F03C0
1F0380
3F0100
3E0000
7E3800
7EFE00
7FFF00
7E1F00
7C1F80
FC0F80
F80F80
F80F80
F80F80
F81F00
781F00
7C1E00
3C3C00
1FF800
03C000
ENDCHAR
STARTCHAR seven
ENCODING 55
SWIDTH 560 0
DWIDTH 19 0
BBX 17 23 5 0
BITMAP
3FFF80
7FFF80
7FFF00
7FFF00
C00E00
C00E00
001C00
003800
003000
006000
00E000
01C000
038000
078000
0F0000
1E0000
1E0000
3E0000
3E0000
7C0000
7C0000
7C0000
380000
ENDCHAR
STARTCHAR eight
ENCODING 56
SWIDTH 560 0
DWIDTH 19 0
BBX 19 23 2 0
BITMAP
007C00
03FF80
07C7C0
0F83E0
1F83E0
1F03E0
1F07E0
1F07E0
0F07C0
078F80
03FC00
1FFC00
3E1F00
7C0F00
7C0F80
F80F80
F80F80
F81F80
F81F00
781F00
7C3E00
1FF800
07C000
ENDCHAR
STARTCHAR nine
ENCODING 57
SWIDTH 560 0
DWIDTH 19 0
BBX 18 23 2 0
BITMAP
01F800
078E00
0F0700
1F0780
1F0780
1E07C0
3E07C0
3E07C0
3E07C0
3E0FC0
3F0FC0
1F1F80
0FFF80
03CF80
000F80
000F00
101F00
701F00
F83E00
783C00
7CF800
3FF000
07C000
ENDCHAR
STARTCHAR colon
ENCODING 58
SWIDTH 280 0
DWIDTH 9 0
BBX 8 17 2 0
BITMAP
0C
1E
1F
3F
1E
1C
00
00
00
00
00
38
78
FC
F8
78
30
ENDCHAR
STARTCHAR semicolon
ENCODING 59
SWIDTH 280 0
DWIDTH 9 0
BBX 10 22 1 -5
BITMAP
0300
0780
0FC0
0FC0
0F80
0700
0000
0000
0000
0000
0800
1C00
3E00
3E00
3E00
1C00
1C00
3800
3800
7000
E000
4000
ENDCHAR
STARTCHAR less
ENCODING 60
SWIDTH 600 0
DWIDTH 20 0
BBX 16 17 3 0
BITMAP
0001
0007
003F
00FE
03F8
0FE0
7F00
FC00
E000
FC00
3F00
0FE0
03F8
007F
001F
0007
0001
ENDCHAR
STARTCHAR equal
ENCODING 61
SWIDTH 600 0
DWIDTH 20 0
BBX 16 10 4 3
BITMAP
FFFF
FFFF
FFFF
0000
0000
0000
0000
FFFF
FFFF
FFFF
ENDCHAR
STARTCHAR greater
ENCODING 62
SWIDTH 600 0
DWIDTH 20 0
BBX 16 17 4 0
BITMAP
8000
E000
FC00
7F00
1FC0
07F0
00FE
003F
0007
003F
00FC
07F0
1FC0
FE00
F800
E000
8000
ENDCHAR
STARTCHAR question
ENCODING 63
SWIDTH 454 0
DWIDTH 15 0
BBX 13 24 5 0
BITMAP
0F80
3FE0
7CF0
F8F8
F8F8
F1F8
21F8
03F0
07E0
0F80
1F00
7C00
7800
F800
F800
7F00
3C00
0000
3000
7800
FC00
FC00
F800
3000
ENDCHAR
STARTCHAR at
ENCODING 64
SWIDTH 828 0
DWIDTH 28 0
BBX 25 24 4 0
BITMAP
000F8000
00FFF000
01F07800
07801C00
0F000E00
1E000700
3C03F700
3C1EF300
7838F380
78F0E380
70F0E380
71E1E380
F1E1E300
F3E3C300
F3C3C700
73C5C600
73C9CC00
79F1F800
78E0E000
3C000000
1E000000
0FC06000
03FFC000
007F0000
ENDCHAR
STARTCHAR A
ENCODING 65
SWIDTH 634 0
DWIDTH 21 0
BBX 23 24 -1 0
BITMAP
0003E0
0003E0
0007E0
0007E0
000FE0
000FE0
001BE0
001BE0
0033E0
0031E0
0061F0
0061F0
00C1F0
00C1F0
01FFF0
03FFF0
0301F0
0701F0
0601F0
0E01F0
0C01F0
1C00F8
3C01F8
FF07FE
ENDCHAR
STARTCHAR B
ENCODING 66
SWIDTH 680 0
DWIDTH 23 0
BBX 23 24 1 0
BITMAP
07FFC0
01FFF8
01F8FC
01F03E
01F03E
01F03E
03F03E
03E03E
03E07C
03E078
03E1F0
07FF80
07FFE0
07C3F0
07C1F8
07C0F8
0FC0FC
0F80FC
0F80F8
0F81F8
0F81F8
1F87F0
1FFFC0
FFFE00
ENDCHAR
STARTCHAR C
ENCODING 67
SWIDTH 672 0
DWIDTH 22 0
BBX 21 24 4 0
BITMAP
001FC0
00FFF0
03F078
07C038
0F8038
1F8010
3F0010
3E0010
7E0000
7E0000
7C0000
7C0000
FC0000
FC0000
FC0000
FC0000
FC0020
7C0060
7C00C0
3E00C0
3E01C0
1F07C0
07FF80
007C00
ENDCHAR
STARTCHAR D
ENCODING 68
SWIDTH 774 0
DWIDTH 26 0
BBX 26 24 1 0
BITMAP
07FF8000
01FFF800
01F03E00
01F00F00
01F00F80
03E00780
03E00780
03E007C0
03E007C0
03E007C0
07C007C0
07C007C0
07C00FC0
07C00F80
07C00F80
0F801F80
0F801F00
0F803F00
0F803E00
1F007E00
1F00FC00
1F83F000
1FFFC000
FFFC0000
ENDCHAR
STARTCHAR E
ENCODING 69
SWIDTH 622 0
DWIDTH 21 0
BBX 23 24 1 0
BITMAP
07FFFE
01FFFE
01F81E
01F00C
01F00C
01F00C
01F00C
03F000
03E060
03E060
03E0C0
03FFC0
07FFC0
07C0C0
07C0C0
07C080
07C000
0F8018
0F8030
0F8030
0F8070
1F80E0
1FFFE0
FFFFE0
ENDCHAR
STARTCHAR F
ENCODING 70
SWIDTH 585 0
DWIDTH 20 0
BBX 22 24 2 0
BITMAP
0FFFFC
01FFFC
01F03C
01F01C
01F018
03E008
03E000
03E000
03E000
03E060
07E040
07C0C0
07FFC0
07FFC0
07C1C0
0F8080
0F8080
0F8000
0F8000
0F8000
1F0000
1F0000
1F0000
FFE000
ENDCHAR
STARTCHAR G
ENCODING 71
SWIDTH 726 0
DWIDTH 24 0
BBX 23 24 4 0
BITMAP
000FC0
00FFF8
01F07C
07C03C
0FC01C
1F801C
1F001C
3F0008
3E0000
7E0000
7E0000
7C0000
7C0000
FC0000
FC0FFE
FC01F0
FC01F0
7C01F0
7C03F0
7E03E0
3E03E0
1F07E0
07FF80
00FC00
ENDCHAR
STARTCHAR H
ENCODING 72
SWIDTH 800 0
DWIDTH 27 0
BBX 29 24 1 0
BITMAP
07FE3FF8
01F807C0
01F007C0
01F007C0
01F00F80
03F00F80
03E00F80
03E00F80
03E00F80
03E01F00
07E01F00
07FFFF00
07FFFF00
07C01F00
07C03E00
0FC03E00
0F803E00
0F803E00
0F803E00
0F807C00
1F807C00
1F007C00
1F00FC00
FFE3FF00
ENDCHAR
STARTCHAR I
ENCODING 73
SWIDTH 386 0
DWIDTH 13 0
BBX 15 24 2 0
BITMAP
07FE
01F0
01F0
01F0
01E0
03E0
03E0
03E0
03E0
03C0
07C0
07C0
07C0
07C0
0780
0F80
0F80
0F80
0F80
0F00
1F00
1F00
1F00
FFC0
ENDCHAR
STARTCHAR J
ENCODING 74
SWIDTH 388 0
DWIDTH 13 0
BBX 18 28 -1 -4
BITMAP
01FFC0
007E00
007E00
007C00
007C00
007C00
007C00
00FC00
00F800
00F800
00F800
00F800
01F800
01F000
01F000
01F000
01F000
03E000
03E000
03E000
03E000
07E000
07C000
07C000
0F8000
1F8000
3E0000
F80000
ENDCHAR
STARTCHAR K
ENCODING 75
SWIDTH 688 0
DWIDTH 23 0
BBX 28 24 1 0
BITMAP
07FF3FF0
01F80F80
01F81E00
01F03C00
01F07800
01F0F000
01F1C000
03E38000
03E30000
03E60000
03EE0000
03FE0000
07FF0000
07DF0000
07DF8000
079F8000
078FC000
0F8FC000
0F87E000
0F87E000
0F07F000
1F03F800
1F01FC00
FFE01E00
ENDCHAR
STARTCHAR L
ENCODING 76
SWIDTH 586 0
DWIDTH 20 0
BBX 20 24 1 0
BITMAP
07FF00
01F800
01F800
01F000
01F000
01F000
03F000
03E000
03E000
03E000
03E000
07E000
07C000
07C000
07C000
07C000
078000
0F8030
0F8060
0F8060
0F80E0
1F83E0
1FFFC0
FFFFC0
ENDCHAR
STARTCHAR M
ENCODING 77
SWIDTH 921 0
DWIDTH 31 0
BBX 33 24 1 0
BITMAP
07F8007F80
01F800FE00
01F800FC00
01FC01FC00
01FC01FC00
037C037C00
037C037800
033C06F800
033E0CF800
033E0CF800
063E18F800
063E18F000
063E31F000
061E31F000
061E61F000
061F61F000
0C1FC1E000
0C1FC3E000
0C1F83E000
0C1F83E000
1C0F03E000
1C0E07C000
1C0E07E000
FF8C3FF800
ENDCHAR
STARTCHAR N
ENCODING 78
SWIDTH 741 0
DWIDTH 25 0
BBX 28 24 1 0
BITMAP
07F80FF0
01F80380
01F80380
01FC0380
01FC0300
01FE0300
033E0300
033E0300
031F0600
031F0600
031F8600
060F8600
060F8600
0607CC00
0607CC00
0607EC00
0C03EC00
0C03EC00
0C01F800
0C01F800
1C01F800
1C00F800
1C00F800
FF007000
ENDCHAR
STARTCHAR O
ENCODING 79
SWIDTH 761 0
DWIDTH 25 0
BBX 23 24 4 0
BITMAP
001E00
00FFC0
03E0F0
07C0F8
0FC078
1F807C
3F007C
3F007C
7E007E
7E007E
7E007E
FE007E
FC00FE
FC00FC
FC00FC
FC00FC
FC01F8
7C01F8
7C03F0
3C03E0
3E07C0
1F0F80
07FF00
00F800
ENDCHAR
STARTCHAR P
ENCODING 80
SWIDTH 660 0
DWIDTH 22 0
BBX 23 24 1 0
BITMAP
07FFC0
01FFF0
01F8F8
01F87C
01F03C
01F03E
01F03E
03F03E
03E03E
03E07C
03E07C
03E0F8
07E1F0
07FFC0
07FE00
07C000
07C000
0FC000
0F8000
0F8000
0F8000
1F8000
1F8000
FFF000
ENDCHAR
STARTCHAR Q
ENCODING 81
SWIDTH 761 0
DWIDTH 25 0
BBX 23 30 4 -6
BITMAP
001E00
00FFC0
03E0F0
07C0F8
0FC078
1F807C
3F007C
3F007C
3E007E
7E007E
7E007E
FE007E
FC007E
FC00FC
FC00FC
FC00FC
FC01F8
7C01F8
7C03F0
7C03E0
3E07E0
1E0FC0
0FBF00
03FC00
00FC00
007C00
007E00
003F00
001F80
0003E0
ENDCHAR
STARTCHAR R
ENCODING 82
SWIDTH 681 0
DWIDTH 23 0
BBX 22 24 2 0
BITMAP
07FF80
01FFF0
01F0F8
01F0F8
01F07C
03E07C
03E07C
03E07C
03E07C
03E0F8
07C1F0
07C3E0
07FF80
07FF80
07C3C0
0F83E0
0F83E0
0F83E0
0F83E0
0F83E0
1F03E0
1F03E0
1F01F0
FFC0FC
ENDCHAR
STARTCHAR S
ENCODING 83
SWIDTH 551 0
DWIDTH 18 0
BBX 18 24 2 0
BITMAP
003E00
01FF80
0783C0
0F81C0
0F01C0
1F0080
1F0080
1F8000
1FC000
0FF000
0FF800
07FC00
01FF00
00FF00
007F80
401F80
401F80
600F80
E00F80
F00F00
F01F00
7C3E00
3FF800
03C000
ENDCHAR
STARTCHAR T
ENCODING 84
SWIDTH 616 0
DWIDTH 21 0
BBX 21 24 4 0
BITMAP
3FFFF8
7FFFF8
78FC78
70F838
60F830
40F830
C0F810
01F800
01F000
01F000
01F000
01F000
03E000
03E000
03E000
03E000
07E000
07C000
07C000
07C000
07C000
0FC000
0FC000
7FF000
ENDCHAR
STARTCHAR U
ENCODING 85
SWIDTH 776 0
DWIDTH 26 0
BBX 25 24 5 0
BITMAP
7FE3FF80
1F007C00
1F007C00
1F00FC00
1F00F800
3E00F800
3E00F800
3E00F800
3E01F000
3E01F000
7C01F000
7C01F000
7C03F000
7C03E000
F803E000
F803E000
F807C000
F807C000
F807C000
F80F8000
780F0000
7C1F0000
1FFC0000
03E00000
ENDCHAR
STARTCHAR V
ENCODING 86
SWIDTH 630 0
DWIDTH 21 0
BBX 23 24 4 0
BITMAP
FFC1FE
3E0078
3E0070
3E0060
3E00E0
1E00C0
1F01C0
1F0180
1F0300
1F0300
1F0600
1F0600
1F0C00
1F0C00
1F1800
0F1800
0FB000
0FB000
0FE000
0FE000
0FC000
0FC000
0F8000
0F8000
ENDCHAR
STARTCHAR W
ENCODING 87
SWIDTH 920 0
DWIDTH 31 0
BBX 32 24 4 0
BITMAP
FF80007F
3E01E01C
3E03E018
3E03E018
3E03E030
3E07E030
1E05E070
1E0DE060
1E0DE060
1E19E0C0
1E19E0C0
1E11E180
1E31F180
1E21F380
1E61F300
1E61F300
1EC1F600
1EC1F600
1E81FC00
1F81FC00
1F01F800
1F01F800
1F00F000
1E00F000
ENDCHAR
STARTCHAR X
ENCODING 88
SWIDTH 630 0
DWIDTH 21 0
BBX 27 24 -1 0
BITMAP
07FF3FE0
01F80F00
00F80E00
00FC1C00
007C3800
007C3000
007E6000
003EC000
003FC000
001F8000
001F0000
001F8000
000F8000
001F8000
003FC000
0077C000
00E7E000
00C3E000
01C3E000
0383F000
0701F000
0E01F800
3E01F800
FF8FFF00
ENDCHAR
STARTCHAR Y
ENCODING 89
SWIDTH 622 0
DWIDTH 21 0
BBX 21 24 5 0
BITMAP
FFCFF8
3E01E0
3E01C0
3E0380
1F0700
1F0600
1F0E00
1F0C00
0F1800
0F3800
0FB000
0FE000
07E000
07C000
07C000
078000
078000
078000
0F8000
0F8000
0F0000
0F0000
1F0000
FFE000
ENDCHAR
STARTCHAR Z
ENCODING 90
SWIDTH 618 0
DWIDTH 21 0
BBX 25 24 0 0
BITMAP
01FFFF80
01FFFF00
03C07F00
03007E00
0300FC00
0201F800
0203F000
0007E000
000FE000
000FC000
001F8000
003F0000
007E0000
00FC0000
01F80000
01F80000
03F00000
07E00C00
0FC01800
1F801800
3F003800
3F00F000
7FFFF000
FFFFF000
ENDCHAR
STARTCHAR bracketleft
ENCODING 91
SWIDTH 350 0
DWIDTH 12 0
BBX 12 28 3 -4
BITMAP
03F0
0380
0700
0700
0700
0700
0700
0E00
0E00
0E00
0E00
0E00
1C00
1C00
1C00
1C00
3C00
3800
3800
3800
3800
7800
7000
7000
7000
7000
F000
FC00
ENDCHAR
STARTCHAR backslash
ENCODING 92
SWIDTH 460 0
DWIDTH 15 0
BBX 10 24 5 0
BITMAP
E000
F000
7000
7000
7000
3800
3800
3800
3C00
1C00
1C00
1C00
0E00
0E00
0E00
0F00
0700
0700
0700
0380
0380
0380
03C0
01C0
ENDCHAR
STARTCHAR bracketright
ENCODING 93
SWIDTH 350 0
DWIDTH 12 0
BBX 12 28 1 -4
BITMAP
03F0
00F0
00E0
00E0
00E0
00E0
01E0
01C0
01C0
01C0
01C0
03C0
0380
0380
0380
0380
0700
0700
0700
0700
0700
0E00
0E00
0E00
0E00
0E00
1C00
FC00
ENDCHAR
STARTCHAR asciicircum
ENCODING 94
SWIDTH 600 0
DWIDTH 20 0
BBX 16 15 4 8
BITMAP
03C0
03C0
07E0
07E0
07E0
0E70
0E70
1E78
1C38
3C3C
381C
381C
781E
700E
F00F
ENDCHAR
STARTCHAR underscore
ENCODING 95
SWIDTH 500 0
DWIDTH 17 0
BBX 17 2 0 -4
BITMAP
FFFF80
FFFF80
ENDCHAR
STARTCHAR grave
ENCODING 96
SWIDTH 400 0
DWIDTH 13 0
BBX 9 8 5 17
BITMAP
4000
F000
F800
7C00
3E00
0F00
0380
0080
ENDCHAR
STARTCHAR a
ENCODING 97
SWIDTH 596 0
DWIDTH 20 0
BBX 19 17 2 0
BITMAP
0073C0
03FFC0
07C7C0
0F87C0
1F0780
3E0F80
3E0F80
3C1F00
7C1F00
7C3F00
F83F00
F85E20
F89E60
F9BEC0
FF3F80
7E3F00
301C00
ENDCHAR
STARTCHAR b
ENCODING 98
SWIDTH 586 0
DWIDTH 20 0
BBX 18 25 3 0
BITMAP
01C000
3FC000
0F8000
0F8000
0F8000
0F8000
0F0000
0F0000
1F0700
1F1F80
1E3F80
1E67C0
3E87C0
3D07C0
3F07C0
3E0F80
7E0F80
7C0F80
7C0F00
7C1F00
781E00
FC3C00
FC7800
DFF000
878000
ENDCHAR
STARTCHAR c
ENCODING 99
SWIDTH 456 0
DWIDTH 15 0
BBX 16 17 2 0
BITMAP
0030
03FE
079F
1F0F
3E0E
3C04
7C00
7C00
7800
F800
F800
F804
F80C
F818
7C30
7FE0
1E00
ENDCHAR
STARTCHAR d
ENCODING 100
SWIDTH 609 0
DWIDTH 20 0
BBX 21 25 2 0
BITMAP
000038
0007F8
0001F0
0001F0
0001F0
0001F0
0001E0
0001E0
007BE0
03FFE0
07C3C0
0F87C0
1F07C0
3E07C0
3E0F80
7C0F80
7C1F80
781F80
F83F80
F82F10
F84F30
F89F60
7F9FC0
7E1F80
380600
ENDCHAR
STARTCHAR e
ENCODING 101
SWIDTH 476 0
DWIDTH 16 0
BBX 16 17 2 0
BITMAP
0030
03FE
078F
1F0F
3E0F
3C1F
7C1E
7C7C
79F8
FFC0
FC00
F806
F80C
F808
7C38
3FE0
1F00
ENDCHAR
STARTCHAR f
ENCODING 102
SWIDTH 348 0
DWIDTH 12 0
BBX 23 33 -3 -8
BITMAP
0000E0
0003FC
0007BC
000F1E
001F0C
001F00
001E00
003E00
01FFE0
01FFE0
003E00
007C00
007C00
007C00
007C00
007800
00F800
00F800
00F800
00F000
00F000
01F000
01F000
01E000
01E000
01E000
03E000
03C000
23C000
F38000
F78000
7F0000
1C0000
ENDCHAR
STARTCHAR g
ENCODING 103
SWIDTH 522 0
DWIDTH 17 0
BBX 21 25 0 -8
BITMAP
003838
01FFF0
03E3F0
07C3C0
0FC3E0
0F83E0
0F87C0
0F87C0
0F8F80
07FF00
03F800
030000
0F0000
1FE000
0FF800
07FE00
07FF00
3C3F80
780F80
F80780
F80780
780700
7E0E00
3FFC00
07F000
ENDCHAR
STARTCHAR h
ENCODING 104
SWIDTH 629 0
DWIDTH 21 0
BBX 19 25 3 0
BITMAP
01C000
3FC000
0FC000
078000
0F8000
0F8000
0F8000
0F0000
1F0380
1F1FC0
1F3FC0
1E67C0
1E47C0
3E8780
3F0F80
3F0F80
3E0F00
7E1F00
7C1F00
7C1E20
7C3E40
783EC0
F83F80
F83F00
F01C00
ENDCHAR
STARTCHAR i
ENCODING 105
SWIDTH 339 0
DWIDTH 11 0
BBX 10 24 3 0
BITMAP
0380
0780
0FC0
0780
0780
0000
0000
0780
7F00
BF00
1F00
1E00
3E00
3E00
3E00
3C00
7C00
7C00
7880
F980
FB00
FE00
FC00
7000
ENDCHAR
STARTCHAR j
ENCODING 106
SWIDTH 333 0
DWIDTH 11 0
BBX 15 32 -2 -8
BITMAP
001C
003E
007E
003E
003C
0000
0000
000E
01FC
02FC
007C
007C
007C
0078
00F8
00F8
00F8
00F0
01F0
01F0
01F0
01E0
03E0
03E0
03E0
03C0
03C0
47C0
E780
F700
FF00
3C00
ENDCHAR
STARTCHAR k
ENCODING 107
SWIDTH 570 0
DWIDTH 19 0
BBX 19 25 2 0
BITMAP
01E000
1FC000
07C000
07C000
07C000
078000
0F8000
0F8000
0F80C0
0F03E0
1F07E0
1F09E0
1F10C0
1E2000
1E7000
3EF000
3EF000
3CF000
3CF800
7C7840
7C78C0
7C7C80
783F80
F83F00
F00E00
ENDCHAR
STARTCHAR l
ENCODING 108
SWIDTH 327 0
DWIDTH 11 0
BBX 10 25 3 0
BITMAP
01C0
3FC0
0F80
0780
0F80
0F80
0F00
0F00
1F00
1F00
1F00
1E00
3E00
3E00
3E00
3C00
7C00
7C00
7C00
7880
F980
FB00
FE00
FC00
7000
ENDCHAR
STARTCHAR m
ENCODING 109
SWIDTH 914 0
DWIDTH 30 0
BBX 29 17 3 0
BITMAP
078700E0
7F0F87F0
1F3F8FF0
1F2799F0
1E47B1F0
1E8761E0
3F8F43E0
3F0F83E0
3E0F83C0
3E1F07C0
7C1F07C0
7C1E0788
7C1E0F90
783E0FB0
F83E0FE0
F83C0FC0
F0780700
ENDCHAR
STARTCHAR n
ENCODING 110
SWIDTH 635 0
DWIDTH 21 0
BBX 20 17 2 0
BITMAP
07C1C0
7F87E0
0F9FE0
0F93E0
0F23E0
1F43C0
1F87C0
1E87C0
1F0780
3F0F80
3E0F80
3E0F10
3E1F30
7C1F60
7C1FC0
7C1F80
F80E00
ENDCHAR
STARTCHAR o
ENCODING 111
SWIDTH 562 0
DWIDTH 19 0
BBX 18 17 2 0
BITMAP
00F800
07FF00
0FCF80
1F0780
3F07C0
3E07C0
7C07C0
7C0FC0
FC0FC0
F80F80
F80F80
F81F00
F83F00
783E00
787C00
3FF800
07C000
ENDCHAR
STARTCHAR p
ENCODING 112
SWIDTH 606 0
DWIDTH 20 0
BBX 20 25 2 -8
BITMAP
07C180
3FC7E0
0F8FE0
0F99F0
0FA1F0
0F61F0
0F41F0
0F83E0
1F83E0
1F03E0
1F03C0
1F07C0
3E0780
3E0F80
3E1F00
3FFC00
3CF000
7C0000
7C0000
7C0000
780000
780000
F80000
F80000
F00000
ENDCHAR
STARTCHAR q
ENCODING 113
SWIDTH 584 0
DWIDTH 19 0
BBX 19 25 2 -8
BITMAP
0078E0
03FFE0
07C3C0
0F87C0
1F07C0
3E07C0
3E0F80
7C0F80
7C1F80
781F80
F82F00
F87F00
F85F00
F89F00
7F1E00
7E3E00
183E00
003E00
003C00
003C00
007C00
007C00
007C00
007800
00E000
ENDCHAR
STARTCHAR r
ENCODING 114
SWIDTH 440 0
DWIDTH 15 0
BBX 15 17 3 0
BITMAP
0F0C
7F3E
1E7E
1EFC
1F98
1F00
3F00
3E00
3E00
3E00
7C00
7C00
7C00
7C00
F800
F800
F000
ENDCHAR
STARTCHAR s
ENCODING 115
SWIDTH 417 0
DWIDTH 14 0
BBX 15 17 1 0
BITMAP
01F0
07FC
0E3C
1E1E
1E0C
1F00
0F80
0FC0
07F0
03F0
01F0
20F8
7078
F878
7C70
3FE0
0F80
ENDCHAR
STARTCHAR t
ENCODING 116
SWIDTH 359 0
DWIDTH 12 0
BBX 12 22 3 0
BITMAP
00C0
0380
0F80
0F80
0F00
7FF0
FFF0
1F00
1E00
3E00
3E00
3E00
3C00
7C00
7C00
7C00
78C0
F880
F900
FE00
FC00
3800
ENDCHAR
STARTCHAR u
ENCODING 117
SWIDTH 634 0
DWIDTH 21 0
BBX 19 17 3 0
BITMAP
0703C0
FF07C0
3F07C0
1E0780
3E0F80
3E0F80
3E0F80
3C1F00
7C1F00
7C3F00
7C7F00
785E20
F89E60
F93EC0
FF3F80
FC3F00
700C00
ENDCHAR
STARTCHAR v
ENCODING 118
SWIDTH 518 0
DWIDTH 17 0
BBX 15 17 4 0
BITMAP
0F0C
FE1E
3E1E
3E1E
3E1E
3C1C
3C1C
7C1C
7C38
7C38
7830
F860
F8C0
F980
FF00
FE00
3800
ENDCHAR
STARTCHAR w
ENCODING 119
SWIDTH 795 0
DWIDTH 27 0
BBX 25 17 4 0
BITMAP
0F0F8700
FF0F8780
3E0F0780
3E1F0780
3E1F0700
3E1F0700
3C1E0700
7C3E0600
7C3E0E00
7C7E0C00
785C1800
F8BC1000
F8BC2000
F93C4000
FE3F8000
FC1F0000
700C0000
ENDCHAR
STARTCHAR x
ENCODING 120
SWIDTH 516 0
DWIDTH 17 0
BBX 19 17 0 0
BITMAP
0060E0
07E3E0
1FE7E0
01E6C0
01F800
01F800
01F000
00F000
00F800
00F800
00F840
017840
237CC0
727D80
FC3F00
7C3F00
301C00
ENDCHAR
STARTCHAR y
ENCODING 121
SWIDTH 489 0
DWIDTH 16 0
BBX 19 25 0 -8
BITMAP
00C040
0FC1E0
3FC1E0
07C1C0
07C1C0
03C1C0
03C380
03C380
03C300
03E300
03E600
03E400
03EC00
01E800
01F800
01F000
01F000
01E000
01E000
01C000
618000
F10000
FB0000
FE0000
780000
ENDCHAR
STARTCHAR z
ENCODING 122
SWIDTH 466 0
DWIDTH 16 0
BBX 17 17 1 0
BITMAP
07FF80
0FFF00
0FFE00
181C00
103800
307000
00E000
01C000
038000
070100
0E0100
1C0300
3F8600
7FFE00
7FFE00
E1FC00
E03800
ENDCHAR
STARTCHAR braceleft
ENCODING 123
SWIDTH 340 0
DWIDTH 11 0
BBX 11 28 5 -4
BITMAP
01E0
0380
0700
0700
0E00
0E00
0E00
0E00
0E00
0C00
1C00
1C00
1800
3000
E000
7800
3800
3800
3800
7000
7000
7000
7000
E000
E000
E000
7000
3800
ENDCHAR
STARTCHAR bar
ENCODING 124
SWIDTH 265 0
DWIDTH 9 0
BBX 3 24 5 0
BITMAP
E0
E0
E0
E0
E0
E0
E0
E0
E0
E0
E0
E0
E0
E0
E0
E0
E0
E0
E0
E0
E0
E0
E0
E0
ENDCHAR
STARTCHAR braceright
ENCODING 125
SWIDTH 340 0
DWIDTH 11 0
BBX 11 28 0 -4
BITMAP
0380
01C0
00E0
00E0
00E0
00E0
01C0
01C0
01C0
01C0
0380
0380
0380
03C0
00E0
0380
0700
0700
0700
0E00
0E00
0E00
0E00
0E00
1C00
1C00
3800
F000
ENDCHAR
STARTCHAR asciitilde
ENCODING 126
SWIDTH 600 0
DWIDTH 20 0
BBX 17 6 3 5
BITMAP
000100
1F8380
3FFF00
7FFE00
E07C00
400000
ENDCHAR
STARTCHAR space
ENCODING 160
SWIDTH 210 0
DWIDTH 7 0
BBX 0 0 0 0
BITMAP
ENDCHAR
STARTCHAR exclamdown
ENCODING 161
SWIDTH 285 0
DWIDTH 10 0
BBX 10 24 1 -7
BITMAP
0300
0780
0FC0
0FC0
0F80
0300
0000
0000
0600
0600
0E00
0E00
1E00
1C00
1C00
3C00
3C00
3C00
7C00
7C00
7C00
FC00
F800
7000
ENDCHAR
STARTCHAR cent
ENCODING 162
SWIDTH 560 0
DWIDTH 19 0
BBX 18 23 4 0
BITMAP
001800
001800
001800
007800
07FF00
0FB780
1F33C0
3E23C0
3C6100
7C6000
7C6000
FC4000
F8C000
F8C000
F8C000
F8C300
798600
7D8E00
3FF800
0FC000
010000
030000
030000
ENDCHAR
STARTCHAR sterling
ENCODING 163
SWIDTH 560 0
DWIDTH 19 0
BBX 19 23 1 0
BITMAP
001E00
007FC0
01E3E0
01C3E0
03C1E0
03C0E0
07C000
07C000
07C000
07C000
03E000
03E000
3FFF80
3FFF00
01F000
01F000
01E000
01C040
0380C0
1FFFC0
7FFF80
7FFF80
FFFF00
ENDCHAR
STARTCHAR currency
ENCODING 164
SWIDTH 560 0
DWIDTH 19 0
BBX 17 18 3 2
BITMAP
400100
E3E380
7FFF00
7FFF00
3C1E00
380E00
780F00
700700
700700
700700
700700
780F00
380E00
3C1E00
7FFF00
7FFF00
E3E380
400100
ENDCHAR
STARTCHAR yen
ENCODING 165
SWIDTH 560 0
DWIDTH 19 0
BBX 20 23 4 0
BITMAP
7FEFF0
1F03C0
1F0380
0F0300
0F8700
0F8600
0F8C00
0F8C00
079800
079800
07F000
7FFF00
7FFF00
03C000
07C000
FFFC00
FFFC00
0F0000
0F0000
1F0000
1F0000
1F0000
FFE000
ENDCHAR
STARTCHAR brokenbar
ENCODING 166
SWIDTH 265 0
DWIDTH 9 0
BBX 3 24 5 0
BITMAP
E0
E0
E0
E0
E0
E0
E0
E0
E0
00
00
00
00
E0
E0
E0
E0
E0
E0
E0
E0
E0
E0
E0
ENDCHAR
STARTCHAR section
ENCODING 167
SWIDTH 568 0
DWIDTH 19 0
BBX 17 28 3 -4
BITMAP
003800
00FF00
018F80
038780
038300
038000
07C000
1BE000
31F000
31FC00
70FE00
703F00
781F00
7C0F00
3E0780
3F0380
1F8380
0FC300
07E700
03E600
01FC00
00F800
607000
F07000
F06000
F8E000
7FC000
1F0000
ENDCHAR
STARTCHAR dieresis
ENCODING 168
SWIDTH 400 0
DWIDTH 13 0
BBX 13 5 5 19
BITMAP
3060
F8F8
F8F8
F8F8
3060
ENDCHAR
STARTCHAR copyright
ENCODING 169
SWIDTH 824 0
DWIDTH 27 0
BBX 25 24 4 0
BITMAP
003E0000
01FFC000
03C1E000
0F007800
1E003C00
1C000C00
383F0E00
70F1C700
71E0C700
61E04300
63C00300
E3C00380
E3C00380
E3C00380
63C04300
61E04300
71E0C700
70F1C700
383F0E00
1C001C00
0E003800
0780F000
01FFC000
003E0000
ENDCHAR
STARTCHAR ordfeminine
ENCODING 170
SWIDTH 444 0
DWIDTH 15 0
BBX 14 11 3 9
BITMAP
01F8
0E78
1C78
3870
78F0
78F0
71E0
F3E4
F2E8
7CF0
7840
ENDCHAR
STARTCHAR guillemotleft
ENCODING 171
SWIDTH 560 0
DWIDTH 19 0
BBX 15 14 4 1
BITMAP
0102
0304
061C
0C38
1C70
38F0
71E0
F1E0
78E0
38E0
3870
1830
0C10
0418
ENDCHAR
STARTCHAR logicalnot
ENCODING 172
SWIDTH 600 0
DWIDTH 20 0
BBX 16 10 4 3
BITMAP
FFFF
FFFF
FFFF
0007
0007
0007
0007
0007
0007
0007
ENDCHAR
STARTCHAR hyphen
ENCODING 173
SWIDTH 392 0
DWIDTH 13 0
BBX 9 3 4 7
BITMAP
7F80
FF80
FF00
ENDCHAR
STARTCHAR registered
ENCODING 174
SWIDTH 824 0
DWIDTH 27 0
BBX 25 24 4 0
BITMAP
003C0000
01FFC000
03C1E000
0F007800
1C003C00
18001C00
3BFE0E00
70E78700
70E3C700
60E3C300
60E38300
E0E78380
E0FE0380
E0E70380
60E78300
60E78300
70E3C700
70E3C700
3BF9EE00
1C001C00
0E007800
0781F000
01FFC000
003E0000
ENDCHAR
STARTCHAR macron
ENCODING 175
SWIDTH 400 0
DWIDTH 13 0
BBX 11 2 6 20
BITMAP
FFE0
FFE0
ENDCHAR
STARTCHAR degree
ENCODING 176
SWIDTH 375 0
DWIDTH 13 0
BBX 12 11 4 12
BITMAP
0F00
3FC0
79E0
70E0
E070
E070
E070
70E0
79E0
3FC0
0F00
ENDCHAR
STARTCHAR plusminus
ENCODING 177
SWIDTH 600 0
DWIDTH 20 0
BBX 15 19 5 0
BITMAP
0380
0380
0380
0380
0380
0380
FFFE
FFFE
FFFE
0380
0380
0380
0380
0380
0380
0000
FFFE
FFFE
FFFE
ENDCHAR
STARTCHAR twosuperior
ENCODING 178
SWIDTH 402 0
DWIDTH 13 0
BBX 13 14 2 9
BITMAP
03E0
0E70
1E78
1C78
08F8
00F8
01F0
03C0
0780
0E00
3810
7FF0
7FE0
FFE0
ENDCHAR
STARTCHAR threesuperior
ENCODING 179
SWIDTH 402 0
DWIDTH 13 0
BBX 12 14 3 9
BITMAP
0780
3CE0
38F0
38F0
00F0
01E0
1F00
01C0
01C0
41E0
E1E0
F1E0
F3C0
1E00
ENDCHAR
STARTCHAR acute
ENCODING 180
SWIDTH 400 0
DWIDTH 13 0
BBX 9 8 7 17
BITMAP
0100
0780
0F80
1F00
3E00
7800
E000
8000
ENDCHAR
STARTCHAR mu
ENCODING 181
SWIDTH 634 0
DWIDTH 21 0
BBX 21 25 1 -8
BITMAP
01C0F0
1FC1F0
07C1F0
07C1E0
0783E0
0783E0
0F83E0
0F87C0
0F07C0
0F0FC0
1F1FC0
1F1788
1E2798
1E4FB0
3FCFE0
3F8FC0
3C0380
300000
700000
700000
700000
700000
F00000
F00000
C00000
ENDCHAR
STARTCHAR paragraph
ENCODING 182
SWIDTH 580 0
DWIDTH 19 0
BBX 18 27 5 -3
BITMAP
01CFC0
07CE00
1F8E00
3F9C00
7F9C00
7F9C00
7F9C00
FF1800
FF3800
FF3800
FF3800
FE3800
7E7000
3E7000
1E7000
027000
006000
00E000
00E000
00E000
00E000
01C000
01C000
01C000
01C000
038000
1F8000
ENDCHAR
STARTCHAR periodcentered
ENCODING 183
SWIDTH 280 0
DWIDTH 9 0
BBX 6 6 3 5
BITMAP
30
7C
FC
FC
F8
30
ENDCHAR
STARTCHAR cedilla
ENCODING 184
SWIDTH 400 0
DWIDTH 13 0
BBX 6 8 5 -8
BITMAP
18
30
78
7C
1C
1C
38
F0
ENDCHAR
STARTCHAR onesuperior
ENCODING 185
SWIDTH 402 0
DWIDTH 13 0
BBX 9 14 4 9
BITMAP
0380
1F80
0700
0700
0700
0F00
0F00
0E00
0E00
0E00
1E00
1E00
1E00
FF00
ENDCHAR
STARTCHAR ordmasculine
ENCODING 186
SWIDTH 412 0
DWIDTH 14 0
BBX 12 11 4 9
BITMAP
0780
1CE0
78E0
78F0
78F0
F0F0
F1F0
F1E0
F1E0
73C0
1F00
ENDCHAR
STARTCHAR guillemotright
ENCODING 187
SWIDTH 560 0
DWIDTH 19 0
BBX 15 14 3 1
BITMAP
3040
1060
1830
1C38
0E38
0E1C
0F1E
0F1C
1E3C
1C70
3860
70C0
4180
8100
ENDCHAR
STARTCHAR onequarter
ENCODING 188
SWIDTH 940 0
DWIDTH 31 0
BBX 25 25 4 -1
BITMAP
00000400
07800600
1F800E00
07801C00
07803800
07003000
0F007000
0F00E000
0F00C000
0F018000
0E038000
1E070380
1E060780
1E0C0F80
FF9C1F80
00383700
00306F00
0061CF00
00E38F00
00C7FF80
01801E00
03001E00
07001E00
06007F00
04000000
ENDCHAR
STARTCHAR onehalf
ENCODING 189
SWIDTH 940 0
DWIDTH 31 0
BBX 27 25 4 -1
BITMAP
00000800
07800C00
1F801C00
07803800
07803000
07007000
0F00E000
0F01C000
0F018000
0F038000
0E070000
1E060F00
1E0C39C0
1E1C71E0
FF9871E0
003003E0
006007C0
00E00F80
00C01E00
01803800
0380E040
0301FFC0
0601FF80
0C03FF80
04000000
ENDCHAR
STARTCHAR threequarters
ENCODING 190
SWIDTH 940 0
DWIDTH 31 0
BBX 25 25 5 -1
BITMAP
00000200
0F000700
79C00E00
71E00C00
71E01C00
01E03800
03C03000
3F007000
01C0E000
01C1C000
41E18000
E1E38380
F1E70780
F3C60F80
1E0C1F80
001C3700
00186F00
0031CF00
00738F00
00E7FF80
00C01E00
01801E00
03801E00
03007F00
01000000
ENDCHAR
STARTCHAR questiondown
ENCODING 191
SWIDTH 454 0
DWIDTH 15 0
BBX 13 24 1 -7
BITMAP
0060
00F8
01F8
01F8
00F0
0060
0000
0000
01E0
07F0
00F8
00F8
00F0
01E0
07C0
1F00
3E00
7C00
FC70
F8F8
F8F8
79F0
3FE0
0F80
ENDCHAR
STARTCHAR Agrave
ENCODING 192
SWIDTH 634 0
DWIDTH 21 0
BBX 23 31 -1 0
BITMAP
001800
001E00
003F00
000FC0
0003E0
000070
000000
0003E0
0003E0
0007E0
0007E0
000FE0
000FE0
001BE0
001BE0
0033E0
0031E0
0061F0
0061F0
00C1F0
00C1F0
01FFF0
03FFF0
0301F0
0701F0
0601F0
0E01F0
0C01F0
1C00F8
3C01F8
FF07FE
ENDCHAR
STARTCHAR Aacute
ENCODING 193
SWIDTH 634 0
DWIDTH 21 0
BBX 23 31 -1 0
BITMAP
00000C
00003C
00007E
0001F8
0003E0
000700
000000
0003E0
0003E0
0007E0
0007E0
000FE0
000FE0
001BE0
001BE0
0033E0
0031E0
0061F0
0061F0
00C1F0
00C1F0
01FFF0
03FFF0
0301F0
0701F0
0601F0
0E01F0
0C01F0
1C00F8
3C01F8
FF07FE
ENDCHAR
STARTCHAR Acircumflex
ENCODING 194
SWIDTH 634 0
DWIDTH 21 0
BBX 23 30 -1 0
BITMAP
000040
0001F0
0003F8
000FFC
003C0E
000000
0003E0
0003E0
0007E0
0007E0
000FE0
000FE0
001BE0
001BE0
0033E0
0031E0
0061F0
0061F0
00C1F0
00C1F0
01FFF0
03FFF0
0301F0
0701F0
0601F0
0E01F0
0C01F0
1C00F8
3C01F8
FF07FE
ENDCHAR
STARTCHAR Atilde
ENCODING 195
SWIDTH 634 0
DWIDTH 21 0
BBX 24 29 -1 0
BITMAP
000781
001FC3
001FFE
00307E
000018
0001E0
0003E0
0007E0
0007E0
000FE0
000FE0
001BE0
001BE0
0031F0
0031F0
0061F0
0061F0
00C1F0
00C1F0
01FFF0
01FFF0
0301F0
0701F0
0601F8
0E00F8
0C00F8
1C00F8
3C00F8
FF07FE
ENDCHAR
STARTCHAR Adieresis
ENCODING 196
SWIDTH 634 0
DWIDTH 21 0
BBX 23 29 0 0
BITMAP
00381C
007C3E
007C3E
007C3E
00381C
0003C0
0003C0
0007C0
000FC0
000FC0
001FC0
0017E0
0037E0
0027E0
0067E0
0047E0
00C3E0
0083E0
0183E0
01FFE0
03FFE0
0201E0
0601F0
0E01F0
0C01F0
1C01F0
1801F0
3801F0
FE07FC
ENDCHAR
STARTCHAR Aring
ENCODING 197
SWIDTH 634 0
DWIDTH 21 0
BBX 22 29 0 0
BITMAP
0003C0
000620
000430
000C30
000C60
0007C0
0007C0
0007C0
000FC0
000FC0
001FC0
0037C0
0037E0
0067E0
0063E0
00C3E0
00C3E0
0183E0
0183E0
03FFE0
03FFE0
0701E0
0601F0
0E01F0
0C01F0
1C01F0
1801F0
3801F0
FE07FC
ENDCHAR
STARTCHAR AE
ENCODING 198
SWIDTH 890 0
DWIDTH 30 0
BBX 35 24 -2 0
BITMAP
0003FFFFE0
0001FFFFE0
00006F81E0
0000DF00C0
0001DF00C0
00019F00C0
00031F00C0
00061F0000
00063E0600
000C3E0600
00183E0C00
003FFFFC00
003FFFFC00
00707C0C00
00E07C0C00
00C07C0800
01C07C0000
0380F80180
0700F80300
0700F80700
0E00F80F00
1C00F81E00
3C01FFFE00
FF8FFFFE00
ENDCHAR
STARTCHAR Ccedilla
ENCODING 199
SWIDTH 672 0
DWIDTH 22 0
BBX 21 32 4 -8
BITMAP
001FC0
00FFF0
03F078
07C038
0F8038
1F8010
3F0010
3E0010
7E0000
7E0000
7C0000
7C0000
FC0000
FC0000
FC0000
FC0000
FC0020
7C0060
7C00C0
7E01C0
3E01C0
1F07C0
07FF80
00FC00
00C000
00C000
00F000
01F800
007800
007800
00F000
03C000
ENDCHAR
STARTCHAR Egrave
ENCODING 200
SWIDTH 622 0
DWIDTH 21 0
BBX 23 31 1 0
BITMAP
003000
007C00
007E00
003F00
0007C0
0000E0
000000
07FFFE
01FFFE
01F81E
01F00C
01F00C
01F00C
01F00C
03F000
03E060
03E060
03E0C0
03FFC0
07FFC0
07C0C0
07C0C0
07C080
07C000
0F8018
0F8030
0F8030
0F8070
1F80E0
1FFFE0
FFFFE0
ENDCHAR
STARTCHAR Eacute
ENCODING 201
SWIDTH 622 0
DWIDTH 21 0
BBX 23 31 1 0
BITMAP
000010
000078
0000FC
0003F8
0007C0
000E00
000000
07FFFE
01FFFE
01F81E
01F00C
01F00C
01F00C
01F00C
03F000
03E060
03E060
03E0C0
03FFC0
07FFC0
07C0C0
07C0C0
07C080
07C000
0F8018
0F8030
0F8030
0F8070
1F80E0
1FFFE0
FFFFE0
ENDCHAR
STARTCHAR Ecircumflex
ENCODING 202
SWIDTH 622 0
DWIDTH 21 0
BBX 23 30 1 0
BITMAP
000080
0003C0
000FE0
001FF0
00783C
000000
07FFFE
01FFFE
01F81E
01F00C
01F00C
01F00C
01F00C
03F000
03E060
03E060
03E0C0
03FFC0
07FFC0
07C0C0
07C0C0
07C080
07C000
0F8018
0F8030
0F8030
0F8070
1F80E0
1FFFE0
FFFFE0
ENDCHAR
STARTCHAR Edieresis
ENCODING 203
SWIDTH 622 0
DWIDTH 21 0
BBX 23 29 1 0
BITMAP
007038
00F87C
00F87C
00F87C
007038
07FFFE
01FFFE
01F01E
01F00C
01F00C
01F00C
03E004
03E000
03E020
03E060
03E0E0
07FFC0
07FFC0
07C0C0
07C0C0
0FC0C0
0F8000
0F8018
0F8010
0F8030
1F8070
1F80F0
1FFFE0
FFFFE0
ENDCHAR
STARTCHAR Igrave
ENCODING 204
SWIDTH 386 0
DWIDTH 13 0
BBX 15 31 2 0
BITMAP
0200
0780
07C0
03F0
00F8
001C
0000
07FE
01F0
01F0
01F0
01E0
03E0
03E0
03E0
03E0
03C0
07C0
07C0
07C0
07C0
0780
0F80
0F80
0F80
0F80
0F00
1F00
1F00
1F00
FFC0
ENDCHAR
STARTCHAR Iacute
ENCODING 205
SWIDTH 386 0
DWIDTH 13 0
BBX 16 31 2 0
BITMAP
0006
001F
003F
007E
01F0
0180
0000
07FE
01F0
01F0
01F0
03E0
03E0
03E0
03E0
03E0
07C0
07C0
07C0
07C0
07C0
0F80
0F80
0F80
0F80
0F80
0F00
1F00
1F00
1F00
FFC0
ENDCHAR
STARTCHAR Icircumflex
ENCODING 206
SWIDTH 386 0
DWIDTH 13 0
BBX 17 30 1 0
BITMAP
001000
007800
00FE00
03FF00
0F0380
000000
07FF00
01F800
01F000
01F000
01F000
01F000
03F000
03E000
03E000
03E000
03E000
07E000
07C000
07C000
07C000
07C000
0F8000
0F8000
0F8000
0F8000
0F8000
1F8000
1F8000
FFE000
ENDCHAR
STARTCHAR Idieresis
ENCODING 207
SWIDTH 386 0
DWIDTH 13 0
BBX 18 29 1 0
BITMAP
070380
0F87C0
0F87C0
0F87C0
070380
07FF00
01F800
01F800
01F800
01F000
03F000
03F000
03F000
03E000
03E000
07E000
07E000
07C000
07C000
07C000
0FC000
0F8000
0F8000
0F8000
0F8000
1F0000
1F0000
1F0000
FFE000
ENDCHAR
STARTCHAR Eth
ENCODING 208
SWIDTH 780 0
DWIDTH 26 0
BBX 25 24 2 0
BITMAP
07FF8000
01FFF000
01F03C00
01F01E00
01F01F00
03F00F00
03E00F00
03E00F80
03E00F80
03E00F80
07E00F80
3FFE0F80
3FFE0F80
07C01F00
07C01F00
0F801F00
0F803E00
0F803E00
0F807C00
0F80FC00
1F01F800
1F83E000
1FFF8000
FFFC0000
ENDCHAR
STARTCHAR Ntilde
ENCODING 209
SWIDTH 741 0
DWIDTH 25 0
BBX 28 29 1 0
BITMAP
00070100
000FC300
001FFE00
00307E00
00003C00
07F80FF0
01F80380
01F80380
01FC0380
01FC0300
01FE0300
033E0300
033E0300
031F0600
031F0600
031F8600
060F8600
060F8600
0607CC00
0607CC00
0607EC00
0C03EC00
0C03EC00
0C01F800
0C01F800
1C01F800
1C00F800
1C00F800
FF007000
ENDCHAR
STARTCHAR Ograve
ENCODING 210
SWIDTH 761 0
DWIDTH 25 0
BBX 23 30 4 0
BITMAP
01C000
01F000
01F800
007C00
000F00
000100
001E00
00FFC0
03E0F0
07C0F8
0FC078
1F807C
3F007C
3F007C
7E007E
7E007E
7E007E
FE007E
FC00FE
FC00FC
FC00FC
FC00FC
FC01F8
7C01F8
7C03F0
3C03E0
3E07C0
1F0F80
07FF00
00F800
ENDCHAR
STARTCHAR Oacute
ENCODING 211
SWIDTH 761 0
DWIDTH 25 0
BBX 23 30 4 0
BITMAP
0000E0
0001F0
0007E0
000F80
003E00
001000
001E00
00FFC0
03E0F0
07C0F8
0FC078
1F807C
3F007C
3F007C
7E007E
7E007E
7E007E
FE007E
FC00FE
FC00FC
FC00FC
FC00FC
FC01F8
7C01F8
7C03F0
3C03E0
3E07C0
1F0F80
07FF00
00F800
ENDCHAR
STARTCHAR Ocircumflex
ENCODING 212
SWIDTH 761 0
DWIDTH 25 0
BBX 23 30 4 0
BITMAP
000200
000780
001FC0
003FE0
0070F0
008010
001E00
00FFC0
03E0F0
07C0F8
0FC078
1F807C
3F007C
3F007C
7E007E
7E007E
7E007E
FE007E
FC00FE
FC00FC
FC00FC
FC00FC
FC01F8
7C01F8
7C03F0
3C03E0
3E07C0
1F0F80
07FF00
00F800
ENDCHAR
STARTCHAR Otilde
ENCODING 213
SWIDTH 761 0
DWIDTH 25 0
BBX 23 29 4 0
BITMAP
003808
007E18
00FFF0
0087F0
0181C0
001E00
00FFC0
03E0F0
07C0F8
0FC078
1F807C
3F007C
3F007C
7E007E
7E007E
7E007E
FE007E
FC00FE
FC00FC
FC00FC
FC00FC
FC01F8
7C01F8
7C03F0
3C03E0
3E07C0
1F0F80
07FF00
00F800
ENDCHAR
STARTCHAR Odieresis
ENCODING 214
SWIDTH 761 0
DWIDTH 25 0
BBX 23 29 4 0
BITMAP
00E070
01F0F8
01F0F8
01F0F8
00E070
001E00
00FFC0
03E0F0
07C0F8
0FC078
1F807C
3F007C
3F007C
7E007E
7E007E
7E007E
FE007E
FC00FE
FC00FC
FC00FC
FC00FC
FC01F8
7C01F8
7C03F0
3C03E0
3E07C0
1F0F80
07FF00
00F800
ENDCHAR
STARTCHAR multiply
ENCODING 215
SWIDTH 600 0
DWIDTH 20 0
BBX 15 15 5 1
BITMAP
4008
600C
F01E
783C
3C78
1EF0
0FE0
07C0
07C0
0EE0
1C70
3838
F01E
600C
4008
ENDCHAR
STARTCHAR Oslash
ENCODING 216
SWIDTH 761 0
DWIDTH 25 0
BBX 23 26 4 -1
BITMAP
000008
001E1C
01FFF8
07E0F0
0FC078
1F807C
1F80FC
3F01BC
3E033E
7E073E
7C0E3E
7C0C3E
FC183E
F8307E
F8607C
F8C07C
F9C0FC
F980F8
7B01F8
7E01F8
7C03F0
3C07E0
1E0FC0
3FFF00
61F800
200000
ENDCHAR
STARTCHAR Ugrave
ENCODING 217
SWIDTH 776 0
DWIDTH 26 0
BBX 25 31 5 0
BITMAP
03000000
07C00000
07E00000
03F00000
007C0000
000E0000
00000000
7FE3FF80
1F007C00
1F007C00
1F00FC00
1F00F800
3E00F800
3E00F800
3E00F800
3E01F000
3E01F000
7C01F000
7C01F000
7C03F000
7C03E000
F803E000
F803E000
F807C000
F807C000
F807C000
F80F8000
780F0000
7C1F0000
1FFC0000
03E00000
ENDCHAR
STARTCHAR Uacute
ENCODING 218
SWIDTH 776 0
DWIDTH 26 0
BBX 25 31 5 0
BITMAP
00001800
00007C00
0000FC00
0003F800
0007C000
000E0000
00000000
7FE3FF80
1F007C00
1F007C00
1F00FC00
1F00F800
3E00F800
3E00F800
3E00F800
3E01F000
3E01F000
7C01F000
7C01F000
7C03F000
7C03E000
F803E000
F803E000
F807C000
F807C000
F807C000
F80F8000
780F0000
7C1F0000
1FFC0000
03E00000
ENDCHAR
STARTCHAR Ucircumflex
ENCODING 219
SWIDTH 776 0
DWIDTH 26 0
BBX 25 30 5 0
BITMAP
00060000
000F0000
003F8000
007FC000
01E0E000
00000000
7FE3FF80
1F007C00
1F007C00
1F00FC00
1F00F800
3E00F800
3E00F800
3E00F800
3E01F000
3E01F000
7C01F000
7C01F000
7C03F000
7C03E000
F803E000
F803E000
F807C000
F807C000
F807C000
F80F8000
780F0000
7C1F0000
1FFC0000
03E00000
ENDCHAR
STARTCHAR Udieresis
ENCODING 220
SWIDTH 776 0
DWIDTH 26 0
BBX 25 29 5 0
BITMAP
00E0E000
01F1F000
01F1F000
01F1F000
00E0E000
7FF1FF80
1F807C00
1F807C00
1F007C00
1F00F800
3F00F800
3F00F800
3E00F800
3E00F000
3E01F000
7E01F000
7C01F000
7C01F000
7C01E000
FC03E000
F803E000
F803C000
F807C000
F807C000
F8078000
7C0F8000
7E1F0000
1FFC0000
03F00000
ENDCHAR
STARTCHAR Yacute
ENCODING 221
SWIDTH 622 0
DWIDTH 21 0
BBX 21 31 5 0
BITMAP
000030
0000F0
0001F8
0007E0
000F80
001800
000000
FFCFF8
3E01E0
3E01C0
3E0380
1F0700
1F0600
1F0E00
1F0C00
0F1800
0F3800
0FB000
0FE000
07E000
07C000
07C000
078000
078000
078000
0F8000
0F8000
0F0000
0F0000
1F0000
FFE000
ENDCHAR
STARTCHAR Thorn
ENCODING 222
SWIDTH 629 0
DWIDTH 21 0
BBX 21 24 2 0
BITMAP
0FFE00
03F000
01F000
03F000
03E000
03FF00
03FFE0
03E1F0
07E1F0
07C0F8
07C0F8
07C0F8
07C0F8
0F81F0
0F83F0
0F87E0
0FFF80
0FFE00
1F0000
1F0000
1F0000
1F0000
3F0000
FFE000
ENDCHAR
STARTCHAR germandbls
ENCODING 223
SWIDTH 628 0
DWIDTH 21 0
BBX 27 33 -3 -8
BITMAP
00003E00
0001FF80
0007C3C0
000F81E0
001F01E0
001F01E0
003F03E0
003E03C0
01FE0F80
03FE3C00
007C7800
007C7800
007CF800
007CF800
0078FC00
00F87E00
00F87E00
00F83F00
00F01F00
00F01F00
01F00F00
01F38E00
01E78E00
01E3FC00
01E0F000
03E00000
03C00000
03C00000
43C00000
E3800000
F7000000
7E000000
18000000
ENDCHAR
STARTCHAR agrave
ENCODING 224
SWIDTH 596 0
DWIDTH 20 0
BBX 19 25 2 0
BITMAP
030000
03C000
03E000
01F000
007800
003C00
000E00
000000
0073C0
03FFC0
07C7C0
0F87C0
1F0780
3E0F80
3E0F80
3C1F00
7C1F00
7C3F00
F83F00
F85E20
F89E60
F9BEC0
FF3F80
7E3F00
301C00
ENDCHAR
STARTCHAR aacute
ENCODING 225
SWIDTH 596 0
DWIDTH 20 0
BBX 19 25 2 0
BITMAP
0000C0
0003C0
0007C0
000F80
001E00
003800
007000
000000
0073C0
03FFC0
07C7C0
0F87C0
1F0780
3E0F80
3E0F80
3C1F00
7C1F00
7C3F00
F83F00
F85E20
F89E60
F9BEC0
FF3F80
7E3F00
301C00
ENDCHAR
STARTCHAR acircumflex
ENCODING 226
SWIDTH 596 0
DWIDTH 20 0
BBX 19 25 2 0
BITMAP
000800
001C00
003E00
007F00
00E780
018380
0700C0
020080
0073C0
03FFC0
07C7C0
0F87C0
1F0780
3E0F80
3E0F80
3C1F00
7C1F00
7C3F00
F83F00
F85E20
F89E60
F9BEC0
FF3F80
7E3F00
301C00
ENDCHAR
STARTCHAR atilde
ENCODING 227
SWIDTH 596 0
DWIDTH 20 0
BBX 19 24 2 0
BITMAP
000020
00F840
03FFC0
03FF80
061F00
040000
000000
0073C0
03FFC0
07C7C0
0F87C0
1F0780
3E0F80
3E0F80
3C1F00
7C1F00
7C3F00
F83F00
F85E20
F89E60
F9BEC0
FF3F80
7E3F00
301C00
ENDCHAR
STARTCHAR adieresis
ENCODING 228
SWIDTH 596 0
DWIDTH 20 0
BBX 19 24 2 0
BITMAP
01C1C0
03E3E0
03E3E0
03E3E0
01C1C0
000000
000000
0073C0
03FFC0
07C7C0
0F87C0
1F0780
3E0F80
3E0F80
3C1F00
7C1F00
7C3F00
F83F00
F85E20
F89E60
F9BEC0
FF3F80
7E3F00
301C00
ENDCHAR
STARTCHAR aring
ENCODING 229
SWIDTH 596 0
DWIDTH 20 0
BBX 19 25 2 0
BITMAP
003C00
006200
004300
00C300
00C300
004600
003800
000000
0073C0
03FFC0
07C7C0
0F87C0
1F0780
3E0F80
3E0F80
3C1F00
7C1F00
7C3F00
F83F00
F85E20
F89E60
F9BEC0
FF3F80
7E3F00
301C00
ENDCHAR
STARTCHAR ae
ENCODING 230
SWIDTH 789 0
DWIDTH 26 0
BBX 26 17 2 0
BITMAP
00798C00
01FFBF80
07C7E3C0
0F87C3C0
1F07C3C0
1E0F87C0
3E0F8780
3C0F8F00
7C1F1E00
783FF000
783F8000
F85F0180
F8DF0100
F98F0300
FF0F8E00
7E07F800
3803C000
ENDCHAR
STARTCHAR ccedilla
ENCODING 231
SWIDTH 456 0
DWIDTH 15 0
BBX 16 25 2 -8
BITMAP
0030
03FE
079F
1F0F
3E0E
3C04
7C00
7C00
7800
F800
F800
F804
F80C
F818
7C30
7FE0
1F80
0600
0E00
0F00
0F80
0380
0380
0700
1E00
ENDCHAR
STARTCHAR egrave
ENCODING 232
SWIDTH 476 0
DWIDTH 16 0
BBX 16 25 2 0
BITMAP
0400
0F00
0F80
07C0
01E0
0070
001C
0004
0030
03FE
078F
1F0F
3E0F
3C1F
7C1E
7C7C
79F8
FFC0
FC00
F806
F80C
F808
7C38
3FE0
1F00
ENDCHAR
STARTCHAR eacute
ENCODING 233
SWIDTH 476 0
DWIDTH 16 0
BBX 17 25 2 0
BITMAP
000100
000380
000F80
001F00
003E00
007800
00E000
008000
003000
03FE00
078F00
1F0F00
3E0F00
3C1F00
7C1E00
7C7C00
79F800
FFC000
FC0000
F80600
F80C00
F80800
7C3800
3FE000
1F0000
ENDCHAR
STARTCHAR ecircumflex
ENCODING 234
SWIDTH 476 0
DWIDTH 16 0
BBX 17 25 2 0
BITMAP
001800
003C00
007C00
01FE00
03C600
070300
0C0180
080100
003000
03FE00
078F00
1F0F00
3E0F00
3C1F00
7C1E00
7C7C00
79F800
FFC000
FC0000
F80600
F80C00
F80800
7C3800
3FE000
1F0000
ENDCHAR
STARTCHAR edieresis
ENCODING 235
SWIDTH 476 0
DWIDTH 16 0
BBX 17 24 2 0
BITMAP
070700
0F8F80
0F8F80
0F8F80
070700
000000
000000
003000
03FE00
078F00
1F0F00
3E0F00
3C1F00
7C1E00
7C7C00
79F800
FFC000
FC0000
F80600
F80C00
F80800
7C3800
3FE000
1F0000
ENDCHAR
STARTCHAR igrave
ENCODING 236
SWIDTH 339 0
DWIDTH 11 0
BBX 9 25 3 0
BITMAP
4000
F000
F800
7C00
1E00
0700
0380
0080
0780
7F00
BF00
1F00
1E00
3E00
3E00
3E00
3C00
7C00
7C00
7880
F980
FB00
FE00
FC00
7000
ENDCHAR
STARTCHAR iacute
ENCODING 237
SWIDTH 339 0
DWIDTH 11 0
BBX 11 25 3 0
BITMAP
0040
00E0
01E0
03C0
0780
0E00
3800
1000
0780
7F00
BF00
1F00
1E00
3E00
3E00
3E00
3C00
7C00
7C00
7880
F980
FB00
FE00
FC00
7000
ENDCHAR
STARTCHAR icircumflex
ENCODING 238
SWIDTH 339 0
DWIDTH 11 0
BBX 13 25 2 0
BITMAP
0100
0380
07C0
1FE0
3CE0
7070
C018
0000
03C0
3F80
5F80
0F80
0F00
1F00
1F00
1F00
1E00
3E00
3E00
3C40
7CC0
7D80
7F00
7E00
3800
ENDCHAR
STARTCHAR idieresis
ENCODING 239
SWIDTH 339 0
DWIDTH 11 0
BBX 13 24 3 0
BITMAP
7070
F8F8
F8F8
F8F8
7070
0000
0000
0380
7F80
BF00
1F00
1F00
3E00
3E00
3E00
3C00
7C00
7C00
7840
F880
F900
FF00
FE00
7000
ENDCHAR
STARTCHAR eth
ENCODING 240
SWIDTH 562 0
DWIDTH 19 0
BBX 18 25 2 0
BITMAP
018000
03C0C0
01F780
007E00
00FC00
0FDC00
061E00
000F00
00FF80
07FF80
0FCF80
1F0780
3F07C0
3E07C0
7C07C0
7C0FC0
FC0FC0
F80F80
F80F80
F81F00
F83F00
783E00
787C00
3FF800
07C000
ENDCHAR
STARTCHAR ntilde
ENCODING 241
SWIDTH 635 0
DWIDTH 21 0
BBX 20 24 2 0
BITMAP
000020
00F860
01FFC0
03FFC0
020F80
020000
000000
07C1C0
7F87E0
0F9FE0
0F93E0
0F23E0
1F43C0
1F87C0
1E87C0
1F0780
3F0F80
3E0F80
3E0F10
3E1F30
7C1F60
7C1FC0
7C1F80
F80E00
ENDCHAR
STARTCHAR ograve
ENCODING 242
SWIDTH 562 0
DWIDTH 19 0
BBX 18 25 2 0
BITMAP
020000
078000
07C000
03E000
01F000
007800
001C00
000400
00F800
07FF00
0FCF80
1F0780
3F07C0
3E07C0
7C07C0
7C0FC0
FC0FC0
F80F80
F80F80
F81F00
F83F00
783E00
787C00
3FF800
07C000
ENDCHAR
STARTCHAR oacute
ENCODING 243
SWIDTH 562 0
DWIDTH 19 0
BBX 18 25 2 0
BITMAP
000080
0003C0
0007C0
000F80
001E00
003C00
00F000
004000
00F800
07FF00
0FCF80
1F0780
3F07C0
3E07C0
7C07C0
7C0FC0
FC0FC0
F80F80
F80F80
F81F00
F83F00
783E00
787C00
3FF800
07C000
ENDCHAR
STARTCHAR ocircumflex
ENCODING 244
SWIDTH 562 0
DWIDTH 19 0
BBX 18 25 2 0
BITMAP
001800
003C00
007C00
00FE00
03C700
070300
0E0180
080080
00F800
07FF00
0FCF80
1F0780
3F07C0
3E07C0
7C07C0
7C0FC0
FC0FC0
F80F80
F80F80
F81F00
F83F00
783E00
787C00
3FF800
07C000
ENDCHAR
STARTCHAR otilde
ENCODING 245
SWIDTH 562 0
DWIDTH 19 0
BBX 19 24 2 0
BITMAP
000020
00F840
03FFC0
03FF80
021F00
040000
000000
00F800
07FF00
0FCF80
1F0780
3F07C0
3E07C0
7C07C0
7C0FC0
FC0FC0
F80F80
F80F80
F81F00
F83F00
783E00
787C00
3FF800
07C000
ENDCHAR
STARTCHAR odieresis
ENCODING 246
SWIDTH 562 0
DWIDTH 19 0
BBX 19 24 2 0
BITMAP
01C1C0
03E3E0
03E3E0
03E3E0
01C1C0
000000
000000
00F800
07FF00
0FCF80
1F0780
3F07C0
3E07C0
7C07C0
7C0FC0
FC0FC0
F80F80
F80F80
F81F00
F83F00
783E00
787C00
3FF800
07C000
ENDCHAR
STARTCHAR divide
ENCODING 247
SWIDTH 600 0
DWIDTH 20 0
BBX 17 17 3 0
BITMAP
008000
01C000
03E000
01C000
008000
000000
000000
FFFF80
FFFF80
FFFF80
000000
000000
008000
01C000
03E000
01C000
008000
ENDCHAR
STARTCHAR oslash
ENCODING 248
SWIDTH 562 0
DWIDTH 19 0
BBX 18 21 2 -2
BITMAP
000100
000300
00F300
07FE00
0F8700
1F0F80
3E1F80
3E37C0
7C27C0
7C6FC0
7CCF80
F88F80
F98F80
FB1F00
FE1F00
7C3E00
7C7C00
3FF800
1FC000
300000
200000
ENDCHAR
STARTCHAR ugrave
ENCODING 249
SWIDTH 634 0
DWIDTH 21 0
BBX 19 25 3 0
BITMAP
040000
0E0000
0F0000
078000
03C000
00E000
003800
001000
0703C0
FF07C0
3F07C0
1E0780
3E0F80
3E0F80
3E0F80
3C1F00
7C1F00
7C3F00
7C7F00
785E20
F89E60
F93EC0
FF3F80
FC3F00
700C00
ENDCHAR
STARTCHAR uacute
ENCODING 250
SWIDTH 634 0
DWIDTH 21 0
BBX 19 25 3 0
BITMAP
000080
0001C0
0003E0
0007C0
000F00
001C00
007000
002000
0703C0
FF07C0
3F07C0
1E0780
3E0F80
3E0F80
3E0F80
3C1F00
7C1F00
7C3F00
7C7F00
785E20
F89E60
F93EC0
FF3F80
FC3F00
700C00
ENDCHAR
STARTCHAR ucircumflex
ENCODING 251
SWIDTH 634 0
DWIDTH 21 0
BBX 19 25 3 0
BITMAP
001000
007800
00FC00
01FE00
038E00
070700
0C0380
000000
0703C0
FF07C0
3F07C0
1E0780
3E0F80
3E0F80
3E0F80
3C1F00
7C1F00
7C3F00
7C7F00
785E20
F89E60
F93EC0
FF3F80
FC3F00
700C00
ENDCHAR
STARTCHAR udieresis
ENCODING 252
SWIDTH 634 0
DWIDTH 21 0
BBX 19 24 3 0
BITMAP
038380
07C7C0
07C7C0
07C7C0
038380
000000
000000
0703C0
FF07C0
3F07C0
1E0780
3E0F80
3E0F80
3E0F80
3C1F00
7C1F00
7C3F00
7C7F00
785E20
F89E60
F93EC0
FF3F80
FC3F00
700C00
ENDCHAR
STARTCHAR yacute
ENCODING 253
SWIDTH 489 0
DWIDTH 16 0
BBX 19 33 0 -8
BITMAP
000040
0001E0
0003E0
0007C0
000F00
001E00
003800
002000
00C040
0FC1E0
3FC1E0
07C1C0
07C1C0
03C1C0
03C380
03C380
03C300
03E300
03E600
03E400
03EC00
01E800
01F800
01F000
01F000
01E000
01E000
01C000
618000
F10000
FB0000
FE0000
780000
ENDCHAR
STARTCHAR thorn
ENCODING 254
SWIDTH 600 0
DWIDTH 20 0
BBX 20 32 1 -8
BITMAP
007000
0FE000
1FE000
03E000
03E000
03C000
07C000
07C180
0787E0
078FE0
0F99F0
0FA1F0
0F61F0
0F41F0
0F83E0
1F83E0
1F03E0
1F03C0
1F07C0
3E0780
3E0F80
3E1F00
3FFC00
3CF000
7C0000
7C0000
7C0000
780000
780000
F80000
F80000
F00000
ENDCHAR
STARTCHAR ydieresis
ENCODING 255
SWIDTH 489 0
DWIDTH 16 0
BBX 19 32 0 -8
BITMAP
01C1C0
03E3E0
03E3E0
03E3E0
01C1C0
000000
000000
00C040
0FC1E0
3FC1E0
07C1C0
07C1C0
03C1C0
03C380
03C380
03C300
03E300
03E600
03E400
03EC00
01E800
01F800
01F000
01F000
01E000
01E000
01C000
618000
F10000
FB0000
FE0000
780000
ENDCHAR
STARTCHAR Amacron
ENCODING 256
SWIDTH 634 0
DWIDTH 21 0
BBX 23 27 -1 0
BITMAP
007FF0
007FF0
000000
0003E0
0003E0
0007E0
0007E0
000FE0
000FE0
001BE0
001BE0
0033E0
0031E0
0061F0
0061F0
00C1F0
00C1F0
01FFF0
03FFF0
0301F0
0701F0
0601F0
0E01F0
0C01F0
1C00F8
3C01F8
FF07FE
ENDCHAR
STARTCHAR amacron
ENCODING 257
SWIDTH 596 0
DWIDTH 20 0
BBX 19 20 2 0
BITMAP
07FF00
07FF00
000000
0073C0
03FFC0
07C7C0
0F87C0
1F0780
3E0F80
3E0F80
3C1F00
7C1F00
7C3F00
F83F00
F85E20
F89E60
F9BEC0
FF3F80
7E3F00
301C00
ENDCHAR
STARTCHAR Abreve
ENCODING 258
SWIDTH 634 0
DWIDTH 21 0
BBX 23 30 -1 0
BITMAP
006030
007070
007FE0
003FC0
001F00
000000
0003E0
0003E0
0007E0
0007E0
000FE0
000FE0
001BE0
001BE0
0033E0
0031E0
0061F0
0061F0
00C1F0
00C1F0
01FFF0
03FFF0
0301F0
0701F0
0601F0
0E01F0
0C01F0
1C00F8
3C01F8
FF07FE
ENDCHAR
STARTCHAR abreve
ENCODING 259
SWIDTH 596 0
DWIDTH 20 0
BBX 19 23 2 0
BITMAP
030180
038380
03FF00
01FE00
00F800
000000
0073C0
03FFC0
07C7C0
0F87C0
1F0780
3E0F80
3E0F80
3C1F00
7C1F00
7C3F00
F83F00
F85E20
F89E60
F9BEC0
FF3F80
7E3F00
301C00
ENDCHAR
STARTCHAR Aogonek
ENCODING 260
SWIDTH 634 0
DWIDTH 21 0
BBX 23 32 -1 -8
BITMAP
0003E0
0003E0
0007E0
0007E0
000FE0
000FE0
001BE0
001BE0
0033E0
0031E0
0061F0
0061F0
00C1F0
00C1F0
01FFF0
03FFF0
0301F0
0701F0
0601F0
0E01F0
0C01F0
1C00F8
3C01F8
FF07FE
000C00
001800
003800
003000
007000
007000
007F00
003C00
ENDCHAR
STARTCHAR aogonek
ENCODING 261
SWIDTH 596 0
DWIDTH 20 0
BBX 19 25 2 -8
BITMAP
0073C0
03FFC0
07C7C0
0F87C0
1F0780
3E0F80
3E0F80
3C1F00
7C1F00
7C3F00
F83F00
F85E20
F89E60
F9BEC0
FF3F80
7E3F00
303C00
00C000
018000
038000
030000
070000
070000
07F000
03C000
ENDCHAR
STARTCHAR Cacute
ENCODING 262
SWIDTH 672 0
DWIDTH 22 0
BBX 21 33 4 0
BITMAP
000100
000780
000F80
001F00
003E00
007800
00E000
008000
000000
001FC0
00FFF0
03F078
07C038
0F8038
1F8010
3F0010
3E0010
7E0000
7E0000
7C0000
7C0000
FC0000
FC0000
FC0000
FC0000
FC0020
7C0060
7C00C0
3E00C0
3E01C0
1F07C0
07FF80
007C00
ENDCHAR
STARTCHAR cacute
ENCODING 263
SWIDTH 456 0
DWIDTH 15 0
BBX 16 26 2 0
BITMAP
0004
001E
003E
007C
00F8
01E0
0380
0200
0000
0030
03FE
079F
1F0F
3E0E
3C04
7C00
7C00
7800
F800
F800
F804
F80C
F818
7C30
7FE0
1E00
ENDCHAR
STARTCHAR Ccircumflex
ENCODING 264
SWIDTH 672 0
DWIDTH 22 0
BBX 21 33 4 0
BITMAP
000800
001C00
003E00
007F00
00E700
018380
0701C0
020080
000000
001FC0
00FFF0
03F078
07C038
0F8038
1F8010
3F0010
3E0010
7E0000
7E0000
7C0000
7C0000
FC0000
FC0000
FC0000
FC0000
FC0020
7C0060
7C00C0
3E00C0
3E01C0
1F07C0
07FF80
007C00
ENDCHAR
STARTCHAR ccircumflex
ENCODING 265
SWIDTH 456 0
DWIDTH 15 0
BBX 16 26 2 0
BITMAP
0040
00E0
01F0
03F8
0738
0C1C
380E
1004
0000
0030
03FE
079F
1F0F
3E0E
3C04
7C00
7C00
7800
F800
F800
F804
F80C
F818
7C30
7FE0
1E00
ENDCHAR
STARTCHAR Cdotaccent
ENCODING 266
SWIDTH 672 0
DWIDTH 22 0
BBX 21 30 4 0
BITMAP
003800
007C00
007C00
007C00
003800
000000
001FC0
00FFF0
03F078
07C038
0F8038
1F8010
3F0010
3E0010
7E0000
7E0000
7C0000
7C0000
FC0000
FC0000
FC0000
FC0000
FC0020
7C0060
7C00C0
3E00C0
3E01C0
1F07C0
07FF80
007C00
ENDCHAR
STARTCHAR cdotaccent
ENCODING 267
SWIDTH 456 0
DWIDTH 15 0
BBX 16 23 2 0
BITMAP
00E0
01F0
01F0
01F0
00E0
0000
0030
03FE
079F
1F0F
3E0E
3C04
7C00
7C00
7800
F800
F800
F804
F80C
F818
7C30
7FE0
1E00
ENDCHAR
STARTCHAR Ccaron
ENCODING 268
SWIDTH 672 0
DWIDTH 22 0
BBX 21 33 4 0
BITMAP
020080
0701C0
038300
01CE00
01FC00
00F800
007000
002000
000000
001FC0
00FFF0
03F078
07C038
0F8038
1F8010
3F0010
3E0010
7E0000
7E0000
7C0000
7C0000
FC0000
FC0000
FC0000
FC0000
FC0020
7C0060
7C00C0
3E00C0
3E01C0
1F07C0
07FF80
007C00
ENDCHAR
STARTCHAR ccaron
ENCODING 269
SWIDTH 456 0
DWIDTH 15 0
BBX 16 26 2 0
BITMAP
0802
1C07
0E0C
0738
07F0
03E0
01C0
0080
0000
0030
03FE
079F
1F0F
3E0E
3C04
7C00
7C00
7800
F800
F800
F804
F80C
F818
7C30
7FE0
1E00
ENDCHAR
STARTCHAR Dcaron
ENCODING 270
SWIDTH 774 0
DWIDTH 26 0
BBX 26 33 1 0
BITMAP
00401000
00E03800
00706000
0039C000
003F8000
001F0000
000E0000
00040000
00000000
07FF8000
01FFF800
01F03E00
01F00F00
01F00F80
03E00780
03E00780
03E007C0
03E007C0
03E007C0
07C007C0
07C007C0
07C00FC0
07C00F80
07C00F80
0F801F80
0F801F00
0F803F00
0F803E00
1F007E00
1F00FC00
1F83F000
1FFFC000
FFFC0000
ENDCHAR
STARTCHAR dcaron
ENCODING 271
SWIDTH 825 0
DWIDTH 27 0
BBX 28 25 2 0
BITMAP
00003800
0007F8C0
0001F1E0
0001F1F0
0001F1F0
0001F1E0
0001E0E0
0001E1C0
007BE1C0
03FFE380
07C3C200
0F87C400
1F07C000
3E07C000
3E0F8000
7C0F8000
7C1F8000
781F8000
F83F8000
F82F1000
F84F3000
F89F6000
7F9FC000
7E1F8000
38060000
ENDCHAR
STARTCHAR Dcroat
ENCODING 272
SWIDTH 780 0
DWIDTH 26 0
BBX 25 24 2 0
BITMAP
07FF8000
01FFF000
01F03C00
01F01E00
01F01F00
03F00F00
03E00F00
03E00F80
03E00F80
03E00F80
07E00F80
3FFE0F80
3FFE0F80
07C01F00
07C01F00
0F801F00
0F803E00
0F803E00
0F807C00
0F80FC00
1F01F800
1F83E000
1FFF8000
FFFC0000
ENDCHAR
STARTCHAR dcroat
ENCODING 273
SWIDTH 609 0
DWIDTH 20 0
BBX 24 25 2 0
BITMAP
000038
0007F8
0001F0
0001F0
0001F0
0001F0
0001E0
007FFF
007FFF
03FFE0
07C3C0
0F87C0
1F07C0
3E07C0
3E0F80
7C0F80
7C1F80
781F80
F83F80
F82F10
F84F30
F89F60
7F9FC0
7E1F80
380600
ENDCHAR
STARTCHAR Emacron
ENCODING 274
SWIDTH 622 0
DWIDTH 21 0
BBX 23 27 1 0
BITMAP
00FFE0
00FFE0
000000
07FFFE
01FFFE
01F81E
01F00C
01F00C
01F00C
01F00C
03F000
03E060
03E060
03E0C0
03FFC0
07FFC0
07C0C0
07C0C0
07C080
07C000
0F8018
0F8030
0F8030
0F8070
1F80E0
1FFFE0
FFFFE0
ENDCHAR
STARTCHAR emacron
ENCODING 275
SWIDTH 476 0
DWIDTH 16 0
BBX 16 20 2 0
BITMAP
0FFE
0FFE
0000
0030
03FE
078F
1F0F
3E0F
3C1F
7C1E
7C7C
79F8
FFC0
FC00
F806
F80C
F808
7C38
3FE0
1F00
ENDCHAR
STARTCHAR Ebreve
ENCODING 276
SWIDTH 622 0
DWIDTH 21 0
BBX 23 30 1 0
BITMAP
00C060
00E0E0
00FFC0
007F80
003E00
000000
07FFFE
01FFFE
01F81E
01F00C
01F00C
01F00C
01F00C
03F000
03E060
03E060
03E0C0
03FFC0
07FFC0
07C0C0
07C0C0
07C080
07C000
0F8018
0F8030
0F8030
0F8070
1F80E0
1FFFE0
FFFFE0
ENDCHAR
STARTCHAR ebreve
ENCODING 277
SWIDTH 476 0
DWIDTH 16 0
BBX 16 23 2 0
BITMAP
0C06
0E0E
0FFC
07F8
03E0
0000
0030
03FE
078F
1F0F
3E0F
3C1F
7C1E
7C7C
79F8
FFC0
FC00
F806
F80C
F808
7C38
3FE0
1F00
ENDCHAR
STARTCHAR Edotaccent
ENCODING 278
SWIDTH 622 0
DWIDTH 21 0
BBX 23 30 1 0
BITMAP
000E00
001F00
001F00
001F00
000E00
000000
07FFFE
01FFFE
01F81E
01F00C
01F00C
01F00C
01F00C
03F000
03E060
03E060
03E0C0
03FFC0
07FFC0
07C0C0
07C0C0
07C080
07C000
0F8018
0F8030
0F8030
0F8070
1F80E0
1FFFE0
FFFFE0
ENDCHAR
STARTCHAR edotaccent
ENCODING 279
SWIDTH 476 0
DWIDTH 16 0
BBX 16 23 2 0
BITMAP
00E0
01F0
01F0
01F0
00E0
0000
0030
03FE
078F
1F0F
3E0F
3C1F
7C1E
7C7C
79F8
FFC0
FC00
F806
F80C
F808
7C38
3FE0
1F00
ENDCHAR
STARTCHAR Eogonek
ENCODING 280
SWIDTH 622 0
DWIDTH 21 0
BBX 23 32 1 -8
BITMAP
07FFFE
01FFFE
01F81E
01F00C
01F00C
01F00C
01F00C
03F000
03E060
03E060
03E0C0
03FFC0
07FFC0
07C0C0
07C0C0
07C080
07C000
0F8018
0F8030
0F8030
0F8070
1F80E0
1FFFE0
FFFFE0
003000
006000
00E000
00C000
01C000
01C000
01FC00
00F000
ENDCHAR
STARTCHAR eogonek
ENCODING 281
SWIDTH 476 0
DWIDTH 16 0
BBX 16 25 2 -8
BITMAP
0030
03FE
078F
1F0F
3E0F
3C1F
7C1E
7C7C
79F8
FFC0
FC00
F806
F80C
F808
7C38
3FE0
1F80
0300
0600
0E00
0C00
1C00
1C00
1FC0
0F00
ENDCHAR
STARTCHAR Ecaron
ENCODING 282
SWIDTH 622 0
DWIDTH 21 0
BBX 23 33 1 0
BITMAP
008020
01C070
00E0C0
007380
007F00
003E00
001C00
000800
000000
07FFFE
01FFFE
01F81E
01F00C
01F00C
01F00C
01F00C
03F000
03E060
03E060
03E0C0
03FFC0
07FFC0
07C0C0
07C0C0
07C080
07C000
0F8018
0F8030
0F8030
0F8070
1F80E0
1FFFE0
FFFFE0
ENDCHAR
STARTCHAR ecaron
ENCODING 283
SWIDTH 476 0
DWIDTH 16 0
BBX 16 26 2 0
BITMAP
0802
1C07
0E0C
0738
07F0
03E0
01C0
0080
0000
0030
03FE
078F
1F0F
3E0F
3C1F
7C1E
7C7C
79F8
FFC0
FC00
F806
F80C
F808
7C38
3FE0
1F00
ENDCHAR
STARTCHAR Gcircumflex
ENCODING 284
SWIDTH 726 0
DWIDTH 24 0
BBX 23 33 4 0
BITMAP
000400
000E00
001F00
003F80
007380
00C1C0
0380E0
010040
000000
000FC0
00FFF8
01F07C
07C03C
0FC01C
1F801C
1F001C
3F0008
3E0000
7E0000
7E0000
7C0000
7C0000
FC0000
FC0FFE
FC01F0
FC01F0
7C01F0
7C03F0
7E03E0
3E03E0
1F07E0
07FF80
00FC00
ENDCHAR
STARTCHAR gcircumflex
ENCODING 285
SWIDTH 522 0
DWIDTH 17 0
BBX 21 34 0 -8
BITMAP
000800
001C00
003E00
007F00
00E700
018380
0701C0
020080
000000
003838
01FFF0
03E3F0
07C3C0
0FC3E0
0F83E0
0F87C0
0F87C0
0F8F80
07FF00
03F800
030000
0F0000
1FE000
0FF800
07FE00
07FF00
3C3F80
780F80
F80780
F80780
780700
7E0E00
3FFC00
07F000
ENDCHAR
STARTCHAR Gbreve
ENCODING 286
SWIDTH 726 0
DWIDTH 24 0
BBX 23 30 4 0
BITMAP
0180C0
01C1C0
01FF80
00FF00
007C00
000000
000FC0
00FFF8
01F07C
07C03C
0FC01C
1F801C
1F001C
3F0008
3E0000
7E0000
7E0000
7C0000
7C0000
FC0000
FC0FFE
FC01F0
FC01F0
7C01F0
7C03F0
7E03E0
3E03E0
1F07E0
07FF80
00FC00
ENDCHAR
STARTCHAR gbreve
ENCODING 287
SWIDTH 522 0
DWIDTH 17 0
BBX 21 31 0 -8
BITMAP
0180C0
01C1C0
01FF80
00FF00
007C00
000000
003838
01FFF0
03E3F0
07C3C0
0FC3E0
0F83E0
0F87C0
0F87C0
0F8F80
07FF00
03F800
030000
0F0000
1FE000
0FF800
07FE00
07FF00
3C3F80
780F80
F80780
F80780
780700
7E0E00
3FFC00
07F000
ENDCHAR
STARTCHAR Gdotaccent
ENCODING 288
SWIDTH 726 0
DWIDTH 24 0
BBX 23 30 4 0
BITMAP
001C00
003E00
003E00
003E00
001C00
000000
000FC0
00FFF8
01F07C
07C03C
0FC01C
1F801C
1F001C
3F0008
3E0000
7E0000
7E0000
7C0000
7C0000
FC0000
FC0FFE
FC01F0
FC01F0
7C01F0
7C03F0
7E03E0
3E03E0
1F07E0
07FF80
00FC00
ENDCHAR
STARTCHAR gdotaccent
ENCODING 289
SWIDTH 522 0
DWIDTH 17 0
BBX 21 31 0 -8
BITMAP
003800
007C00
007C00
007C00
003800
000000
003838
01FFF0
03E3F0
07C3C0
0FC3E0
0F83E0
0F87C0
0F87C0
0F8F80
07FF00
03F800
030000
0F0000
1FE000
0FF800
07FE00
07FF00
3C3F80
780F80
F80780
F80780
780700
7E0E00
3FFC00
07F000
ENDCHAR
STARTCHAR Gcommaaccent
ENCODING 290
SWIDTH 726 0
DWIDTH 24 0
BBX 23 37 4 -13
BITMAP
000FC0
00FFF8
01F07C
07C03C
0FC01C
1F801C
1F001C
3F0008
3E0000
7E0000
7E0000
7C0000
7C0000
FC0000
FC0FFE
FC01F0
FC01F0
7C01F0
7C03F0
7E03E0
3E03E0
1F07E0
07FF80
00FC00
000000
001000
003800
007C00
007C00
007C00
003800
003800
007000
007000
00E000
01C000
008000
ENDCHAR
STARTCHAR gcommaaccent
ENCODING 291
SWIDTH 522 0
DWIDTH 17 0
BBX 21 37 0 -8
BITMAP
000100
000200
000E00
001C00
001C00
003800
003C00
007C00
007C00
003C00
001800
000000
003838
01FFF0
03E3F0
07C3C0
0FC3E0
0F83E0
0F87C0
0F87C0
0F8F80
07FF00
03F800
030000
0F0000
1FE000
0FF800
07FE00
07FF00
3C3F80
780F80
F80780
F80780
780700
7E0E00
3FFC00
07F000
ENDCHAR
STARTCHAR Hcircumflex
ENCODING 292
SWIDTH 800 0
DWIDTH 27 0
BBX 29 33 1 0
BITMAP
00008000
0001C000
0003E000
0007F000
000E7000
00183800
00701C00
00200800
00000000
07FE3FF8
01F807C0
01F007C0
01F007C0
01F00F80
03F00F80
03E00F80
03E00F80
03E00F80
03E01F00
07E01F00
07FFFF00
07FFFF00
07C01F00
07C03E00
0FC03E00
0F803E00
0F803E00
0F803E00
0F807C00
1F807C00
1F007C00
1F00FC00
FFE3FF00
ENDCHAR
STARTCHAR hcircumflex
ENCODING 293
SWIDTH 629 0
DWIDTH 21 0
BBX 19 34 3 0
BITMAP
008000
01C000
03E000
07F000
0E7000
183800
701C00
200800
000000
01C000
3FC000
0FC000
078000
0F8000
0F8000
0F8000
0F0000
1F0380
1F1FC0
1F3FC0
1E67C0
1E47C0
3E8780
3F0F80
3F0F80
3E0F00
7E1F00
7C1F00
7C1E20
7C3E40
783EC0
F83F80
F83F00
F01C00
ENDCHAR
STARTCHAR Hbar
ENCODING 294
SWIDTH 800 0
DWIDTH 27 0
BBX 29 24 1 0
BITMAP
07FE3FF8
01F807C0
01F007C0
01F007C0
01F00F80
03F00F80
03E00F80
FFFFFFF8
FFFFFFF8
03E01F00
07E01F00
07FFFF00
07FFFF00
07C01F00
07C03E00
0FC03E00
0F803E00
0F803E00
0F803E00
0F807C00
1F807C00
1F007C00
1F00FC00
FFE3FF00
ENDCHAR
STARTCHAR hbar
ENCODING 295
SWIDTH 629 0
DWIDTH 21 0
BBX 21 25 1 0
BITMAP
007000
0FF000
03F000
01E000
03E000
03E000
03E000
FFFE00
FFFEE0
07C7F0
07CFF0
0799F0
0791F0
0FA1E0
0FC3E0
0FC3E0
0F83C0
1F87C0
1F07C0
1F0788
1F0F90
1E0FB0
3E0FE0
3E0FC0
3C0700
ENDCHAR
STARTCHAR Itilde
ENCODING 296
SWIDTH 386 0
DWIDTH 13 0
BBX 16 30 2 0
BITMAP
0201
0FE6
1FFE
11FC
2010
0000
07FE
01F0
01F0
01F0
01E0
03E0
03E0
03E0
03E0
03C0
07C0
07C0
07C0
07C0
0780
0F80
0F80
0F80
0F80
0F00
1F00
1F00
1F00
FFC0
ENDCHAR
STARTCHAR itilde
ENCODING 297
SWIDTH 339 0
DWIDTH 11 0
BBX 14 23 1 0
BITMAP
0804
3F98
7FF8
47F0
8040
0000
01E0
1FC0
2FC0
07C0
0780
0F80
0F80
0F80
0F00
1F00
1F00
1E20
3E60
3EC0
3F80
3F00
1C00
ENDCHAR
STARTCHAR Imacron
ENCODING 298
SWIDTH 386 0
DWIDTH 13 0
BBX 15 27 2 0
BITMAP
1FFC
1FFC
0000
07FE
01F0
01F0
01F0
01E0
03E0
03E0
03E0
03E0
03C0
07C0
07C0
07C0
07C0
0780
0F80
0F80
0F80
0F80
0F00
1F00
1F00
1F00
FFC0
ENDCHAR
STARTCHAR imacron
ENCODING 299
SWIDTH 339 0
DWIDTH 11 0
BBX 11 20 2 0
BITMAP
FFE0
FFE0
0000
03C0
3F80
5F80
0F80
0F00
1F00
1F00
1F00
1E00
3E00
3E00
3C40
7CC0
7D80
7F00
7E00
3800
ENDCHAR
STARTCHAR Ibreve
ENCODING 300
SWIDTH 386 0
DWIDTH 13 0
BBX 15 30 2 0
BITMAP
0C06
0E0E
0FFC
07F8
03E0
0000
07FE
01F0
01F0
01F0
01E0
03E0
03E0
03E0
03E0
03C0
07C0
07C0
07C0
07C0
0780
0F80
0F80
0F80
0F80
0F00
1F00
1F00
1F00
FFC0
ENDCHAR
STARTCHAR ibreve
ENCODING 301
SWIDTH 339 0
DWIDTH 11 0
BBX 11 23 3 0
BITMAP
C060
E0E0
FFC0
7F80
3E00
0000
0780
7F00
BF00
1F00
1E00
3E00
3E00
3E00
3C00
7C00
7C00
7880
F980
FB00
FE00
FC00
7000
ENDCHAR
STARTCHAR Iogonek
ENCODING 302
SWIDTH 386 0
DWIDTH 13 0
BBX 15 32 2 -8
BITMAP
07FE
01F0
01F0
01F0
01E0
03E0
03E0
03E0
03E0
03C0
07C0
07C0
07C0
07C0
0780
0F80
0F80
0F80
0F80
0F00
1F00
1F00
1F00
FFC0
0300
0600
0E00
0C00
1C00
1C00
1FC0
0F00
ENDCHAR
STARTCHAR iogonek
ENCODING 303
SWIDTH 339 0
DWIDTH 11 0
BBX 10 32 3 -8
BITMAP
0380
0780
0FC0
0780
0780
0000
0000
0780
7F00
BF00
1F00
1E00
3E00
3E00
3E00
3C00
7C00
7C00
7880
F980
FB00
FE00
FC00
7400
1800
3000
7000
6000
E000
E000
FE00
7800
ENDCHAR
STARTCHAR Idotaccent
ENCODING 304
SWIDTH 386 0
DWIDTH 13 0
BBX 15 30 2 0
BITMAP
01C0
03E0
03E0
03E0
01C0
0000
07FE
01F0
01F0
01F0
01E0
03E0
03E0
03E0
03E0
03C0
07C0
07C0
07C0
07C0
0780
0F80
0F80
0F80
0F80
0F00
1F00
1F00
1F00
FFC0
ENDCHAR
STARTCHAR dotlessi
ENCODING 305
SWIDTH 339 0
DWIDTH 11 0
BBX 9 17 3 0
BITMAP
0780
7F00
BF00
1F00
1E00
3E00
3E00
3E00
3C00
7C00
7C00
7880
F980
FB00
FE00
FC00
7000
ENDCHAR
STARTCHAR IJ
ENCODING 306
SWIDTH 755 0
DWIDTH 25 0
BBX 27 28 2 -4
BITMAP
07FEFFE0
01F03F00
01F03F00
01F03E00
01E03E00
03E03E00
03E03E00
03E07E00
03E07C00
03C07C00
07C07C00
07C07C00
07C0FC00
07C0F800
0780F800
0F80F800
0F80F800
0F81F000
0F81F000
0F01F000
1F01F000
1F03F000
1F03E000
FFC3E000
0007C000
000FC000
001F0000
007C0000
ENDCHAR
STARTCHAR ij
ENCODING 307
SWIDTH 655 0
DWIDTH 21 0
BBX 20 32 3 -8
BITMAP
0380E0
0781F0
0FC3F0
0781F0
0781E0
000000
000000
078070
7F0FE0
BF17E0
1F03E0
1E03E0
3E03E0
3E03C0
3E07C0
3C07C0
7C07C0
7C0780
788F80
F98F80
FB0F80
FE0F00
FC1F00
701F00
001F00
001E00
001E00
023E00
073C00
07B800
07F800
01E000
ENDCHAR
STARTCHAR Jcircumflex
ENCODING 308
SWIDTH 388 0
DWIDTH 13 0
BBX 18 37 -1 -4
BITMAP
001000
003800
007C00
00FE00
01CE00
030700
0E0380
040100
000000
01FFC0
007E00
007E00
007C00
007C00
007C00
007C00
00FC00
00F800
00F800
00F800
00F800
01F800
01F000
01F000
01F000
01F000
03E000
03E000
03E000
03E000
07E000
07C000
07C000
0F8000
1F8000
3E0000
F80000
ENDCHAR
STARTCHAR jcircumflex
ENCODING 309
SWIDTH 333 0
DWIDTH 11 0
BBX 16 34 -2 -8
BITMAP
0020
0070
00F8
01FC
039C
060E
1C07
0802
0000
000E
01FC
02FC
007C
007C
007C
0078
00F8
00F8
00F8
00F0
01F0
01F0
01F0
01E0
03E0
03E0
03E0
03C0
03C0
47C0
E780
F700
FF00
3C00
ENDCHAR
STARTCHAR Kcommaaccent
ENCODING 310
SWIDTH 688 0
DWIDTH 23 0
BBX 28 37 1 -13
BITMAP
07FF3FF0
01F80F80
01F81E00
01F03C00
01F07800
01F0F000
01F1C000
03E38000
03E30000
03E60000
03EE0000
03FE0000
07FF0000
07DF0000
07DF8000
079F8000
078FC000
0F8FC000
0F87E000
0F87E000
0F07F000
1F03F800
1F01FC00
FFE01E00
00000000
00080000
001C0000
003E0000
003E0000
003E0000
001C0000
001C0000
00380000
00380000
00700000
00E00000
00400000
ENDCHAR
STARTCHAR kcommaaccent
ENCODING 311
SWIDTH 570 0
DWIDTH 19 0
BBX 19 38 2 -13
BITMAP
01E000
1FC000
07C000
07C000
07C000
078000
0F8000
0F8000
0F80C0
0F03E0
1F07E0
1F09E0
1F10C0
1E2000
1E7000
3EF000
3EF000
3CF000
3CF800
7C7840
7C78C0
7C7C80
783F80
F83F00
F00E00
000000
004000
00E000
01F000
01F000
01F000
00E000
00E000
01C000
01C000
038000
070000
020000
ENDCHAR
STARTCHAR kgreenlandic
ENCODING 312
SWIDTH 570 0
DWIDTH 19 0
BBX 19 16 2 0
BITMAP
0F03E0
1F07E0
1F09E0
1F10C0
1E2000
1E7000
3EF000
3EF000
3CF000
3CF800
7C7840
7C78C0
7C7C80
783F80
F83F00
F00E00
ENDCHAR
STARTCHAR Lacute
ENCODING 313
SWIDTH 586 0
DWIDTH 20 0
BBX 20 33 1 0
BITMAP
000200
000F00
001F00
003E00
007C00
00F000
01C000
010000
000000
07FF00
01F800
01F800
01F000
01F000
01F000
03F000
03E000
03E000
03E000
03E000
07E000
07C000
07C000
07C000
07C000
078000
0F8030
0F8060
0F8060
0F80E0
1F83E0
1FFFC0
FFFFC0
ENDCHAR
STARTCHAR lacute
ENCODING 314
SWIDTH 327 0
DWIDTH 11 0
BBX 12 34 3 0
BITMAP
0020
00F0
01F0
03E0
07C0
0F00
1C00
1000
0000
01C0
3FC0
0F80
0780
0F80
0F80
0F00
0F00
1F00
1F00
1F00
1E00
3E00
3E00
3E00
3C00
7C00
7C00
7C00
7880
F980
FB00
FE00
FC00
7000
ENDCHAR
STARTCHAR Lcommaaccent
ENCODING 315
SWIDTH 586 0
DWIDTH 20 0
BBX 20 37 1 -13
BITMAP
07FF00
01F800
01F800
01F000
01F000
01F000
03F000
03E000
03E000
03E000
03E000
07E000
07C000
07C000
07C000
07C000
078000
0F8030
0F8060
0F8060
0F80E0
1F83E0
1FFFC0
FFFFC0
000000
002000
007000
00F800
00F800
00F800
007000
007000
00E000
00E000
01C000
038000
010000
ENDCHAR
STARTCHAR lcommaaccent
ENCODING 316
SWIDTH 327 0
DWIDTH 11 0
BBX 10 38 3 -13
BITMAP
01C0
3FC0
0F80
0780
0F80
0F80
0F00
0F00
1F00
1F00
1F00
1E00
3E00
3E00
3E00
3C00
7C00
7C00
7C00
7880
F980
FB00
FE00
FC00
7000
0000
0800
1C00
3E00
3E00
3E00
1C00
1C00
3800
3800
7000
E000
4000
ENDCHAR
STARTCHAR Lcaron
ENCODING 317
SWIDTH 803 0
DWIDTH 27 0
BBX 29 24 1 0
BITMAP
07FF0060
01F800F0
01F800F8
01F000F8
01F000F0
01F00070
03F000E0
03E000E0
03E001C0
03E00100
03E00200
07E00000
07C00000
07C00000
07C00000
07C00000
07800000
0F803000
0F806000
0F806000
0F80E000
1F83E000
1FFFC000
FFFFC000
ENDCHAR
STARTCHAR lcaron
ENCODING 318
SWIDTH 557 0
DWIDTH 18 0
BBX 18 25 3 0
BITMAP
01C000
3FC300
0F8780
0787C0
0F87C0
0F8780
0F0380
0F0700
1F0700
1F0E00
1F0800
1E1000
3E0000
3E0000
3E0000
3C0000
7C0000
7C0000
7C0000
788000
F98000
FB0000
FE0000
FC0000
700000
ENDCHAR
STARTCHAR Ldot
ENCODING 319
SWIDTH 837 0
DWIDTH 28 0
BBX 27 24 1 0
BITMAP
07FF0000
01F80000
01F80000
01F00000
01F00000
01F00000
03F00000
03E00000
03E00000
03E00000
03E00000
07E00000
07C00000
07C00180
07C003E0
07C007E0
078007E0
0F8037C0
0F806180
0F806000
0F80E000
1F83E000
1FFFC000
FFFFC000
ENDCHAR
STARTCHAR ldot
ENCODING 320
SWIDTH 591 0
DWIDTH 19 0
BBX 16 25 3 0
BITMAP
01C0
3FC0
0F80
0780
0F80
0F80
0F00
0F00
1F00
1F00
1F00
1E00
3E00
3E00
3E0C
3C1F
7C3F
7C3F
7C3E
788C
F980
FB00
FE00
FC00
7000
ENDCHAR
STARTCHAR Lslash
ENCODING 321
SWIDTH 592 0
DWIDTH 20 0
BBX 20 24 1 0
BITMAP
07FF00
01F800
01F800
01F000
01F000
01F000
03F100
03E700
03EE00
03FC00
03F000
07E000
07E000
0FE000
1FC000
77C000
6FC000
8FC030
0F8030
0F8060
0F80E0
0F81E0
1FFFE0
7FFFC0
ENDCHAR
STARTCHAR lslash
ENCODING 322
SWIDTH 339 0
DWIDTH 11 0
BBX 14 25 1 0
BITMAP
0070
0FF0
03E0
01E0
03E0
03E0
03E0
03C0
07C4
07D8
07F0
07E0
0F80
0F80
3F80
7F00
5F00
9F00
1F00
1E20
3E60
3EC0
3F80
3F00
1C00
ENDCHAR
STARTCHAR Nacute
ENCODING 323
SWIDTH 741 0
DWIDTH 25 0
BBX 28 33 1 0
BITMAP
00002000
0000F000
0001F000
0003E000
0007C000
000F0000
001C0000
00100000
00000000
07F80FF0
01F80380
01F80380
01FC0380
01FC0300
01FE0300
033E0300
033E0300
031F0600
031F0600
031F8600
060F8600
060F8600
0607CC00
0607CC00
0607EC00
0C03EC00
0C03EC00
0C01F800
0C01F800
1C01F800
1C00F800
1C00F800
FF007000
ENDCHAR
STARTCHAR nacute
ENCODING 324
SWIDTH 635 0
DWIDTH 21 0
BBX 20 26 2 0
BITMAP
000100
000780
000F80
001F00
003E00
007800
00E000
008000
000000
07C1C0
7F87E0
0F9FE0
0F93E0
0F23E0
1F43C0
1F87C0
1E87C0
1F0780
3F0F80
3E0F80
3E0F10
3E1F30
7C1F60
7C1FC0
7C1F80
F80E00
ENDCHAR
STARTCHAR Ncommaaccent
ENCODING 325
SWIDTH 741 0
DWIDTH 25 0
BBX 28 37 1 -13
BITMAP
07F80FF0
01F80380
01F80380
01FC0380
01FC0300
01FE0300
033E0300
033E0300
031F0600
031F0600
031F8600
060F8600
060F8600
0607CC00
0607CC00
0607EC00
0C03EC00
0C03EC00
0C01F800
0C01F800
1C01F800
1C00F800
1C00F800
FF007000
00000000
00040000
000E0000
001F0000
001F0000
001F0000
000E0000
000E0000
001C0000
001C0000
00380000
00700000
00200000
ENDCHAR
STARTCHAR ncommaaccent
ENCODING 326
SWIDTH 635 0
DWIDTH 21 0
BBX 20 30 2 -13
BITMAP
07C1C0
7F87E0
0F9FE0
0F93E0
0F23E0
1F43C0
1F87C0
1E87C0
1F0780
3F0F80
3E0F80
3E0F10
3E1F30
7C1F60
7C1FC0
7C1F80
F80E00
000000
002000
007000
00F800
00F800
00F800
007000
007000
00E000
00E000
01C000
038000
010000
ENDCHAR
STARTCHAR Ncaron
ENCODING 327
SWIDTH 741 0
DWIDTH 25 0
BBX 28 33 1 0
BITMAP
00200800
00701C00
00383000
001CE000
001FC000
000F8000
00070000
00020000
00000000
07F80FF0
01F80380
01F80380
01FC0380
01FC0300
01FE0300
033E0300
033E0300
031F0600
031F0600
031F8600
060F8600
060F8600
0607CC00
0607CC00
0607EC00
0C03EC00
0C03EC00
0C01F800
0C01F800
1C01F800
1C00F800
1C00F800
FF007000
ENDCHAR
STARTCHAR ncaron
ENCODING 328
SWIDTH 635 0
DWIDTH 21 0
BBX 20 26 2 0
BITMAP
020080
0701C0
038300
01CE00
01FC00
00F800
007000
002000
000000
07C1C0
7F87E0
0F9FE0
0F93E0
0F23E0
1F43C0
1F87C0
1E87C0
1F0780
3F0F80
3E0F80
3E0F10
3E1F30
7C1F60
7C1FC0
7C1F80
F80E00
ENDCHAR
STARTCHAR napostrophe
ENCODING 329
SWIDTH 869 0
DWIDTH 29 0
BBX 26 24 4 0
BITMAP
18000000
3C000000
3E000000
3E000000
3C000000
1C000000
38000000
381F0700
71FE1F80
403E7F80
803E4F80
003C8F80
007D0F00
007E1F00
007A1F00
007C1E00
00FC3E00
00F83E00
00F83C40
00F87CC0
01F07D80
01F07F00
01F07E00
03E03800
ENDCHAR
STARTCHAR Eng
ENCODING 330
SWIDTH 741 0
DWIDTH 25 0
BBX 28 32 1 -8
BITMAP
07F80FF0
01F80380
01F80380
01FC0380
01FC0300
01FE0300
033E0300
033E0300
031F0600
031F0600
031F8600
060F8600
060F8600
0607CC00
0607CC00
0607EC00
0C03EC00
0C03FC00
0C01FC00
0C01FC00
1C01FC00
1C00F800
1C00F800
FF00F800
0000F800
0000F000
0000F000
0011F000
0039E000
003DC000
003FC000
000F0000
ENDCHAR
STARTCHAR eng
ENCODING 331
SWIDTH 635 0
DWIDTH 21 0
BBX 19 25 2 -8
BITMAP
07C1C0
7F87E0
0F9FE0
0F93E0
0F23E0
1F43C0
1F87C0
1E87C0
1F0780
3F0F80
3E0F80
3E0F80
3E0F80
7C0F80
7C0F00
7C1F00
F81F00
001F00
001E00
001E00
023E00
073C00
07B800
07F800
01E000
ENDCHAR
STARTCHAR Omacron
ENCODING 332
SWIDTH 761 0
DWIDTH 25 0
BBX 23 27 4 0
BITMAP
01FFC0
01FFC0
000000
001E00
00FFC0
03E0F0
07C0F8
0FC078
1F807C
3F007C
3F007C
7E007E
7E007E
7E007E
FE007E
FC00FE
FC00FC
FC00FC
FC00FC
FC01F8
7C01F8
7C03F0
3C03E0
3E07C0
1F0F80
07FF00
00F800
ENDCHAR
STARTCHAR omacron
ENCODING 333
SWIDTH 562 0
DWIDTH 19 0
BBX 18 20 2 0
BITMAP
0FFE00
0FFE00
000000
00F800
07FF00
0FCF80
1F0780
3F07C0
3E07C0
7C07C0
7C0FC0
FC0FC0
F80F80
F80F80
F81F00
F83F00
783E00
787C00
3FF800
07C000
ENDCHAR
STARTCHAR Obreve
ENCODING 334
SWIDTH 761 0
DWIDTH 25 0
BBX 23 30 4 0
BITMAP
0180C0
01C1C0
01FF80
00FF00
007C00
000000
001E00
00FFC0
03E0F0
07C0F8
0FC078
1F807C
3F007C
3F007C
7E007E
7E007E
7E007E
FE007E
FC00FE
FC00FC
FC00FC
FC00FC
FC01F8
7C01F8
7C03F0
3C03E0
3E07C0
1F0F80
07FF00
00F800
ENDCHAR
STARTCHAR obreve
ENCODING 335
SWIDTH 562 0
DWIDTH 19 0
BBX 18 23 2 0
BITMAP
060300
070700
07FE00
03FC00
01F000
000000
00F800
07FF00
0FCF80
1F0780
3F07C0
3E07C0
7C07C0
7C0FC0
FC0FC0
F80F80
F80F80
F81F00
F83F00
783E00
787C00
3FF800
07C000
ENDCHAR
STARTCHAR Ohungarumlaut
ENCODING 336
SWIDTH 761 0
DWIDTH 25 0
BBX 23 32 4 0
BITMAP
0018C0
0038E0
0039C0
0071C0
006380
00C300
008200
000000
001E00
00FFC0
03E0F0
07C0F8
0FC078
1F807C
3F007C
3F007C
7E007E
7E007E
7E007E
FE007E
FC00FE
FC00FC
FC00FC
FC00FC
FC01F8
7C01F8
7C03F0
3C03E0
3E07C0
1F0F80
07FF00
00F800
ENDCHAR
STARTCHAR ohungarumlaut
ENCODING 337
SWIDTH 562 0
DWIDTH 19 0
BBX 18 25 2 0
BITMAP
00C600
01C700
01CE00
038E00
031C00
061800
041000
000000
00F800
07FF00
0FCF80
1F0780
3F07C0
3E07C0
7C07C0
7C0FC0
FC0FC0
F80F80
F80F80
F81F00
F83F00
783E00
787C00
3FF800
07C000
ENDCHAR
STARTCHAR OE
ENCODING 338
SWIDTH 1016 0
DWIDTH 34 0
BBX 34 24 3 0
BITMAP
0007FFFFC0
007FFFFFC0
01F83F0380
07E03E0180
0FC03E0180
1F803E0180
3F803E0180
3F007E0000
3F007C0C00
7E007C0800
7E007C1800
FC00FFF800
FC00FFF800
FC00F83800
FC00F81000
FC00F81000
7C01F80000
7C01F00200
7C01F00600
3E01F00E00
1F03F01C00
0F83F03C00
03FFFFFC00
003FFFF800
ENDCHAR
STARTCHAR oe
ENCODING 339
SWIDTH 811 0
DWIDTH 27 0
BBX 27 17 2 0
BITMAP
00F00600
07FE3FC0
0FCF71E0
1F07E1E0
3F07E1E0
3E07C3E0
7C07C3C0
7C0FCF80
FC0FBF00
F80FF800
F80FC000
F81F80C0
F83F8180
783F8100
787BC600
3FE1FC00
0780E000
ENDCHAR
STARTCHAR Racute
ENCODING 340
SWIDTH 681 0
DWIDTH 23 0
BBX 22 33 2 0
BITMAP
000040
0001E0
0003E0
0007C0
000F80
001E00
003800
002000
000000
07FF80
01FFF0
01F0F8
01F0F8
01F07C
03E07C
03E07C
03E07C
03E07C
03E0F8
07C1F0
07C3E0
07FF80
07FF80
07C3C0
0F83E0
0F83E0
0F83E0
0F83E0
0F83E0
1F03E0
1F03E0
1F01F0
FFC0FC
ENDCHAR
STARTCHAR racute
ENCODING 341
SWIDTH 440 0
DWIDTH 15 0
BBX 15 26 3 0
BITMAP
0008
003C
007C
00F8
01F0
03C0
0700
0400
0000
0F0C
7F3E
1E7E
1EFC
1F98
1F00
3F00
3E00
3E00
3E00
7C00
7C00
7C00
7C00
F800
F800
F000
ENDCHAR
STARTCHAR Rcommaaccent
ENCODING 342
SWIDTH 681 0
DWIDTH 23 0
BBX 22 37 2 -13
BITMAP
07FF80
01FFF0
01F0F8
01F0F8
01F07C
03E07C
03E07C
03E07C
03E07C
03E0F8
07C1F0
07C3E0
07FF80
07FF80
07C3C0
0F83E0
0F83E0
0F83E0
0F83E0
0F83E0
1F03E0
1F03E0
1F01F0
FFC0FC
000000
001000
003800
007C00
007C00
007C00
003800
003800
007000
007000
00E000
01C000
008000
ENDCHAR
STARTCHAR rcommaaccent
ENCODING 343
SWIDTH 440 0
DWIDTH 15 0
BBX 15 30 3 -13
BITMAP
0F0C
7F3E
1E7E
1EFC
1F98
1F00
3F00
3E00
3E00
3E00
7C00
7C00
7C00
7C00
F800
F800
F000
0000
0800
1C00
3E00
3E00
3E00
1C00
1C00
3800
3800
7000
E000
4000
ENDCHAR
STARTCHAR Rcaron
ENCODING 344
SWIDTH 681 0
DWIDTH 23 0
BBX 22 33 2 0
BITMAP
008020
01C070
00E0C0
007380
007F00
003E00
001C00
000800
000000
07FF80
01FFF0
01F0F8
01F0F8
01F07C
03E07C
03E07C
03E07C
03E07C
03E0F8
07C1F0
07C3E0
07FF80
07FF80
07C3C0
0F83E0
0F83E0
0F83E0
0F83E0
0F83E0
1F03E0
1F03E0
1F01F0
FFC0FC
ENDCHAR
STARTCHAR rcaron
ENCODING 345
SWIDTH 440 0
DWIDTH 15 0
BBX 15 26 3 0
BITMAP
1004
380E
1C18
0E70
0FE0
07C0
0380
0100
0000
0F0C
7F3E
1E7E
1EFC
1F98
1F00
3F00
3E00
3E00
3E00
7C00
7C00
7C00
7C00
F800
F800
F000
ENDCHAR
STARTCHAR Sacute
ENCODING 346
SWIDTH 551 0
DWIDTH 18 0
BBX 18 33 2 0
BITMAP
000200
000F00
001F00
003E00
007C00
00F000
01C000
010000
000000
003E00
01FF80
0783C0
0F81C0
0F01C0
1F0080
1F0080
1F8000
1FC000
0FF000
0FF800
07FC00
01FF00
00FF00
007F80
401F80
401F80
600F80
E00F80
F00F00
F01F00
7C3E00
3FF800
03C000
ENDCHAR
STARTCHAR sacute
ENCODING 347
SWIDTH 417 0
DWIDTH 14 0
BBX 15 26 1 0
BITMAP
0004
001E
003E
007C
00F8
01E0
0380
0200
0000
01F0
07FC
0E3C
1E1E
1E0C
1F00
0F80
0FC0
07F0
03F0
01F0
20F8
7078
F878
7C70
3FE0
0F80
ENDCHAR
STARTCHAR Scircumflex
ENCODING 348
SWIDTH 551 0
DWIDTH 18 0
BBX 18 33 2 0
BITMAP
002000
007000
00F800
01FC00
039C00
060E00
1C0700
080200
000000
003E00
01FF80
0783C0
0F81C0
0F01C0
1F0080
1F0080
1F8000
1FC000
0FF000
0FF800
07FC00
01FF00
00FF00
007F80
401F80
401F80
600F80
E00F80
F00F00
F01F00
7C3E00
3FF800
03C000
ENDCHAR
STARTCHAR scircumflex
ENCODING 349
SWIDTH 417 0
DWIDTH 14 0
BBX 15 26 1 0
BITMAP
0040
00E0
01F0
03F8
0738
0C1C
380E
1004
0000
01F0
07FC
0E3C
1E1E
1E0C
1F00
0F80
0FC0
07F0
03F0
01F0
20F8
7078
F878
7C70
3FE0
0F80
ENDCHAR
STARTCHAR Scedilla
ENCODING 350
SWIDTH 551 0
DWIDTH 18 0
BBX 18 32 2 -8
BITMAP
003E00
01FF80
0783C0
0F81C0
0F01C0
1F0080
1F0080
1F8000
1FC000
0FF000
0FF800
07FC00
01FF00
00FF00
007F80
401F80
401F80
600F80
E00F80
F00F00
F01F00
7C3E00
3FF800
03C000
006000
00C000
01E000
01F000
007000
007000
00E000
03C000
ENDCHAR
STARTCHAR scedilla
ENCODING 351
SWIDTH 417 0
DWIDTH 14 0
BBX 15 25 1 -8
BITMAP
01F0
07FC
0E3C
1E1E
1E0C
1F00
0F80
0FC0
07F0
03F0
01F0
20F8
7078
F878
7C70
3FE0
0F80
0180
0300
0780
07C0
01C0
01C0
0380
0F00
ENDCHAR
STARTCHAR Scaron
ENCODING 352
SWIDTH 551 0
DWIDTH 18 0
BBX 20 30 2 0
BITMAP
018070
00E3C0
007F80
003F00
003C00
000800
003E00
01FF80
0783C0
0F81C0
0F01C0
1F0080
1F0080
1F8000
1FC000
0FF000
0FF800
07FC00
01FF00
00FF00
007F80
401F80
401F80
600F80
E00F80
F00F00
F01F00
7C3E00
3FF800
03C000
ENDCHAR
STARTCHAR scaron
ENCODING 353
SWIDTH 417 0
DWIDTH 14 0
BBX 18 25 1 0
BITMAP
040080
0601C0
030300
01CE00
01FC00
00F800
00F000
006000
01F000
07FC00
0E3C00
1E1E00
1E0C00
1F0000
0F8000
0FC000
07F000
03F000
01F000
20F800
707800
F87800
7C7000
3FE000
0F8000
ENDCHAR
STARTCHAR Tcommaaccent
ENCODING 354
SWIDTH 616 0
DWIDTH 21 0
BBX 21 32 4 -8
BITMAP
3FFFF8
7FFFF8
78FC78
70F838
60F830
40F830
C0F810
01F800
01F000
01F000
01F000
01F000
03E000
03E000
03E000
03E000
07E000
07C000
07C000
07C000
07C000
0FC000
0FC000
7FF000
00C000
018000
03C000
03E000
00E000
00E000
01C000
078000
ENDCHAR
STARTCHAR tcommaaccent
ENCODING 355
SWIDTH 359 0
DWIDTH 12 0
BBX 12 30 3 -8
BITMAP
00C0
0380
0F80
0F80
0F00
7FF0
FFF0
1F00
1E00
3E00
3E00
3E00
3C00
7C00
7C00
7C00
78C0
F880
F900
FE00
FC00
3800
0C00
1800
3C00
3E00
0E00
0E00
1C00
7800
ENDCHAR
STARTCHAR Tcaron
ENCODING 356
SWIDTH 616 0
DWIDTH 21 0
BBX 21 33 4 0
BITMAP
020080
0701C0
038300
01CE00
01FC00
00F800
007000
002000
000000
3FFFF8
7FFFF8
78FC78
70F838
60F830
40F830
C0F810
01F800
01F000
01F000
01F000
01F000
03E000
03E000
03E000
03E000
07E000
07C000
07C000
07C000
07C000
0FC000
0FC000
7FF000
ENDCHAR
STARTCHAR tcaron
ENCODING 357
SWIDTH 587 0
DWIDTH 19 0
BBX 19 24 3 0
BITMAP
000180
0003C0
00C3E0
0383E0
0F83C0
0F81C0
0F0380
7FF380
FFF700
1F0400
1E0800
3E0000
3E0000
3E0000
3C0000
7C0000
7C0000
7C0000
78C000
F88000
F90000
FE0000
FC0000
380000
ENDCHAR
STARTCHAR Tbar
ENCODING 358
SWIDTH 616 0
DWIDTH 21 0
BBX 21 24 4 0
BITMAP
3FFFF8
7FFFF8
78FC78
70F838
60F830
40F830
C0F810
01F800
01F000
01F000
01F000
1FFFC0
1FFFC0
03E000
03E000
03E000
07E000
07C000
07C000
07C000
07C000
0FC000
0FC000
7FF000
ENDCHAR
STARTCHAR tbar
ENCODING 359
SWIDTH 359 0
DWIDTH 12 0
BBX 15 22 2 0
BITMAP
0060
01C0
07C0
07C0
0780
3FF8
7FF8
0F80
0F00
1F00
1F00
1F00
1E00
3E00
FFFE
FFFE
3C60
7C40
7C80
7F00
7E00
1C00
ENDCHAR
STARTCHAR Utilde
ENCODING 360
SWIDTH 776 0
DWIDTH 26 0
BBX 25 30 5 0
BITMAP
00402000
01FCC000
03FFC000
023F8000
04020000
00000000
7FE3FF80
1F007C00
1F007C00
1F00FC00
1F00F800
3E00F800
3E00F800
3E00F800
3E01F000
3E01F000
7C01F000
7C01F000
7C03F000
7C03E000
F803E000
F803E000
F807C000
F807C000
F807C000
F80F8000
780F0000
7C1F0000
1FFC0000
03E00000
ENDCHAR
STARTCHAR utilde
ENCODING 361
SWIDTH 634 0
DWIDTH 21 0
BBX 19 23 3 0
BITMAP
010080
07F300
0FFF00
08FE00
100800
000000
0703C0
FF07C0
3F07C0
1E0780
3E0F80
3E0F80
3E0F80
3C1F00
7C1F00
7C3F00
7C7F00
785E20
F89E60
F93EC0
FF3F80
FC3F00
700C00
ENDCHAR
STARTCHAR Umacron
ENCODING 362
SWIDTH 776 0
DWIDTH 26 0
BBX 25 27 5 0
BITMAP
01FFC000
01FFC000
00000000
7FE3FF80
1F007C00
1F007C00
1F00FC00
1F00F800
3E00F800
3E00F800
3E00F800
3E01F000
3E01F000
7C01F000
7C01F000
7C03F000
7C03E000
F803E000
F803E000
F807C000
F807C000
F807C000
F80F8000
780F0000
7C1F0000
1FFC0000
03E00000
ENDCHAR
STARTCHAR umacron
ENCODING 363
SWIDTH 634 0
DWIDTH 21 0
BBX 19 20 3 0
BITMAP
0FFE00
0FFE00
000000
0703C0
FF07C0
3F07C0
1E0780
3E0F80
3E0F80
3E0F80
3C1F00
7C1F00
7C3F00
7C7F00
785E20
F89E60
F93EC0
FF3F80
FC3F00
700C00
ENDCHAR
STARTCHAR Ubreve
ENCODING 364
SWIDTH 776 0
DWIDTH 26 0
BBX 25 30 5 0
BITMAP
0180C000
01C1C000
01FF8000
00FF0000
007C0000
00000000
7FE3FF80
1F007C00
1F007C00
1F00FC00
1F00F800
3E00F800
3E00F800
3E00F800
3E01F000
3E01F000
7C01F000
7C01F000
7C03F000
7C03E000
F803E000
F803E000
F807C000
F807C000
F807C000
F80F8000
780F0000
7C1F0000
1FFC0000
03E00000
ENDCHAR
STARTCHAR ubreve
ENCODING 365
SWIDTH 634 0
DWIDTH 21 0
BBX 19 23 3 0
BITMAP
060300
070700
07FE00
03FC00
01F000
000000
0703C0
FF07C0
3F07C0
1E0780
3E0F80
3E0F80
3E0F80
3C1F00
7C1F00
7C3F00
7C7F00
785E20
F89E60
F93EC0
FF3F80
FC3F00
700C00
ENDCHAR
STARTCHAR Uring
ENCODING 366
SWIDTH 776 0
DWIDTH 26 0
BBX 25 32 5 0
BITMAP
003C0000
00620000
00430000
00C30000
00C30000
00460000
00380000
00000000
7FE3FF80
1F007C00
1F007C00
1F00FC00
1F00F800
3E00F800
3E00F800
3E00F800
3E01F000
3E01F000
7C01F000
7C01F000
7C03F000
7C03E000
F803E000
F803E000
F807C000
F807C000
F807C000
F80F8000
780F0000
7C1F0000
1FFC0000
03E00000
ENDCHAR
STARTCHAR uring
ENCODING 367
SWIDTH 634 0
DWIDTH 21 0
BBX 19 25 3 0
BITMAP
00F000
018800
010C00
030C00
030C00
011800
00E000
000000
0703C0
FF07C0
3F07C0
1E0780
3E0F80
3E0F80
3E0F80
3C1F00
7C1F00
7C3F00
7C7F00
785E20
F89E60
F93EC0
FF3F80
FC3F00
700C00
ENDCHAR
STARTCHAR Uhungarumlaut
ENCODING 368
SWIDTH 776 0
DWIDTH 26 0
BBX 25 32 5 0
BITMAP
0018C000
0038E000
0039C000
0071C000
00638000
00C30000
00820000
00000000
7FE3FF80
1F007C00
1F007C00
1F00FC00
1F00F800
3E00F800
3E00F800
3E00F800
3E01F000
3E01F000
7C01F000
7C01F000
7C03F000
7C03E000
F803E000
F803E000
F807C000
F807C000
F807C000
F80F8000
780F0000
7C1F0000
1FFC0000
03E00000
ENDCHAR
STARTCHAR uhungarumlaut
ENCODING 369
SWIDTH 634 0
DWIDTH 21 0
BBX 19 25 3 0
BITMAP
00C600
01C700
01CE00
038E00
031C00
061800
041000
000000
0703C0
FF07C0
3F07C0
1E0780
3E0F80
3E0F80
3E0F80
3C1F00
7C1F00
7C3F00
7C7F00
785E20
F89E60
F93EC0
FF3F80
FC3F00
700C00
ENDCHAR
STARTCHAR Uogonek
ENCODING 370
SWIDTH 776 0
DWIDTH 26 0
BBX 25 32 5 -8
BITMAP
7FE3FF80
1F007C00
1F007C00
1F00FC00
1F00F800
3E00F800
3E00F800
3E00F800
3E01F000
3E01F000
7C01F000
7C01F000
7C03F000
7C03E000
F803E000
F803E000
F807C000
F807C000
F807C000
F80F8000
780F0000
7C1F0000
1FFC0000
03F00000
00600000
00C00000
01C00000
01800000
03800000
03800000
03F80000
01E00000
ENDCHAR
STARTCHAR uogonek
ENCODING 371
SWIDTH 634 0
DWIDTH 21 0
BBX 19 25 3 -8
BITMAP
0703C0
FF07C0
3F07C0
1E0780
3E0F80
3E0F80
3E0F80
3C1F00
7C1F00
7C3F00
7C7F00
785E20
F89E60
F93EC0
FF3F80
FC3F00
702C00
00C000
018000
038000
030000
070000
070000
07F000
03C000
ENDCHAR
STARTCHAR Wcircumflex
ENCODING 372
SWIDTH 920 0
DWIDTH 31 0
BBX 32 33 4 0
BITMAP
00010000
00038000
0007C000
000FE000
001CE000
00307000
00E03800
00401000
00000000
FF80007F
3E01E01C
3E03E018
3E03E018
3E03E030
3E07E030
1E05E070
1E0DE060
1E0DE060
1E19E0C0
1E19E0C0
1E11E180
1E31F180
1E21F380
1E61F300
1E61F300
1EC1F600
1EC1F600
1E81FC00
1F81FC00
1F01F800
1F01F800
1F00F000
1E00F000
ENDCHAR
STARTCHAR wcircumflex
ENCODING 373
SWIDTH 795 0
DWIDTH 27 0
BBX 25 26 4 0
BITMAP
00040000
000E0000
001F0000
003F8000
00738000
00C1C000
0380E000
01004000
00000000
0F0F8700
FF0F8780
3E0F0780
3E1F0780
3E1F0700
3E1F0700
3C1E0700
7C3E0600
7C3E0E00
7C7E0C00
785C1800
F8BC1000
F8BC2000
F93C4000
FE3F8000
FC1F0000
700C0000
ENDCHAR
STARTCHAR Ycircumflex
ENCODING 374
SWIDTH 622 0
DWIDTH 21 0
BBX 21 33 5 0
BITMAP
002000
007000
00F800
01FC00
039C00
060E00
1C0700
080200
000000
FFCFF8
3E01E0
3E01C0
3E0380
1F0700
1F0600
1F0E00
1F0C00
0F1800
0F3800
0FB000
0FE000
07E000
07C000
07C000
078000
078000
078000
0F8000
0F8000
0F0000
0F0000
1F0000
FFE000
ENDCHAR
STARTCHAR ycircumflex
ENCODING 375
SWIDTH 489 0
DWIDTH 16 0
BBX 19 34 0 -8
BITMAP
001000
003800
007C00
00FE00
01CE00
030700
0E0380
040100
000000
00C040
0FC1E0
3FC1E0
07C1C0
07C1C0
03C1C0
03C380
03C380
03C300
03E300
03E600
03E400
03EC00
01E800
01F800
01F000
01F000
01E000
01E000
01C000
618000
F10000
FB0000
FE0000
780000
ENDCHAR
STARTCHAR Ydieresis
ENCODING 376
SWIDTH 622 0
DWIDTH 21 0
BBX 21 29 5 0
BITMAP
038380
07C7C0
07C7C0
07C7C0
038380
FFC7F8
3E01E0
3E01C0
1E0380
1F0300
1F0700
1F0600
0F0C00
0F9C00
0F9800
0FB000
07B000
07E000
07E000
07C000
07C000
07C000
07C000
078000
0F8000
0F8000
0F8000
1F8000
FFE000
ENDCHAR
STARTCHAR Zacute
ENCODING 377
SWIDTH 618 0
DWIDTH 21 0
BBX 25 33 0 0
BITMAP
00001000
00007800
0000F800
0001F000
0003E000
00078000
000E0000
00080000
00000000
01FFFF80
01FFFF00
03C07F00
03007E00
0300FC00
0201F800
0203F000
0007E000
000FE000
000FC000
001F8000
003F0000
007E0000
00FC0000
01F80000
01F80000
03F00000
07E00C00
0FC01800
1F801800
3F003800
3F00F000
7FFFF000
FFFFF000
ENDCHAR
STARTCHAR zacute
ENCODING 378
SWIDTH 466 0
DWIDTH 16 0
BBX 17 26 1 0
BITMAP
000200
000F00
001F00
003E00
007C00
00F000
01C000
010000
000000
07FF80
0FFF00
0FFE00
181C00
103800
307000
00E000
01C000
038000
070100
0E0100
1C0300
3F8600
7FFE00
7FFE00
E1FC00
E03800
ENDCHAR
STARTCHAR Zdotaccent
ENCODING 379
SWIDTH 618 0
DWIDTH 21 0
BBX 25 30 0 0
BITMAP
00070000
000F8000
000F8000
000F8000
00070000
00000000
01FFFF80
01FFFF00
03C07F00
03007E00
0300FC00
0201F800
0203F000
0007E000
000FE000
000FC000
001F8000
003F0000
007E0000
00FC0000
01F80000
01F80000
03F00000
07E00C00
0FC01800
1F801800
3F003800
3F00F000
7FFFF000
FFFFF000
ENDCHAR
STARTCHAR zdotaccent
ENCODING 380
SWIDTH 466 0
DWIDTH 16 0
BBX 17 23 1 0
BITMAP
00E000
01F000
01F000
01F000
00E000
000000
07FF80
0FFF00
0FFE00
181C00
103800
307000
00E000
01C000
038000
070100
0E0100
1C0300
3F8600
7FFE00
7FFE00
E1FC00
E03800
ENDCHAR
STARTCHAR Zcaron
ENCODING 381
SWIDTH 618 0
DWIDTH 21 0
BBX 25 30 0 0
BITMAP
00300E00
001C3C00
000FF000
0007E000
0003C000
00010000
01FFFF80
01FFFF00
03C07F00
03007E00
0300FC00
0201F800
0203F000
0007E000
000FE000
000FC000
001F8000
003F0000
007E0000
00FC0000
01F80000
01F80000
03F00000
07E00C00
0FC01800
1F801800
3F003800
3F00F000
7FFFF000
FFFFF000
ENDCHAR
STARTCHAR zcaron
ENCODING 382
SWIDTH 466 0
DWIDTH 16 0
BBX 18 25 1 0
BITMAP
040080
0201C0
038300
01CE00
01FC00
00F800
007000
002000
07FF80
0FFF00
0FFE00
181C00
103800
107000
00E000
01C000
038000
070100
0E0100
1C0300
3FC700
7FFE00
7FFE00
F1FC00
E03800
ENDCHAR
STARTCHAR uni0186
ENCODING 390
SWIDTH 672 0
DWIDTH 22 0
BBX 21 24 4 0
BITMAP
01F000
0FFF00
1F07C0
1C03E0
1803E0
1801F0
3001F0
2001F8
0001F8
0001F8
0001F8
0001F8
0001F0
0001F0
0003F0
0003F0
4003E0
4007E0
400FC0
E00F80
E01F00
F07E00
7FF800
1FC000
ENDCHAR
STARTCHAR uni0189
ENCODING 393
SWIDTH 780 0
DWIDTH 26 0
BBX 25 24 2 0
BITMAP
07FF8000
01FFF000
01F03C00
01F01E00
01F01F00
03F00F00
03E00F00
03E00F80
03E00F80
03E00F80
07E00F80
3FFE0F80
3FFE0F80
07C01F00
07C01F00
0F801F00
0F803E00
0F803E00
0F807C00
0F80FC00
1F01F800
1F83E000
1FFF8000
FFFC0000
ENDCHAR
STARTCHAR uni018E
ENCODING 398
SWIDTH 622 0
DWIDTH 21 0
BBX 23 24 1 0
BITMAP
0FFFFE
0FFFF0
0E03F0
1C03E0
1803E0
1803E0
3003E0
0007C0
0207C0
0607C0
0607C0
07FFC0
07FF80
060F80
0C0F80
0C0F80
001F80
601F00
601F00
601F00
601F00
F03F00
FFFF00
FFFFC0
ENDCHAR
STARTCHAR florin
ENCODING 402
SWIDTH 560 0
DWIDTH 19 0
BBX 22 29 0 -5
BITMAP
0001E0
0007F8
000F78
001E3C
003E38
003E00
003E00
007C00
007C00
007C00
07FFC0
07FFC0
00F800
00F800
00F800
00F800
01F000
01F000
01F000
01E000
01E000
03E000
03E000
03C000
23C000
638000
F78000
7F0000
1C0000
ENDCHAR
STARTCHAR uni0197
ENCODING 407
SWIDTH 386 0
DWIDTH 13 0
BBX 15 24 2 0
BITMAP
07FE
01F0
01F0
01F0
01E0
03E0
03E0
03E0
03E0
03C0
07C0
FFFE
FFFE
07C0
0780
0F80
0F80
0F80
0F80
0F00
1F00
1F00
1F00
FFC0
ENDCHAR
STARTCHAR uni019A
ENCODING 410
SWIDTH 327 0
DWIDTH 11 0
BBX 15 25 1 0
BITMAP
0070
0FF0
03E0
01E0
03E0
03E0
03C0
03C0
07C0
07C0
07C0
FFFE
FFFE
0F80
0F80
0F00
1F00
1F00
1F00
1E20
3E60
3EC0
3F80
3F00
1C00
ENDCHAR
STARTCHAR uni019D
ENCODING 413
SWIDTH 741 0
DWIDTH 25 0
BBX 32 32 -3 -8
BITMAP
007F80FF
001F8038
001F8038
001FC038
001FC030
001FE030
0033E030
0033E030
0031F060
0031F060
0031F860
0060F860
0060F860
00607CC0
00607CC0
00607EC0
00C03EC0
00F03EC0
01F01F80
01F01F80
01F01F80
01E00F80
03E00F80
03E00700
03E00000
03C00000
03C00000
47C00000
E7800000
F7000000
FF000000
3C000000
ENDCHAR
STARTCHAR uni019F
ENCODING 415
SWIDTH 761 0
DWIDTH 25 0
BBX 23 24 4 0
BITMAP
001E00
00FFC0
03E0F0
07C0F8
0FC078
1F807C
3F007C
3F007C
7E007E
7E007E
7E007E
FFFFFE
FFFFFE
FC00FC
FC00FC
FC00FC
FC01F8
7C01F8
7C03F0
3C03E0
3E07C0
1F0F80
07FF00
00F800
ENDCHAR
STARTCHAR Ohorn
ENCODING 416
SWIDTH 761 0
DWIDTH 25 0
BBX 28 24 4 0
BITMAP
001E00C0
00FFC1E0
03E0F1F0
07C0F9F0
0FC079E0
1F807CE0
3F007DC0
3F007DC0
7E007F80
7E007E00
7E007E00
FE007E00
FC00FE00
FC00FC00
FC00FC00
FC00FC00
FC01F800
7C01F800
7C03F000
3C03E000
3E07C000
1F0F8000
07FF0000
00F80000
ENDCHAR
STARTCHAR ohorn
ENCODING 417
SWIDTH 562 0
DWIDTH 19 0
BBX 23 17 2 0
BITMAP
00F818
07FF3C
0FCFBE
1F07BE
3F07FC
3E07DC
7C07F8
7C0FF8
FC0FF0
F80FC0
F80F80
F81F00
F83F00
783E00
787C00
3FF800
07C000
ENDCHAR
STARTCHAR Uhorn
ENCODING 431
SWIDTH 776 0
DWIDTH 26 0
BBX 29 24 5 0
BITMAP
7FE3FFE0
1F007CF0
1F007CF8
1F00FCF8
1F00F8F0
3E00F870
3E00F8E0
3E00F8E0
3E01F1C0
3E01F100
7C01F200
7C01F000
7C03F000
7C03E000
F803E000
F803E000
F807C000
F807C000
F807C000
F80F8000
780F0000
7C1F0000
1FFC0000
03E00000
ENDCHAR
STARTCHAR uhorn
ENCODING 432
SWIDTH 634 0
DWIDTH 21 0
BBX 24 17 3 0
BITMAP
0703CC
FF07DE
3F07DF
1E079F
3E0F9E
3E0F8E
3E0F9C
3C1F1C
7C1F38
7C3F20
7C7F40
785E20
F89E60
F93EC0
FF3F80
FC3F00
700C00
ENDCHAR
STARTCHAR uni01B5
ENCODING 437
SWIDTH 618 0
DWIDTH 21 0
BBX 25 24 0 0
BITMAP
01FFFF80
01FFFF00
03C07F00
03007E00
0300FC00
0201F800
0203F000
0007E000
000FE000
000FC000
001F8000
07FFF000
07FFF000
00FC0000
01F80000
01F80000
03F00000
07E00C00
0FC01800
1F801800
3F003800
3F00F000
7FFFF000
FFFFF000
ENDCHAR
STARTCHAR uni01B6
ENCODING 438
SWIDTH 466 0
DWIDTH 16 0
BBX 17 17 1 0
BITMAP
07FF80
0FFF00
0FFE00
181C00
103800
307000
00E000
7FFF00
7FFF00
070100
0E0100
1C0300
3F8600
7FFE00
7FFE00
E1FC00
E03800
ENDCHAR
STARTCHAR uni01BB
ENCODING 443
SWIDTH 560 0
DWIDTH 19 0
BBX 19 23 1 0
BITMAP
007C00
01FF80
07E7C0
07C3C0
0F83E0
0F83E0
0703E0
0207E0
0007E0
000FC0
FFFFE0
FFFFE0
007E00
00F800
01E000
038000
0F0000
1E0080
3C0180
7FFF80
7FFF00
FFFF00
FFFF00
ENDCHAR
STARTCHAR uni01BC
ENCODING 444
SWIDTH 560 0
DWIDTH 19 0
BBX 19 23 2 0
BITMAP
03FFE0
07FFE0
07FFC0
07FF80
060000
060000
0E0000
0C0000
0C0000
0CF800
0FFE00
1C3F00
081F80
000F80
000F80
000F80
300F80
780F00
F81F00
7C1E00
7C3E00
3FF800
07C000
ENDCHAR
STARTCHAR uni01C0
ENCODING 448
SWIDTH 265 0
DWIDTH 9 0
BBX 3 24 5 0
BITMAP
E0
E0
E0
E0
E0
E0
E0
E0
E0
E0
E0
E0
E0
E0
E0
E0
E0
E0
E0
E0
E0
E0
E0
E0
ENDCHAR
STARTCHAR uni01C2
ENCODING 450
SWIDTH 600 0
DWIDTH 20 0
BBX 16 24 4 -4
BITMAP
01C0
01C0
01C0
01C0
01C0
01C0
01C0
FFFF
FFFF
FFFF
01C0
01C0
01C0
01C0
FFFF
FFFF
FFFF
01C0
01C0
01C0
01C0
01C0
01C0
01C0
ENDCHAR
STARTCHAR uni01C3
ENCODING 451
SWIDTH 285 0
DWIDTH 10 0
BBX 10 24 2 0
BITMAP
0380
07C0
0FC0
0F80
0F80
0F80
0F00
0F00
0F00
0E00
0E00
1E00
1C00
1C00
1800
1800
0000
0000
3000
7C00
FC00
FC00
7800
3000
ENDCHAR
STARTCHAR uni01CD
ENCODING 461
SWIDTH 634 0
DWIDTH 21 0
BBX 23 33 -1 0
BITMAP
002008
00701C
003830
001CE0
001FC0
000F80
000700
000200
000000
0003E0
0003E0
0007E0
0007E0
000FE0
000FE0
001BE0
001BE0
0033E0
0031E0
0061F0
0061F0
00C1F0
00C1F0
01FFF0
03FFF0
0301F0
0701F0
0601F0
0E01F0
0C01F0
1C00F8
3C01F8
FF07FE
ENDCHAR
STARTCHAR uni01CE
ENCODING 462
SWIDTH 596 0
DWIDTH 20 0
BBX 19 26 2 0
BITMAP
020080
0701C0
038300
01CE00
01FC00
00F800
007000
002000
000000
0073C0
03FFC0
07C7C0
0F87C0
1F0780
3E0F80
3E0F80
3C1F00
7C1F00
7C3F00
F83F00
F85E20
F89E60
F9BEC0
FF3F80
7E3F00
301C00
ENDCHAR
STARTCHAR uni01CF
ENCODING 463
SWIDTH 386 0
DWIDTH 13 0
BBX 16 33 2 0
BITMAP
0802
1C07
0E0C
0738
07F0
03E0
01C0
0080
0000
07FE
01F0
01F0
01F0
01E0
03E0
03E0
03E0
03E0
03C0
07C0
07C0
07C0
07C0
0780
0F80
0F80
0F80
0F80
0F00
1F00
1F00
1F00
FFC0
ENDCHAR
STARTCHAR uni01D0
ENCODING 464
SWIDTH 339 0
DWIDTH 11 0
BBX 13 26 2 0
BITMAP
4010
E038
7060
39C0
3F80
1F00
0E00
0400
0000
03C0
3F80
5F80
0F80
0F00
1F00
1F00
1F00
1E00
3E00
3E00
3C40
7CC0
7D80
7F00
7E00
3800
ENDCHAR
STARTCHAR uni01D1
ENCODING 465
SWIDTH 761 0
DWIDTH 25 0
BBX 23 33 4 0
BITMAP
010040
0380E0
01C180
00E700
00FE00
007C00
003800
001000
000000
001E00
00FFC0
03E0F0
07C0F8
0FC078
1F807C
3F007C
3F007C
7E007E
7E007E
7E007E
FE007E
FC00FE
FC00FC
FC00FC
FC00FC
FC01F8
7C01F8
7C03F0
3C03E0
3E07C0
1F0F80
07FF00
00F800
ENDCHAR
STARTCHAR uni01D2
ENCODING 466
SWIDTH 562 0
DWIDTH 19 0
BBX 18 26 2 0
BITMAP
040100
0E0380
070600
039C00
03F800
01F000
00E000
004000
000000
00F800
07FF00
0FCF80
1F0780
3F07C0
3E07C0
7C07C0
7C0FC0
FC0FC0
F80F80
F80F80
F81F00
F83F00
783E00
787C00
3FF800
07C000
ENDCHAR
STARTCHAR uni01D3
ENCODING 467
SWIDTH 776 0
DWIDTH 26 0
BBX 25 33 5 0
BITMAP
00802000
01C07000
00E0C000
00738000
007F0000
003E0000
001C0000
00080000
00000000
7FE3FF80
1F007C00
1F007C00
1F00FC00
1F00F800
3E00F800
3E00F800
3E00F800
3E01F000
3E01F000
7C01F000
7C01F000
7C03F000
7C03E000
F803E000
F803E000
F807C000
F807C000
F807C000
F80F8000
780F0000
7C1F0000
1FFC0000
03E00000
ENDCHAR
STARTCHAR uni01D4
ENCODING 468
SWIDTH 634 0
DWIDTH 21 0
BBX 19 26 3 0
BITMAP
040100
0E0380
070600
039C00
03F800
01F000
00E000
004000
000000
0703C0
FF07C0
3F07C0
1E0780
3E0F80
3E0F80
3E0F80
3C1F00
7C1F00
7C3F00
7C7F00
785E20
F89E60
F93EC0
FF3F80
FC3F00
700C00
ENDCHAR
STARTCHAR uni01D5
ENCODING 469
SWIDTH 776 0
DWIDTH 26 0
BBX 25 32 5 0
BITMAP
01FFC000
01FFC000
00000000
00E0E000
01F1F000
01F1F000
01F1F000
00E0E000
7FF1FF80
1F807C00
1F807C00
1F007C00
1F00F800
3F00F800
3F00F800
3E00F800
3E00F000
3E01F000
7E01F000
7C01F000
7C01F000
7C01E000
FC03E000
F803E000
F803C000
F807C000
F807C000
F8078000
7C0F8000
7E1F0000
1FFC0000
03F00000
ENDCHAR
STARTCHAR uni01D6
ENCODING 470
SWIDTH 634 0
DWIDTH 21 0
BBX 19 27 3 0
BITMAP
07FF00
07FF00
000000
038380
07C7C0
07C7C0
07C7C0
038380
000000
000000
0703C0
FF07C0
3F07C0
1E0780
3E0F80
3E0F80
3E0F80
3C1F00
7C1F00
7C3F00
7C7F00
785E20
F89E60
F93EC0
FF3F80
FC3F00
700C00
ENDCHAR
STARTCHAR uni01D7
ENCODING 471
SWIDTH 776 0
DWIDTH 26 0
BBX 25 38 5 0
BITMAP
00004000
0001E000
0003E000
0007C000
000F8000
001E0000
00380000
00200000
00000000
00E0E000
01F1F000
01F1F000
01F1F000
00E0E000
7FF1FF80
1F807C00
1F807C00
1F007C00
1F00F800
3F00F800
3F00F800
3E00F800
3E00F000
3E01F000
7E01F000
7C01F000
7C01F000
7C01E000
FC03E000
F803E000
F803C000
F807C000
F807C000
F8078000
7C0F8000
7E1F0000
1FFC0000
03F00000
ENDCHAR
STARTCHAR uni01D8
ENCODING 472
SWIDTH 634 0
DWIDTH 21 0
BBX 19 33 3 0
BITMAP
000100
000780
000F80
001F00
003E00
007800
00E000
008000
000000
038380
07C7C0
07C7C0
07C7C0
038380
000000
000000
0703C0
FF07C0
3F07C0
1E0780
3E0F80
3E0F80
3E0F80
3C1F00
7C1F00
7C3F00
7C7F00
785E20
F89E60
F93EC0
FF3F80
FC3F00
700C00
ENDCHAR
STARTCHAR uni01D9
ENCODING 473
SWIDTH 776 0
DWIDTH 26 0
BBX 25 38 5 0
BITMAP
00802000
01C07000
00E0C000
00738000
007F0000
003E0000
001C0000
00080000
00000000
00E0E000
01F1F000
01F1F000
01F1F000
00E0E000
7FF1FF80
1F807C00
1F807C00
1F007C00
1F00F800
3F00F800
3F00F800
3E00F800
3E00F000
3E01F000
7E01F000
7C01F000
7C01F000
7C01E000
FC03E000
F803E000
F803C000
F807C000
F807C000
F8078000
7C0F8000
7E1F0000
1FFC0000
03F00000
ENDCHAR
STARTCHAR uni01DA
ENCODING 474
SWIDTH 634 0
DWIDTH 21 0
BBX 19 33 3 0
BITMAP
020080
0701C0
038300
01CE00
01FC00
00F800
007000
002000
000000
038380
07C7C0
07C7C0
07C7C0
038380
000000
000000
0703C0
FF07C0
3F07C0
1E0780
3E0F80
3E0F80
3E0F80
3C1F00
7C1F00
7C3F00
7C7F00
785E20
F89E60
F93EC0
FF3F80
FC3F00
700C00
ENDCHAR
STARTCHAR uni01DB
ENCODING 475
SWIDTH 776 0
DWIDTH 26 0
BBX 25 38 5 0
BITMAP
00800000
01E00000
01F00000
00F80000
007C0000
001E0000
00070000
00010000
00000000
00E0E000
01F1F000
01F1F000
01F1F000
00E0E000
7FF1FF80
1F807C00
1F807C00
1F007C00
1F00F800
3F00F800
3F00F800
3E00F800
3E00F000
3E01F000
7E01F000
7C01F000
7C01F000
7C01E000
FC03E000
F803E000
F803C000
F807C000
F807C000
F8078000
7C0F8000
7E1F0000
1FFC0000
03F00000
ENDCHAR
STARTCHAR uni01DC
ENCODING 476
SWIDTH 634 0
DWIDTH 21 0
BBX 19 33 3 0
BITMAP
020000
078000
07C000
03E000
01F000
007800
001C00
000400
000000
038380
07C7C0
07C7C0
07C7C0
038380
000000
000000
0703C0
FF07C0
3F07C0
1E0780
3E0F80
3E0F80
3E0F80
3C1F00
7C1F00
7C3F00
7C7F00
785E20
F89E60
F93EC0
FF3F80
FC3F00
700C00
ENDCHAR
STARTCHAR uni01DD
ENCODING 477
SWIDTH 476 0
DWIDTH 16 0
BBX 16 17 2 0
BITMAP
00F8
07FC
1C3E
101F
301F
601F
003F
03FF
1F9E
3E3E
783E
F83C
F07C
F0F8
F1E0
7FC0
0C00
ENDCHAR
STARTCHAR uni01DE
ENCODING 478
SWIDTH 634 0
DWIDTH 21 0
BBX 23 32 0 0
BITMAP
007FF0
007FF0
000000
00381C
007C3E
007C3E
007C3E
00381C
0003C0
0003C0
0007C0
000FC0
000FC0
001FC0
0017E0
0037E0
0027E0
0067E0
0047E0
00C3E0
0083E0
0183E0
01FFE0
03FFE0
0201E0
0601F0
0E01F0
0C01F0
1C01F0
1801F0
3801F0
FE07FC
ENDCHAR
STARTCHAR uni01DF
ENCODING 479
SWIDTH 596 0
DWIDTH 20 0
BBX 19 27 2 0
BITMAP
03FF80
03FF80
000000
01C1C0
03E3E0
03E3E0
03E3E0
01C1C0
000000
000000
0073C0
03FFC0
07C7C0
0F87C0
1F0780
3E0F80
3E0F80
3C1F00
7C1F00
7C3F00
F83F00
F85E20
F89E60
F9BEC0
FF3F80
7E3F00
301C00
ENDCHAR
STARTCHAR uni01E0
ENCODING 480
SWIDTH 634 0
DWIDTH 21 0
BBX 23 33 -1 0
BITMAP
00FFE0
00FFE0
000000
000700
000F80
000F80
000F80
000700
000000
0003E0
0003E0
0007E0
0007E0
000FE0
000FE0
001BE0
001BE0
0033E0
0031E0
0061F0
0061F0
00C1F0
00C1F0
01FFF0
03FFF0
0301F0
0701F0
0601F0
0E01F0
0C01F0
1C00F8
3C01F8
FF07FE
ENDCHAR
STARTCHAR uni01E1
ENCODING 481
SWIDTH 596 0
DWIDTH 20 0
BBX 19 26 2 0
BITMAP
07FF00
07FF00
000000
007000
00F800
00F800
00F800
007000
000000
0073C0
03FFC0
07C7C0
0F87C0
1F0780
3E0F80
3E0F80
3C1F00
7C1F00
7C3F00
F83F00
F85E20
F89E60
F9BEC0
FF3F80
7E3F00
301C00
ENDCHAR
STARTCHAR uni01E2
ENCODING 482
SWIDTH 890 0
DWIDTH 30 0
BBX 35 27 -2 0
BITMAP
0000FFE000
0000FFE000
0000000000
0003FFFFE0
0001FFFFE0
00006F81E0
0000DF00C0
0001DF00C0
00019F00C0
00031F00C0
00061F0000
00063E0600
000C3E0600
00183E0C00
003FFFFC00
003FFFFC00
00707C0C00
00E07C0C00
00C07C0800
01C07C0000
0380F80180
0700F80300
0700F80700
0E00F80F00
1C00F81E00
3C01FFFE00
FF8FFFFE00
ENDCHAR
STARTCHAR uni01E3
ENCODING 483
SWIDTH 789 0
DWIDTH 26 0
BBX 26 20 2 0
BITMAP
007FF000
007FF000
00000000
00798C00
01FFBF80
07C7E3C0
0F87C3C0
1F07C3C0
1E0F87C0
3E0F8780
3C0F8F00
7C1F1E00
783FF000
783F8000
F85F0180
F8DF0100
F98F0300
FF0F8E00
7E07F800
3803C000
ENDCHAR
STARTCHAR uni01E4
ENCODING 484
SWIDTH 726 0
DWIDTH 24 0
BBX 28 24 4 0
BITMAP
000FC000
00FFF800
01F07C00
07C03C00
0FC01C00
1F801C00
1F001C00
3F000800
3E000000
7E000000
7E000000
7C000000
7C000000
FC000000
FC0FFE00
FC01F000
FC01F000
7C01F000
7C03F000
7E07FFF0
3E07FFF0
1F07E000
07FF8000
00FC0000
ENDCHAR
STARTCHAR uni01E5
ENCODING 485
SWIDTH 522 0
DWIDTH 17 0
BBX 21 25 0 -8
BITMAP
003838
01FFF0
03E3F0
07C3C0
0FC3E0
0F83E0
0F87C0
0F87C0
0F8F80
07FF00
03F800
030000
0F0000
1FE000
0FF800
07FE00
07FF00
3C3F80
FFFFF8
FFFFF8
F80780
780700
7E0E00
3FFC00
07F000
ENDCHAR
STARTCHAR Gcaron
ENCODING 486
SWIDTH 726 0
DWIDTH 24 0
BBX 23 33 4 0
BITMAP
008020
01C070
00E0C0
007380
007F00
003E00
001C00
000800
000000
000FC0
00FFF8
01F07C
07C03C
0FC01C
1F801C
1F001C
3F0008
3E0000
7E0000
7E0000
7C0000
7C0000
FC0000
FC0FFE
FC01F0
FC01F0
7C01F0
7C03F0
7E03E0
3E03E0
1F07E0
07FF80
00FC00
ENDCHAR
STARTCHAR gcaron
ENCODING 487
SWIDTH 522 0
DWIDTH 17 0
BBX 21 34 0 -8
BITMAP
010040
0380E0
01C180
00E700
00FE00
007C00
003800
001000
000000
003838
01FFF0
03E3F0
07C3C0
0FC3E0
0F83E0
0F87C0
0F87C0
0F8F80
07FF00
03F800
030000
0F0000
1FE000
0FF800
07FE00
07FF00
3C3F80
780F80
F80780
F80780
780700
7E0E00
3FFC00
07F000
ENDCHAR
STARTCHAR uni01E8
ENCODING 488
SWIDTH 688 0
DWIDTH 23 0
BBX 28 33 1 0
BITMAP
00200800
00701C00
00383000
001CE000
001FC000
000F8000
00070000
00020000
00000000
07FF3FF0
01F80F80
01F81E00
01F03C00
01F07800
01F0F000
01F1C000
03E38000
03E30000
03E60000
03EE0000
03FE0000
07FF0000
07DF0000
07DF8000
079F8000
078FC000
0F8FC000
0F87E000
0F87E000
0F07F000
1F03F800
1F01FC00
FFE01E00
ENDCHAR
STARTCHAR uni01E9
ENCODING 489
SWIDTH 570 0
DWIDTH 19 0
BBX 19 34 2 0
BITMAP
100400
380E00
1C1800
0E7000
0FE000
07C000
038000
010000
000000
01E000
1FC000
07C000
07C000
07C000
078000
0F8000
0F8000
0F80C0
0F03E0
1F07E0
1F09E0
1F10C0
1E2000
1E7000
3EF000
3EF000
3CF000
3CF800
7C7840
7C78C0
7C7C80
783F80
F83F00
F00E00
ENDCHAR
STARTCHAR uni01EA
ENCODING 490
SWIDTH 761 0
DWIDTH 25 0
BBX 23 32 4 -8
BITMAP
001E00
00FFC0
03E0F0
07C0F8
0FC078
1F807C
3F007C
3F007C
7E007E
7E007E
7E007E
FE007E
FC00FE
FC00FC
FC00FC
FC00FC
FC01F8
7C01F8
7C03F0
3C03E0
3E07C0
1F0F80
07FF00
00F800
003000
006000
00E000
00C000
01C000
01C000
01FC00
00F000
ENDCHAR
STARTCHAR uni01EB
ENCODING 491
SWIDTH 562 0
DWIDTH 19 0
BBX 18 25 2 -8
BITMAP
00F800
07FF00
0FCF80
1F0780
3F07C0
3E07C0
7C07C0
7C0FC0
FC0FC0
F80F80
F80F80
F81F00
F83F00
783E00
787C00
3FF800
07C000
018000
030000
070000
060000
0E0000
0E0000
0FE000
078000
ENDCHAR
STARTCHAR uni01EC
ENCODING 492
SWIDTH 761 0
DWIDTH 25 0
BBX 23 35 4 -8
BITMAP
03FF80
03FF80
000000
001E00
00FFC0
03E0F0
07C0F8
0FC078
1F807C
3F007C
3F007C
7E007E
7E007E
7E007E
FE007E
FC00FE
FC00FC
FC00FC
FC00FC
FC01F8
7C01F8
7C03F0
3C03E0
3E07C0
1F0F80
07FF00
00F800
003000
006000
00E000
00C000
01C000
01C000
01FC00
00F000
ENDCHAR
STARTCHAR uni01ED
ENCODING 493
SWIDTH 562 0
DWIDTH 19 0
BBX 18 28 2 -8
BITMAP
0FFE00
0FFE00
000000
00F800
07FF00
0FCF80
1F0780
3F07C0
3E07C0
7C07C0
7C0FC0
FC0FC0
F80F80
F80F80
F81F00
F83F00
783E00
787C00
3FF800
07C000
018000
030000
070000
060000
0E0000
0E0000
0FE000
078000
ENDCHAR
STARTCHAR uni01F0
ENCODING 496
SWIDTH 333 0
DWIDTH 11 0
BBX 17 34 -2 -8
BITMAP
040100
0E0380
070600
039C00
03F800
01F000
00E000
004000
000000
000E00
01FC00
02FC00
007C00
007C00
007C00
007800
00F800
00F800
00F800
00F000
01F000
01F000
01F000
01E000
03E000
03E000
03E000
03C000
03C000
47C000
E78000
F70000
FF0000
3C0000
ENDCHAR
STARTCHAR uni01F4
ENCODING 500
SWIDTH 726 0
DWIDTH 24 0
BBX 23 33 4 0
BITMAP
000040
0001E0
0003E0
0007C0
000F80
001E00
003800
002000
000000
000FC0
00FFF8
01F07C
07C03C
0FC01C
1F801C
1F001C
3F0008
3E0000
7E0000
7E0000
7C0000
7C0000
FC0000
FC0FFE
FC01F0
FC01F0
7C01F0
7C03F0
7E03E0
3E03E0
1F07E0
07FF80
00FC00
ENDCHAR
STARTCHAR uni01F5
ENCODING 501
SWIDTH 522 0
DWIDTH 17 0
BBX 21 34 0 -8
BITMAP
000080
0003C0
0007C0
000F80
001F00
003C00
007000
004000
000000
003838
01FFF0
03E3F0
07C3C0
0FC3E0
0F83E0
0F87C0
0F87C0
0F8F80
07FF00
03F800
030000
0F0000
1FE000
0FF800
07FE00
07FF00
3C3F80
780F80
F80780
F80780
780700
7E0E00
3FFC00
07F000
ENDCHAR
STARTCHAR uni01F8
ENCODING 504
SWIDTH 741 0
DWIDTH 25 0
BBX 28 33 1 0
BITMAP
00400000
00F00000
00F80000
007C0000
003E0000
000F0000
00038000
00008000
00000000
07F80FF0
01F80380
01F80380
01FC0380
01FC0300
01FE0300
033E0300
033E0300
031F0600
031F0600
031F8600
060F8600
060F8600
0607CC00
0607CC00
0607EC00
0C03EC00
0C03EC00
0C01F800
0C01F800
1C01F800
1C00F800
1C00F800
FF007000
ENDCHAR
STARTCHAR uni01F9
ENCODING 505
SWIDTH 635 0
DWIDTH 21 0
BBX 20 26 2 0
BITMAP
020000
078000
07C000
03E000
01F000
007800
001C00
000400
000000
07C1C0
7F87E0
0F9FE0
0F93E0
0F23E0
1F43C0
1F87C0
1E87C0
1F0780
3F0F80
3E0F80
3E0F10
3E1F30
7C1F60
7C1FC0
7C1F80
F80E00
ENDCHAR
STARTCHAR Aringacute
ENCODING 506
SWIDTH 634 0
DWIDTH 21 0
BBX 22 38 0 0
BITMAP
000020
0000F0
0001F0
0003E0
0007C0
000F00
001C00
001000
000000
0003C0
000620
000430
000C30
000C60
0007C0
0007C0
0007C0
000FC0
000FC0
001FC0
0037C0
0037E0
0067E0
0063E0
00C3E0
00C3E0
0183E0
0183E0
03FFE0
03FFE0
0701E0
0601F0
0E01F0
0C01F0
1C01F0
1801F0
3801F0
FE07FC
ENDCHAR
STARTCHAR aringacute
ENCODING 507
SWIDTH 596 0
DWIDTH 20 0
BBX 19 34 2 0
BITMAP
000100
000780
000F80
001F00
003E00
007800
00E000
008000
000000
003C00
006200
004300
00C300
00C300
004600
003800
000000
0073C0
03FFC0
07C7C0
0F87C0
1F0780
3E0F80
3E0F80
3C1F00
7C1F00
7C3F00
F83F00
F85E20
F89E60
F9BEC0
FF3F80
7E3F00
301C00
ENDCHAR
STARTCHAR AEacute
ENCODING 508
SWIDTH 890 0
DWIDTH 30 0
BBX 35 33 -2 0
BITMAP
0000002000
000000F000
000001F000
000003E000
000007C000
00000F0000
00001C0000
0000100000
0000000000
0003FFFFE0
0001FFFFE0
00006F81E0
0000DF00C0
0001DF00C0
00019F00C0
00031F00C0
00061F0000
00063E0600
000C3E0600
00183E0C00
003FFFFC00
003FFFFC00
00707C0C00
00E07C0C00
00C07C0800
01C07C0000
0380F80180
0700F80300
0700F80700
0E00F80F00
1C00F81E00
3C01FFFE00
FF8FFFFE00
ENDCHAR
STARTCHAR aeacute
ENCODING 509
SWIDTH 789 0
DWIDTH 26 0
BBX 26 26 2 0
BITMAP
00002000
0000F000
0001F000
0003E000
0007C000
000F0000
001C0000
00100000
00000000
00798C00
01FFBF80
07C7E3C0
0F87C3C0
1F07C3C0
1E0F87C0
3E0F8780
3C0F8F00
7C1F1E00
783FF000
783F8000
F85F0180
F8DF0100
F98F0300
FF0F8E00
7E07F800
3803C000
ENDCHAR
STARTCHAR Oslashacute
ENCODING 510
SWIDTH 761 0
DWIDTH 25 0
BBX 23 35 4 -1
BITMAP
000040
0001E0
0003E0
0007C0
000F80
001E00
003800
002000
000000
000008
001E1C
01FFF8
07E0F0
0FC078
1F807C
1F80FC
3F01BC
3E033E
7E073E
7C0E3E
7C0C3E
FC183E
F8307E
F8607C
F8C07C
F9C0FC
F980F8
7B01F8
7E01F8
7C03F0
3C07E0
1E0FC0
3FFF00
61F800
200000
ENDCHAR
STARTCHAR oslashacute
ENCODING 511
SWIDTH 562 0
DWIDTH 19 0
BBX 18 30 2 -2
BITMAP
000200
000F00
001F00
003E00
007C00
00F000
01C000
010000
000000
000100
000300
00F300
07FE00
0F8700
1F0F80
3E1F80
3E37C0
7C27C0
7C6FC0
7CCF80
F88F80
F98F80
FB1F00
FE1F00
7C3E00
7C7C00
3FF800
1FC000
300000
200000
ENDCHAR
STARTCHAR Scommaaccent
ENCODING 536
SWIDTH 551 0
DWIDTH 18 0
BBX 18 37 2 -13
BITMAP
003E00
01FF80
0783C0
0F81C0
0F01C0
1F0080
1F0080
1F8000
1FC000
0FF000
0FF800
07FC00
01FF00
00FF00
007F80
401F80
401F80
600F80
E00F80
F00F00
F01F00
7C3E00
3FF800
03C000
000000
004000
00E000
01F000
01F000
01F000
00E000
00E000
01C000
01C000
038000
070000
020000
ENDCHAR
STARTCHAR scommaaccent
ENCODING 537
SWIDTH 417 0
DWIDTH 14 0
BBX 15 30 1 -13
BITMAP
01F0
07FC
0E3C
1E1E
1E0C
1F00
0F80
0FC0
07F0
03F0
01F0
20F8
7078
F878
7C70
3FE0
0F80
0000
0100
0380
07C0
07C0
07C0
0380
0380
0700
0700
0E00
1C00
0800
ENDCHAR
STARTCHAR Tcommaaccent
ENCODING 538
SWIDTH 616 0
DWIDTH 21 0
BBX 21 37 4 -13
BITMAP
3FFFF8
7FFFF8
78FC78
70F838
60F830
40F830
C0F810
01F800
01F000
01F000
01F000
01F000
03E000
03E000
03E000
03E000
07E000
07C000
07C000
07C000
07C000
0FC000
0FC000
7FF000
000000
008000
01C000
03E000
03E000
03E000
01C000
01C000
038000
038000
070000
0E0000
040000
ENDCHAR
STARTCHAR tcommaaccent
ENCODING 539
SWIDTH 359 0
DWIDTH 12 0
BBX 12 35 3 -13
BITMAP
00C0
0380
0F80
0F80
0F00
7FF0
FFF0
1F00
1E00
3E00
3E00
3E00
3C00
7C00
7C00
7C00
78C0
F880
F900
FE00
FC00
3800
0000
0800
1C00
3E00
3E00
3E00
1C00
1C00
3800
3800
7000
E000
4000
ENDCHAR
STARTCHAR uni021E
ENCODING 542
SWIDTH 800 0
DWIDTH 27 0
BBX 29 33 1 0
BITMAP
00100400
00380E00
001C1800
000E7000
000FE000
0007C000
00038000
00010000
00000000
07FE3FF8
01F807C0
01F007C0
01F007C0
01F00F80
03F00F80
03E00F80
03E00F80
03E00F80
03E01F00
07E01F00
07FFFF00
07FFFF00
07C01F00
07C03E00
0FC03E00
0F803E00
0F803E00
0F803E00
0F807C00
1F807C00
1F007C00
1F00FC00
FFE3FF00
ENDCHAR
STARTCHAR uni021F
ENCODING 543
SWIDTH 629 0
DWIDTH 21 0
BBX 19 34 3 0
BITMAP
100400
380E00
1C1800
0E7000
0FE000
07C000
038000
010000
000000
01C000
3FC000
0FC000
078000
0F8000
0F8000
0F8000
0F0000
1F0380
1F1FC0
1F3FC0
1E67C0
1E47C0
3E8780
3F0F80
3F0F80
3E0F00
7E1F00
7C1F00
7C1E20
7C3E40
783EC0
F83F80
F83F00
F01C00
ENDCHAR
STARTCHAR uni0226
ENCODING 550
SWIDTH 634 0
DWIDTH 21 0
BBX 23 30 -1 0
BITMAP
000700
000F80
000F80
000F80
000700
000000
0003E0
0003E0
0007E0
0007E0
000FE0
000FE0
001BE0
001BE0
0033E0
0031E0
0061F0
0061F0
00C1F0
00C1F0
01FFF0
03FFF0
0301F0
0701F0
0601F0
0E01F0
0C01F0
1C00F8
3C01F8
FF07FE
ENDCHAR
STARTCHAR uni0227
ENCODING 551
SWIDTH 596 0
DWIDTH 20 0
BBX 19 23 2 0
BITMAP
007000
00F800
00F800
00F800
007000
000000
0073C0
03FFC0
07C7C0
0F87C0
1F0780
3E0F80
3E0F80
3C1F00
7C1F00
7C3F00
F83F00
F85E20
F89E60
F9BEC0
FF3F80
7E3F00
301C00
ENDCHAR
STARTCHAR uni0228
ENCODING 552
SWIDTH 622 0
DWIDTH 21 0
BBX 23 32 1 -8
BITMAP
07FFFE
01FFFE
01F81E
01F00C
01F00C
01F00C
01F00C
03F000
03E060
03E060
03E0C0
03FFC0
07FFC0
07C0C0
07C0C0
07C080
07C000
0F8018
0F8030
0F8030
0F8070
1F80E0
1FFFE0
FFFFE0
003000
006000
00F000
00F800
003800
003800
007000
01E000
ENDCHAR
STARTCHAR uni0229
ENCODING 553
SWIDTH 476 0
DWIDTH 16 0
BBX 16 25 2 -8
BITMAP
0030
03FE
078F
1F0F
3E0F
3C1F
7C1E
7C7C
79F8
FFC0
FC00
F806
F80C
F808
7C38
3FE0
1F00
0300
0600
0F00
0F80
0380
0380
0700
1E00
ENDCHAR
STARTCHAR uni022A
ENCODING 554
SWIDTH 761 0
DWIDTH 25 0
BBX 23 32 4 0
BITMAP
01FFC0
01FFC0
000000
00E070
01F0F8
01F0F8
01F0F8
00E070
001E00
00FFC0
03E0F0
07C0F8
0FC078
1F807C
3F007C
3F007C
7E007E
7E007E
7E007E
FE007E
FC00FE
FC00FC
FC00FC
FC00FC
FC01F8
7C01F8
7C03F0
3C03E0
3E07C0
1F0F80
07FF00
00F800
ENDCHAR
STARTCHAR uni022B
ENCODING 555
SWIDTH 562 0
DWIDTH 19 0
BBX 19 27 2 0
BITMAP
03FF80
03FF80
000000
01C1C0
03E3E0
03E3E0
03E3E0
01C1C0
000000
000000
00F800
07FF00
0FCF80
1F0780
3F07C0
3E07C0
7C07C0
7C0FC0
FC0FC0
F80F80
F80F80
F81F00
F83F00
783E00
787C00
3FF800
07C000
ENDCHAR
STARTCHAR uni022C
ENCODING 556
SWIDTH 761 0
DWIDTH 25 0
BBX 23 32 4 0
BITMAP
01FFC0
01FFC0
000000
003808
007E18
00FFF0
0087F0
0181C0
001E00
00FFC0
03E0F0
07C0F8
0FC078
1F807C
3F007C
3F007C
7E007E
7E007E
7E007E
FE007E
FC00FE
FC00FC
FC00FC
FC00FC
FC01F8
7C01F8
7C03F0
3C03E0
3E07C0
1F0F80
07FF00
00F800
ENDCHAR
STARTCHAR uni022D
ENCODING 557
SWIDTH 562 0
DWIDTH 19 0
BBX 19 27 2 0
BITMAP
03FF80
03FF80
000000
000020
00F840
03FFC0
03FF80
021F00
040000
000000
00F800
07FF00
0FCF80
1F0780
3F07C0
3E07C0
7C07C0
7C0FC0
FC0FC0
F80F80
F80F80
F81F00
F83F00
783E00
787C00
3FF800
07C000
ENDCHAR
STARTCHAR uni022E
ENCODING 558
SWIDTH 761 0
DWIDTH 25 0
BBX 23 30 4 0
BITMAP
001C00
003E00
003E00
003E00
001C00
000000
001E00
00FFC0
03E0F0
07C0F8
0FC078
1F807C
3F007C
3F007C
7E007E
7E007E
7E007E
FE007E
FC00FE
FC00FC
FC00FC
FC00FC
FC01F8
7C01F8
7C03F0
3C03E0
3E07C0
1F0F80
07FF00
00F800
ENDCHAR
STARTCHAR uni022F
ENCODING 559
SWIDTH 562 0
DWIDTH 19 0
BBX 18 23 2 0
BITMAP
00E000
01F000
01F000
01F000
00E000
000000
00F800
07FF00
0FCF80
1F0780
3F07C0
3E07C0
7C07C0
7C0FC0
FC0FC0
F80F80
F80F80
F81F00
F83F00
783E00
787C00
3FF800
07C000
ENDCHAR
STARTCHAR uni0230
ENCODING 560
SWIDTH 761 0
DWIDTH 25 0
BBX 23 33 4 0
BITMAP
01FFC0
01FFC0
000000
001C00
003E00
003E00
003E00
001C00
000000
001E00
00FFC0
03E0F0
07C0F8
0FC078
1F807C
3F007C
3F007C
7E007E
7E007E
7E007E
FE007E
FC00FE
FC00FC
FC00FC
FC00FC
FC01F8
7C01F8
7C03F0
3C03E0
3E07C0
1F0F80
07FF00
00F800
ENDCHAR
STARTCHAR uni0231
ENCODING 561
SWIDTH 562 0
DWIDTH 19 0
BBX 18 26 2 0
BITMAP
0FFE00
0FFE00
000000
00E000
01F000
01F000
01F000
00E000
000000
00F800
07FF00
0FCF80
1F0780
3F07C0
3E07C0
7C07C0
7C0FC0
FC0FC0
F80F80
F80F80
F81F00
F83F00
783E00
787C00
3FF800
07C000
ENDCHAR
STARTCHAR uni0232
ENCODING 562
SWIDTH 622 0
DWIDTH 21 0
BBX 21 27 5 0
BITMAP
0FFE00
0FFE00
000000
FFCFF8
3E01E0
3E01C0
3E0380
1F0700
1F0600
1F0E00
1F0C00
0F1800
0F3800
0FB000
0FE000
07E000
07C000
07C000
078000
078000
078000
0F8000
0F8000
0F0000
0F0000
1F0000
FFE000
ENDCHAR
STARTCHAR uni0233
ENCODING 563
SWIDTH 489 0
DWIDTH 16 0
BBX 19 28 0 -8
BITMAP
07FF00
07FF00
000000
00C040
0FC1E0
3FC1E0
07C1C0
07C1C0
03C1C0
03C380
03C380
03C300
03E300
03E600
03E400
03EC00
01E800
01F800
01F000
01F000
01E000
01E000
01C000
618000
F10000
FB0000
FE0000
780000
ENDCHAR
STARTCHAR uni0250
ENCODING 592
SWIDTH 596 0
DWIDTH 20 0
BBX 19 17 2 0
BITMAP
070180
1F8FC0
3F9FE0
6FB3E0
CF23E0
8F43E0
1F83E0
1F87C0
1F07C0
1F0780
3E0F80
3E0F80
3C1F00
7C3E00
7C7C00
7FF800
79C000
ENDCHAR
STARTCHAR uni0259
ENCODING 601
SWIDTH 476 0
DWIDTH 16 0
BBX 16 17 2 0
BITMAP
00F8
07FC
1C3E
101F
301F
601F
003F
03FF
1F9E
3E3E
783E
F83C
F07C
F0F8
F1E0
7FC0
0C00
ENDCHAR
STARTCHAR uni025F
ENCODING 607
SWIDTH 348 0
DWIDTH 12 0
BBX 23 33 -3 -17
BITMAP
000070
0001FC
0003DE
00039E
000788
000780
000F80
000F00
000F00
000F00
001F00
001F00
001E00
001E00
003E00
003E00
003E00
003C00
007C00
007C00
007C00
007C00
00F800
0FFF00
0FFF00
00F800
00F000
01F000
61F000
F1E000
7BC000
7F8000
0E0000
ENDCHAR
STARTCHAR uni0265
ENCODING 613
SWIDTH 629 0
DWIDTH 21 0
BBX 19 25 3 -9
BITMAP
0701E0
1F83E0
3F83E0
6F83C0
4F87C0
8F07C0
1F07C0
1F0FC0
1E0F80
3E1F80
3E1F80
3C2F80
7C4F00
7CCF00
7F9F00
7F1F00
381F00
001E00
003E00
003E00
003E00
003C00
007E00
007F80
007000
ENDCHAR
STARTCHAR uni0275
ENCODING 629
SWIDTH 562 0
DWIDTH 19 0
BBX 18 17 2 0
BITMAP
00F800
07FF00
0FCF80
1F0780
3F07C0
3E07C0
7C07C0
FFFFC0
FFFFC0
F80F80
F80F80
F81F00
F83F00
783E00
787C00
3FF800
07C000
ENDCHAR
STARTCHAR uni0279
ENCODING 633
SWIDTH 440 0
DWIDTH 15 0
BBX 15 17 3 0
BITMAP
001E
003E
003E
007C
007C
007C
007C
00F8
00F8
00F8
01F8
01F0
33F0
7EF0
FCF0
F9FC
61E0
ENDCHAR
STARTCHAR uni0287
ENCODING 647
SWIDTH 359 0
DWIDTH 12 0
BBX 12 22 3 0
BITMAP
01C0
03F0
07F0
09F0
11F0
31E0
03E0
03E0
03E0
03C0
07C0
07C0
07C0
0780
0F80
FFF0
FFE0
0F00
1F00
1F00
1C00
3000
ENDCHAR
STARTCHAR uni0289
ENCODING 649
SWIDTH 634 0
DWIDTH 21 0
BBX 19 17 3 0
BITMAP
0703C0
FF07C0
3F07C0
1E0780
3E0F80
3E0F80
3E0F80
FFFFE0
FFFFE0
7C3F00
7C7F00
785E20
F89E60
F93EC0
FF3F80
FC3F00
700C00
ENDCHAR
STARTCHAR uni028C
ENCODING 652
SWIDTH 518 0
DWIDTH 17 0
BBX 15 17 4 0
BITMAP
0038
00FE
01FE
033E
063E
0C3E
183C
387C
387C
707C
7078
7078
F0F8
F0F8
F0F8
F0FE
61E0
ENDCHAR
STARTCHAR uni028D
ENCODING 653
SWIDTH 795 0
DWIDTH 27 0
BBX 25 17 4 0
BITMAP
00180700
007C1F80
00FE3F80
011E4F80
021E8F80
041E8F80
0C1D0F00
183F1F00
383E1F00
303E1F00
703C1E00
707C3E00
707C3E00
F07C3E00
F0783E00
F0F87F80
70F87800
ENDCHAR
STARTCHAR uni028E
ENCODING 654
SWIDTH 489 0
DWIDTH 16 0
BBX 19 25 0 0
BITMAP
0003C0
000FE0
001BE0
0011E0
0030C0
007000
00F000
00F000
01F000
01F000
03F000
02F000
06F800
04F800
0CF800
18F800
187800
387800
387800
707800
707C00
707C00
F07F80
F07E00
406000
ENDCHAR
STARTCHAR uni029E
ENCODING 670
SWIDTH 570 0
DWIDTH 19 0
BBX 19 25 2 -9
BITMAP
0E01E0
1F83E0
3F83C0
27C7C0
63C7C0
43C7C0
03E780
01E780
01EF80
01EF80
01CF00
008F00
611F00
F21F00
FC1F00
F81E00
603E00
003E00
003E00
003C00
007C00
007C00
007C00
007F00
00F000
ENDCHAR
STARTCHAR uni02BB
ENCODING 699
SWIDTH 246 0
DWIDTH 8 0
BBX 7 11 5 13
BITMAP
02
04
1C
38
38
70
78
F8
F8
78
30
ENDCHAR
STARTCHAR afii57929
ENCODING 700
SWIDTH 246 0
DWIDTH 8 0
BBX 7 11 4 13
BITMAP
18
3C
3E
3E
3C
1C
38
38
70
40
80
ENDCHAR
STARTCHAR afii64937
ENCODING 701
SWIDTH 246 0
DWIDTH 8 0
BBX 7 11 4 13
BITMAP
30
78
F8
F8
78
70
38
38
1C
04
02
ENDCHAR
STARTCHAR circumflex
ENCODING 710
SWIDTH 400 0
DWIDTH 13 0
BBX 13 8 4 17
BITMAP
0100
0380
07C0
0FE0
1CE0
3070
E038
4010
ENDCHAR
STARTCHAR caron
ENCODING 711
SWIDTH 400 0
DWIDTH 13 0
BBX 13 8 5 17
BITMAP
4010
E038
7060
39C0
3F80
1F00
0E00
0400
ENDCHAR
STARTCHAR uni02C8
ENCODING 712
SWIDTH 246 0
DWIDTH 8 0
BBX 5 11 6 13
BITMAP
30
78
F8
F0
F0
F0
E0
E0
C0
C0
C0
ENDCHAR
STARTCHAR macron
ENCODING 713
SWIDTH 400 0
DWIDTH 13 0
BBX 11 2 6 20
BITMAP
FFE0
FFE0
ENDCHAR
STARTCHAR uni02CA
ENCODING 714
SWIDTH 400 0
DWIDTH 13 0
BBX 9 8 7 17
BITMAP
0100
0780
0F80
1F00
3E00
7800
E000
8000
ENDCHAR
STARTCHAR uni02CB
ENCODING 715
SWIDTH 400 0
DWIDTH 13 0
BBX 9 8 5 17
BITMAP
4000
F000
F800
7C00
3E00
0F00
0380
0080
ENDCHAR
STARTCHAR uni02CD
ENCODING 717
SWIDTH 400 0
DWIDTH 13 0
BBX 11 2 6 -3
BITMAP
FFE0
FFE0
ENDCHAR
STARTCHAR uni02CE
ENCODING 718
SWIDTH 400 0
DWIDTH 13 0
BBX 9 8 5 -9
BITMAP
4000
F000
F800
7C00
3E00
0F00
0380
0080
ENDCHAR
STARTCHAR uni02CF
ENCODING 719
SWIDTH 400 0
DWIDTH 13 0
BBX 9 8 7 -9
BITMAP
0100
0780
0F80
1F00
3E00
7800
E000
8000
ENDCHAR
STARTCHAR breve
ENCODING 728
SWIDTH 400 0
DWIDTH 13 0
BBX 11 5 6 18
BITMAP
C060
E0E0
FFC0
7F80
3E00
ENDCHAR
STARTCHAR dotaccent
ENCODING 729
SWIDTH 402 0
DWIDTH 13 0
BBX 5 5 9 19
BITMAP
70
F8
F8
F8
70
ENDCHAR
STARTCHAR ring
ENCODING 730
SWIDTH 400 0
DWIDTH 13 0
BBX 8 7 7 18
BITMAP
3C
62
43
C3
C3
46
38
ENDCHAR
STARTCHAR ogonek
ENCODING 731
SWIDTH 350 0
DWIDTH 12 0
BBX 7 9 3 -8
BITMAP
04
18
30
70
60
E0
E0
FE
78
ENDCHAR
STARTCHAR tilde
ENCODING 732
SWIDTH 400 0
DWIDTH 13 0
BBX 14 5 4 19
BITMAP
0804
3F98
7FF8
47F0
8040
ENDCHAR
STARTCHAR hungarumlaut
ENCODING 733
SWIDTH 400 0
DWIDTH 13 0
BBX 11 7 6 18
BITMAP
18C0
38E0
39C0
71C0
6380
C300
8200
ENDCHAR
STARTCHAR uni02EE
ENCODING 750
SWIDTH 455 0
DWIDTH 15 0
BBX 14 11 4 13
BITMAP
1830
3C78
3E7C
3E7C
3C78
1C38
3870
3870
70E0
4080
8100
ENDCHAR
STARTCHAR uni037E
ENCODING 894
SWIDTH 280 0
DWIDTH 9 0
BBX 10 22 1 -5
BITMAP
0300
0780
0FC0
0FC0
0F80
0700
0000
0000
0000
0000
0800
1C00
3E00
3E00
3E00
1C00
1C00
3800
3800
7000
E000
4000
ENDCHAR
STARTCHAR tonos
ENCODING 900
SWIDTH 400 0
DWIDTH 13 0
BBX 9 8 7 17
BITMAP
0100
0780
0F80
1F00
3E00
7800
E000
8000
ENDCHAR
STARTCHAR dieresistonos
ENCODING 901
SWIDTH 400 0
DWIDTH 13 0
BBX 13 14 5 19
BITMAP
0010
0078
00F8
01F0
03E0
0780
0E00
0800
0000
3060
F8F8
F8F8
F8F8
3060
ENDCHAR
STARTCHAR anoteleia
ENCODING 903
SWIDTH 280 0
DWIDTH 9 0
BBX 6 6 3 5
BITMAP
30
7C
FC
FC
F8
30
ENDCHAR
STARTCHAR mu
ENCODING 956
SWIDTH 634 0
DWIDTH 21 0
BBX 21 25 1 -8
BITMAP
01C0F0
1FC1F0
07C1F0
07C1E0
0783E0
0783E0
0F83E0
0F87C0
0F07C0
0F0FC0
1F1FC0
1F1788
1E2798
1E4FB0
3FCFE0
3F8FC0
3C0380
300000
700000
700000
700000
700000
F00000
F00000
C00000
ENDCHAR
STARTCHAR uni1E00
ENCODING 7680
SWIDTH 634 0
DWIDTH 21 0
BBX 23 32 -1 -8
BITMAP
0003E0
0003E0
0007E0
0007E0
000FE0
000FE0
001BE0
001BE0
0033E0
0031E0
0061F0
0061F0
00C1F0
00C1F0
01FFF0
03FFF0
0301F0
0701F0
0601F0
0E01F0
0C01F0
1C00F8
3C01F8
FF07FE
000000
001E00
003100
002180
006180
006180
002300
001C00
ENDCHAR
STARTCHAR uni1E01
ENCODING 7681
SWIDTH 596 0
DWIDTH 20 0
BBX 19 25 2 -8
BITMAP
0073C0
03FFC0
07C7C0
0F87C0
1F0780
3E0F80
3E0F80
3C1F00
7C1F00
7C3F00
F83F00
F85E20
F89E60
F9BEC0
FF3F80
7E3F00
301C00
000000
01E000
031000
021800
061800
061800
023000
01C000
ENDCHAR
STARTCHAR uni1E02
ENCODING 7682
SWIDTH 680 0
DWIDTH 23 0
BBX 23 30 1 0
BITMAP
000E00
001F00
001F00
001F00
000E00
000000
07FFC0
01FFF8
01F8FC
01F03E
01F03E
01F03E
03F03E
03E03E
03E07C
03E078
03E1F0
07FF80
07FFE0
07C3F0
07C1F8
07C0F8
0FC0FC
0F80FC
0F80F8
0F81F8
0F81F8
1F87F0
1FFFC0
FFFE00
ENDCHAR
STARTCHAR uni1E03
ENCODING 7683
SWIDTH 586 0
DWIDTH 20 0
BBX 18 31 3 0
BITMAP
038000
07C000
07C000
07C000
038000
000000
01C000
3FC000
0F8000
0F8000
0F8000
0F8000
0F0000
0F0000
1F0700
1F1F80
1E3F80
1E67C0
3E87C0
3D07C0
3F07C0
3E0F80
7E0F80
7C0F80
7C0F00
7C1F00
781E00
FC3C00
FC7800
DFF000
878000
ENDCHAR
STARTCHAR uni1E04
ENCODING 7684
SWIDTH 680 0
DWIDTH 23 0
BBX 23 30 1 -6
BITMAP
07FFC0
01FFF8
01F8FC
01F03E
01F03E
01F03E
03F03E
03E03E
03E07C
03E078
03E1F0
07FF80
07FFE0
07C3F0
07C1F8
07C0F8
0FC0FC
0F80FC
0F80F8
0F81F8
0F81F8
1F87F0
1FFFC0
FFFE00
000000
003800
007C00
007C00
007C00
003800
ENDCHAR
STARTCHAR uni1E05
ENCODING 7685
SWIDTH 586 0
DWIDTH 20 0
BBX 18 31 3 -6
BITMAP
01C000
3FC000
0F8000
0F8000
0F8000
0F8000
0F0000
0F0000
1F0700
1F1F80
1E3F80
1E67C0
3E87C0
3D07C0
3F07C0
3E0F80
7E0F80
7C0F80
7C0F00
7C1F00
781E00
FC3C00
FC7800
DFF000
878000
000000
038000
07C000
07C000
07C000
038000
ENDCHAR
STARTCHAR uni1E06
ENCODING 7686
SWIDTH 680 0
DWIDTH 23 0
BBX 23 27 1 -3
BITMAP
07FFC0
01FFF8
01F8FC
01F03E
01F03E
01F03E
03F03E
03E03E
03E07C
03E078
03E1F0
07FF80
07FFE0
07C3F0
07C1F8
07C0F8
0FC0FC
0F80FC
0F80F8
0F81F8
0F81F8
1F87F0
1FFFC0
FFFE00
000000
03FF80
03FF80
ENDCHAR
STARTCHAR uni1E07
ENCODING 7687
SWIDTH 586 0
DWIDTH 20 0
BBX 18 28 3 -3
BITMAP
01C000
3FC000
0F8000
0F8000
0F8000
0F8000
0F0000
0F0000
1F0700
1F1F80
1E3F80
1E67C0
3E87C0
3D07C0
3F07C0
3E0F80
7E0F80
7C0F80
7C0F00
7C1F00
781E00
FC3C00
FC7800
DFF000
878000
000000
3FF800
3FF800
ENDCHAR
STARTCHAR uni1E08
ENCODING 7688
SWIDTH 672 0
DWIDTH 22 0
BBX 21 41 4 -8
BITMAP
000100
000780
000F80
001F00
003E00
007800
00E000
008000
000000
001FC0
00FFF0
03F078
07C038
0F8038
1F8010
3F0010
3E0010
7E0000
7E0000
7C0000
7C0000
FC0000
FC0000
FC0000
FC0000
FC0020
7C0060
7C00C0
7E01C0
3E01C0
1F07C0
07FF80
00FC00
00C000
00C000
00F000
01F800
007800
007800
00F000
03C000
ENDCHAR
STARTCHAR uni1E09
ENCODING 7689
SWIDTH 456 0
DWIDTH 15 0
BBX 16 34 2 -8
BITMAP
0004
001E
003E
007C
00F8
01E0
0380
0200
0000
0030
03FE
079F
1F0F
3E0E
3C04
7C00
7C00
7800
F800
F800
F804
F80C
F818
7C30
7FE0
1F80
0600
0E00
0F00
0F80
0380
0380
0700
1E00
ENDCHAR
STARTCHAR uni1E0A
ENCODING 7690
SWIDTH 774 0
DWIDTH 26 0
BBX 26 30 1 0
BITMAP
000E0000
001F0000
001F0000
001F0000
000E0000
00000000
07FF8000
01FFF800
01F03E00
01F00F00
01F00F80
03E00780
03E00780
03E007C0
03E007C0
03E007C0
07C007C0
07C007C0
07C00FC0
07C00F80
07C00F80
0F801F80
0F801F00
0F803F00
0F803E00
1F007E00
1F00FC00
1F83F000
1FFFC000
FFFC0000
ENDCHAR
STARTCHAR uni1E0B
ENCODING 7691
SWIDTH 609 0
DWIDTH 20 0
BBX 21 31 2 0
BITMAP
000380
0007C0
0007C0
0007C0
000380
000000
000038
0007F8
0001F0
0001F0
0001F0
0001F0
0001E0
0001E0
007BE0
03FFE0
07C3C0
0F87C0
1F07C0
3E07C0
3E0F80
7C0F80
7C1F80
781F80
F83F80
F82F10
F84F30
F89F60
7F9FC0
7E1F80
380600
ENDCHAR
STARTCHAR uni1E0C
ENCODING 7692
SWIDTH 774 0
DWIDTH 26 0
BBX 26 30 1 -6
BITMAP
07FF8000
01FFF800
01F03E00
01F00F00
01F00F80
03E00780
03E00780
03E007C0
03E007C0
03E007C0
07C007C0
07C007C0
07C00FC0
07C00F80
07C00F80
0F801F80
0F801F00
0F803F00
0F803E00
1F007E00
1F00FC00
1F83F000
1FFFC000
FFFC0000
00000000
001C0000
003E0000
003E0000
003E0000
001C0000
ENDCHAR
STARTCHAR uni1E0D
ENCODING 7693
SWIDTH 609 0
DWIDTH 20 0
BBX 21 31 2 -6
BITMAP
000038
0007F8
0001F0
0001F0
0001F0
0001F0
0001E0
0001E0
007BE0
03FFE0
07C3C0
0F87C0
1F07C0
3E07C0
3E0F80
7C0F80
7C1F80
781F80
F83F80
F82F10
F84F30
F89F60
7F9FC0
7E1F80
380600
000000
00E000
01F000
01F000
01F000
00E000
ENDCHAR
STARTCHAR uni1E0E
ENCODING 7694
SWIDTH 774 0
DWIDTH 26 0
BBX 26 27 1 -3
BITMAP
07FF8000
01FFF800
01F03E00
01F00F00
01F00F80
03E00780
03E00780
03E007C0
03E007C0
03E007C0
07C007C0
07C007C0
07C00FC0
07C00F80
07C00F80
0F801F80
0F801F00
0F803F00
0F803E00
1F007E00
1F00FC00
1F83F000
1FFFC000
FFFC0000
00000000
01FFC000
01FFC000
ENDCHAR
STARTCHAR uni1E0F
ENCODING 7695
SWIDTH 609 0
DWIDTH 20 0
BBX 21 28 2 -3
BITMAP
000038
0007F8
0001F0
0001F0
0001F0
0001F0
0001E0
0001E0
007BE0
03FFE0
07C3C0
0F87C0
1F07C0
3E07C0
3E0F80
7C0F80
7C1F80
781F80
F83F80
F82F10
F84F30
F89F60
7F9FC0
7E1F80
380600
000000
0FFE00
0FFE00
ENDCHAR
STARTCHAR uni1E10
ENCODING 7696
SWIDTH 774 0
DWIDTH 26 0
BBX 26 32 1 -8
BITMAP
07FF8000
01FFF800
01F03E00
01F00F00
01F00F80
03E00780
03E00780
03E007C0
03E007C0
03E007C0
07C007C0
07C007C0
07C00FC0
07C00F80
07C00F80
0F801F80
0F801F00
0F803F00
0F803E00
1F007E00
1F00FC00
1F83F000
1FFFC000
FFFC0000
000C0000
00180000
003C0000
003E0000
000E0000
000E0000
001C0000
00780000
ENDCHAR
STARTCHAR uni1E11
ENCODING 7697
SWIDTH 609 0
DWIDTH 20 0
BBX 21 33 2 -8
BITMAP
000038
0007F8
0001F0
0001F0
0001F0
0001F0
0001E0
0001E0
007BE0
03FFE0
07C3C0
0F87C0
1F07C0
3E07C0
3E0F80
7C0F80
7C1F80
781F80
F83F80
F82F10
F84F30
F89F60
7F9FC0
7E1F80
380600
006000
00C000
01E000
01F000
007000
007000
00E000
03C000
ENDCHAR
STARTCHAR uni1E12
ENCODING 7698
SWIDTH 774 0
DWIDTH 26 0
BBX 26 33 1 -9
BITMAP
07FF8000
01FFF800
01F03E00
01F00F00
01F00F80
03E00780
03E00780
03E007C0
03E007C0
03E007C0
07C007C0
07C007C0
07C00FC0
07C00F80
07C00F80
0F801F80
0F801F00
0F803F00
0F803E00
1F007E00
1F00FC00
1F83F000
1FFFC000
FFFC0000
00000000
00080000
001C0000
003E0000
007F0000
00E70000
01838000
0701C000
02008000
ENDCHAR
STARTCHAR uni1E13
ENCODING 7699
SWIDTH 609 0
DWIDTH 20 0
BBX 21 34 2 -9
BITMAP
000038
0007F8
0001F0
0001F0
0001F0
0001F0
0001E0
0001E0
007BE0
03FFE0
07C3C0
0F87C0
1F07C0
3E07C0
3E0F80
7C0F80
7C1F80
781F80
F83F80
F82F10
F84F30
F89F60
7F9FC0
7E1F80
380600
000000
004000
00E000
01F000
03F800
073800
0C1C00
380E00
100400
ENDCHAR
STARTCHAR uni1E14
ENCODING 7700
SWIDTH 622 0
DWIDTH 21 0
BBX 23 36 1 0
BITMAP
008000
01E000
01F000
00F800
007C00
001E00
000700
000100
000000
00FFE0
00FFE0
000000
07FFFE
01FFFE
01F81E
01F00C
01F00C
01F00C
01F00C
03F000
03E060
03E060
03E0C0
03FFC0
07FFC0
07C0C0
07C0C0
07C080
07C000
0F8018
0F8030
0F8030
0F8070
1F80E0
1FFFE0
FFFFE0
ENDCHAR
STARTCHAR uni1E15
ENCODING 7701
SWIDTH 476 0
DWIDTH 16 0
BBX 16 29 2 0
BITMAP
0800
1E00
1F00
0F80
07C0
01E0
0070
0010
0000
0FFE
0FFE
0000
0030
03FE
078F
1F0F
3E0F
3C1F
7C1E
7C7C
79F8
FFC0
FC00
F806
F80C
F808
7C38
3FE0
1F00
ENDCHAR
STARTCHAR uni1E16
ENCODING 7702
SWIDTH 622 0
DWIDTH 21 0
BBX 23 36 1 0
BITMAP
000040
0001E0
0003E0
0007C0
000F80
001E00
003800
002000
000000
00FFE0
00FFE0
000000
07FFFE
01FFFE
01F81E
01F00C
01F00C
01F00C
01F00C
03F000
03E060
03E060
03E0C0
03FFC0
07FFC0
07C0C0
07C0C0
07C080
07C000
0F8018
0F8030
0F8030
0F8070
1F80E0
1FFFE0
FFFFE0
ENDCHAR
STARTCHAR uni1E17
ENCODING 7703
SWIDTH 476 0
DWIDTH 16 0
BBX 16 29 2 0
BITMAP
0004
001E
003E
007C
00F8
01E0
0380
0200
0000
0FFE
0FFE
0000
0030
03FE
078F
1F0F
3E0F
3C1F
7C1E
7C7C
79F8
FFC0
FC00
F806
F80C
F808
7C38
3FE0
1F00
ENDCHAR
STARTCHAR uni1E18
ENCODING 7704
SWIDTH 622 0
DWIDTH 21 0
BBX 23 33 1 -9
BITMAP
07FFFE
01FFFE
01F81E
01F00C
01F00C
01F00C
01F00C
03F000
03E060
03E060
03E0C0
03FFC0
07FFC0
07C0C0
07C0C0
07C080
07C000
0F8018
0F8030
0F8030
0F8070
1F80E0
1FFFE0
FFFFE0
000000
002000
007000
00F800
01FC00
039C00
060E00
1C0700
080200
ENDCHAR
STARTCHAR uni1E19
ENCODING 7705
SWIDTH 476 0
DWIDTH 16 0
BBX 17 26 1 -9
BITMAP
001800
01FF00
03C780
0F8780
1F0780
1E0F80
3E0F00
3E3E00
3CFC00
7FE000
7E0000
7C0300
7C0600
7C0400
3E1C00
1FF000
0F8000
000000
010000
038000
07C000
0FE000
1CE000
307000
E03800
401000
ENDCHAR
STARTCHAR uni1E1A
ENCODING 7706
SWIDTH 622 0
DWIDTH 21 0
BBX 23 30 1 -6
BITMAP
07FFFE
01FFFE
01F81E
01F00C
01F00C
01F00C
01F00C
03F000
03E060
03E060
03E0C0
03FFC0
07FFC0
07C0C0
07C0C0
07C080
07C000
0F8018
0F8030
0F8030
0F8070
1F80E0
1FFFE0
FFFFE0
000000
010080
07F300
0FFF00
08FE00
100800
ENDCHAR
STARTCHAR uni1E1B
ENCODING 7707
SWIDTH 476 0
DWIDTH 16 0
BBX 17 23 1 -6
BITMAP
001800
01FF00
03C780
0F8780
1F0780
1E0F80
3E0F00
3E3E00
3CFC00
7FE000
7E0000
7C0300
7C0600
7C0400
3E1C00
1FF000
0F8000
000000
080400
3F9800
7FF800
47F000
804000
ENDCHAR
STARTCHAR uni1E1C
ENCODING 7708
SWIDTH 622 0
DWIDTH 21 0
BBX 23 38 1 -8
BITMAP
00C060
00E0E0
00FFC0
007F80
003E00
000000
07FFFE
01FFFE
01F81E
01F00C
01F00C
01F00C
01F00C
03F000
03E060
03E060
03E0C0
03FFC0
07FFC0
07C0C0
07C0C0
07C080
07C000
0F8018
0F8030
0F8030
0F8070
1F80E0
1FFFE0
FFFFE0
003000
006000
00F000
00F800
003800
003800
007000
01E000
ENDCHAR
STARTCHAR uni1E1D
ENCODING 7709
SWIDTH 476 0
DWIDTH 16 0
BBX 16 31 2 -8
BITMAP
0C06
0E0E
0FFC
07F8
03E0
0000
0030
03FE
078F
1F0F
3E0F
3C1F
7C1E
7C7C
79F8
FFC0
FC00
F806
F80C
F808
7C38
3FE0
1F00
0300
0600
0F00
0F80
0380
0380
0700
1E00
ENDCHAR
STARTCHAR uni1E1E
ENCODING 7710
SWIDTH 585 0
DWIDTH 20 0
BBX 22 30 2 0
BITMAP
001C00
003E00
003E00
003E00
001C00
000000
0FFFFC
01FFFC
01F03C
01F01C
01F018
03E008
03E000
03E000
03E000
03E060
07E040
07C0C0
07FFC0
07FFC0
07C1C0
0F8080
0F8080
0F8000
0F8000
0F8000
1F0000
1F0000
1F0000
FFE000
ENDCHAR
STARTCHAR uni1E1F
ENCODING 7711
SWIDTH 348 0
DWIDTH 12 0
BBX 23 39 -3 -8
BITMAP
000700
000F80
000F80
000F80
000700
000000
0000E0
0003FC
0007BC
000F1E
001F0C
001F00
001E00
003E00
01FFE0
01FFE0
003E00
007C00
007C00
007C00
007C00
007800
00F800
00F800
00F800
00F000
00F000
01F000
01F000
01E000
01E000
01E000
03E000
03C000
23C000
F38000
F78000
7F0000
1C0000
ENDCHAR
STARTCHAR uni1E20
ENCODING 7712
SWIDTH 726 0
DWIDTH 24 0
BBX 23 27 4 0
BITMAP
01FFC0
01FFC0
000000
000FC0
00FFF8
01F07C
07C03C
0FC01C
1F801C
1F001C
3F0008
3E0000
7E0000
7E0000
7C0000
7C0000
FC0000
FC0FFE
FC01F0
FC01F0
7C01F0
7C03F0
7E03E0
3E03E0
1F07E0
07FF80
00FC00
ENDCHAR
STARTCHAR uni1E21
ENCODING 7713
SWIDTH 522 0
DWIDTH 17 0
BBX 21 28 0 -8
BITMAP
03FF80
03FF80
000000
003838
01FFF0
03E3F0
07C3C0
0FC3E0
0F83E0
0F87C0
0F87C0
0F8F80
07FF00
03F800
030000
0F0000
1FE000
0FF800
07FE00
07FF00
3C3F80
780F80
F80780
F80780
780700
7E0E00
3FFC00
07F000
ENDCHAR
STARTCHAR uni1E22
ENCODING 7714
SWIDTH 800 0
DWIDTH 27 0
BBX 29 30 1 0
BITMAP
00038000
0007C000
0007C000
0007C000
00038000
00000000
07FE3FF8
01F807C0
01F007C0
01F007C0
01F00F80
03F00F80
03E00F80
03E00F80
03E00F80
03E01F00
07E01F00
07FFFF00
07FFFF00
07C01F00
07C03E00
0FC03E00
0F803E00
0F803E00
0F803E00
0F807C00
1F807C00
1F007C00
1F00FC00
FFE3FF00
ENDCHAR
STARTCHAR uni1E23
ENCODING 7715
SWIDTH 629 0
DWIDTH 21 0
BBX 19 31 3 0
BITMAP
038000
07C000
07C000
07C000
038000
000000
01C000
3FC000
0FC000
078000
0F8000
0F8000
0F8000
0F0000
1F0380
1F1FC0
1F3FC0
1E67C0
1E47C0
3E8780
3F0F80
3F0F80
3E0F00
7E1F00
7C1F00
7C1E20
7C3E40
783EC0
F83F80
F83F00
F01C00
ENDCHAR
STARTCHAR uni1E24
ENCODING 7716
SWIDTH 800 0
DWIDTH 27 0
BBX 29 30 1 -6
BITMAP
07FE3FF8
01F807C0
01F007C0
01F007C0
01F00F80
03F00F80
03E00F80
03E00F80
03E00F80
03E01F00
07E01F00
07FFFF00
07FFFF00
07C01F00
07C03E00
0FC03E00
0F803E00
0F803E00
0F803E00
0F807C00
1F807C00
1F007C00
1F00FC00
FFE3FF00
00000000
000E0000
001F0000
001F0000
001F0000
000E0000
ENDCHAR
STARTCHAR uni1E25
ENCODING 7717
SWIDTH 629 0
DWIDTH 21 0
BBX 19 31 3 -6
BITMAP
01C000
3FC000
0FC000
078000
0F8000
0F8000
0F8000
0F0000
1F0380
1F1FC0
1F3FC0
1E67C0
1E47C0
3E8780
3F0F80
3F0F80
3E0F00
7E1F00
7C1F00
7C1E20
7C3E40
783EC0
F83F80
F83F00
F01C00
000000
01C000
03E000
03E000
03E000
01C000
ENDCHAR
STARTCHAR uni1E26
ENCODING 7718
SWIDTH 800 0
DWIDTH 27 0
BBX 29 30 1 0
BITMAP
00183000
007C7C00
007C7C00
007C7C00
00183000
00000000
07FE3FF8
01F807C0
01F007C0
01F007C0
01F00F80
03F00F80
03E00F80
03E00F80
03E00F80
03E01F00
07E01F00
07FFFF00
07FFFF00
07C01F00
07C03E00
0FC03E00
0F803E00
0F803E00
0F803E00
0F807C00
1F807C00
1F007C00
1F00FC00
FFE3FF00
ENDCHAR
STARTCHAR uni1E27
ENCODING 7719
SWIDTH 629 0
DWIDTH 21 0
BBX 19 31 3 0
BITMAP
183000
7C7C00
7C7C00
7C7C00
183000
000000
01C000
3FC000
0FC000
078000
0F8000
0F8000
0F8000
0F0000
1F0380
1F1FC0
1F3FC0
1E67C0
1E47C0
3E8780
3F0F80
3F0F80
3E0F00
7E1F00
7C1F00
7C1E20
7C3E40
783EC0
F83F80
F83F00
F01C00
ENDCHAR
STARTCHAR uni1E28
ENCODING 7720
SWIDTH 800 0
DWIDTH 27 0
BBX 29 32 1 -8
BITMAP
07FE3FF8
01F807C0
01F007C0
01F007C0
01F00F80
03F00F80
03E00F80
03E00F80
03E00F80
03E01F00
07E01F00
07FFFF00
07FFFF00
07C01F00
07C03E00
0FC03E00
0F803E00
0F803E00
0F803E00
0F807C00
1F807C00
1F007C00
1F00FC00
FFE3FF00
00060000
000C0000
001E0000
001F0000
00070000
00070000
000E0000
003C0000
ENDCHAR
STARTCHAR uni1E29
ENCODING 7721
SWIDTH 629 0
DWIDTH 21 0
BBX 19 33 3 -8
BITMAP
01C000
3FC000
0FC000
078000
0F8000
0F8000
0F8000
0F0000
1F0380
1F1FC0
1F3FC0
1E67C0
1E47C0
3E8780
3F0F80
3F0F80
3E0F00
7E1F00
7C1F00
7C1E20
7C3E40
783EC0
F83F80
F83F00
F01C00
006000
00C000
01E000
01F000
007000
007000
00E000
03C000
ENDCHAR
STARTCHAR uni1E2A
ENCODING 7722
SWIDTH 800 0
DWIDTH 27 0
BBX 29 30 1 -6
BITMAP
07FE3FF8
01F807C0
01F007C0
01F007C0
01F00F80
03F00F80
03E00F80
03E00F80
03E00F80
03E01F00
07E01F00
07FFFF00
07FFFF00
07C01F00
07C03E00
0FC03E00
0F803E00
0F803E00
0F803E00
0F807C00
1F807C00
1F007C00
1F00FC00
FFE3FF00
00000000
00C06000
00E0E000
00FFC000
007F8000
003E0000
ENDCHAR
STARTCHAR uni1E2B
ENCODING 7723
SWIDTH 629 0
DWIDTH 21 0
BBX 19 31 3 -6
BITMAP
01C000
3FC000
0FC000
078000
0F8000
0F8000
0F8000
0F0000
1F0380
1F1FC0
1F3FC0
1E67C0
1E47C0
3E8780
3F0F80
3F0F80
3E0F00
7E1F00
7C1F00
7C1E20
7C3E40
783EC0
F83F80
F83F00
F01C00
000000
180C00
1C1C00
1FF800
0FF000
07C000
ENDCHAR
STARTCHAR uni1E2C
ENCODING 7724
SWIDTH 386 0
DWIDTH 13 0
BBX 16 30 1 -6
BITMAP
03FF
00F8
00F8
00F8
00F0
01F0
01F0
01F0
01F0
01E0
03E0
03E0
03E0
03E0
03C0
07C0
07C0
07C0
07C0
0780
0F80
0F80
0F80
7FE0
0000
0804
3F98
7FF8
47F0
8040
ENDCHAR
STARTCHAR uni1E2D
ENCODING 7725
SWIDTH 339 0
DWIDTH 11 0
BBX 14 30 0 -6
BITMAP
0070
00F0
01F8
00F0
00F0
0000
0000
00F0
0FE0
17E0
03E0
03C0
07C0
07C0
07C0
0780
0F80
0F80
0F10
1F30
1F60
1FC0
1F80
0E00
0000
0804
3F98
7FF8
47F0
8040
ENDCHAR
STARTCHAR uni1E2E
ENCODING 7726
SWIDTH 386 0
DWIDTH 13 0
BBX 18 38 1 0
BITMAP
000200
000F00
001F00
003E00
007C00
00F000
01C000
010000
000000
070380
0F87C0
0F87C0
0F87C0
070380
07FF00
01F800
01F800
01F800
01F000
03F000
03F000
03F000
03E000
03E000
07E000
07E000
07C000
07C000
07C000
0FC000
0F8000
0F8000
0F8000
0F8000
1F0000
1F0000
1F0000
FFE000
ENDCHAR
STARTCHAR uni1E2F
ENCODING 7727
SWIDTH 339 0
DWIDTH 11 0
BBX 13 33 3 0
BITMAP
0010
0078
00F8
01F0
03E0
0780
0E00
0800
0000
7070
F8F8
F8F8
F8F8
7070
0000
0000
0380
7F80
BF00
1F00
1F00
3E00
3E00
3E00
3C00
7C00
7C00
7840
F880
F900
FF00
FE00
7000
ENDCHAR
STARTCHAR uni1E30
ENCODING 7728
SWIDTH 688 0
DWIDTH 23 0
BBX 28 33 1 0
BITMAP
00001000
00007800
0000F800
0001F000
0003E000
00078000
000E0000
00080000
00000000
07FF3FF0
01F80F80
01F81E00
01F03C00
01F07800
01F0F000
01F1C000
03E38000
03E30000
03E60000
03EE0000
03FE0000
07FF0000
07DF0000
07DF8000
079F8000
078FC000
0F8FC000
0F87E000
0F87E000
0F07F000
1F03F800
1F01FC00
FFE01E00
ENDCHAR
STARTCHAR uni1E31
ENCODING 7729
SWIDTH 570 0
DWIDTH 19 0
BBX 19 34 2 0
BITMAP
000800
003C00
007C00
00F800
01F000
03C000
070000
040000
000000
01E000
1FC000
07C000
07C000
07C000
078000
0F8000
0F8000
0F80C0
0F03E0
1F07E0
1F09E0
1F10C0
1E2000
1E7000
3EF000
3EF000
3CF000
3CF800
7C7840
7C78C0
7C7C80
783F80
F83F00
F00E00
ENDCHAR
STARTCHAR uni1E32
ENCODING 7730
SWIDTH 688 0
DWIDTH 23 0
BBX 28 30 1 -6
BITMAP
07FF3FF0
01F80F80
01F81E00
01F03C00
01F07800
01F0F000
01F1C000
03E38000
03E30000
03E60000
03EE0000
03FE0000
07FF0000
07DF0000
07DF8000
079F8000
078FC000
0F8FC000
0F87E000
0F87E000
0F07F000
1F03F800
1F01FC00
FFE01E00
00000000
001C0000
003E0000
003E0000
003E0000
001C0000
ENDCHAR
STARTCHAR uni1E33
ENCODING 7731
SWIDTH 570 0
DWIDTH 19 0
BBX 19 31 2 -6
BITMAP
01E000
1FC000
07C000
07C000
07C000
078000
0F8000
0F8000
0F80C0
0F03E0
1F07E0
1F09E0
1F10C0
1E2000
1E7000
3EF000
3EF000
3CF000
3CF800
7C7840
7C78C0
7C7C80
783F80
F83F00
F00E00
000000
01C000
03E000
03E000
03E000
01C000
ENDCHAR
STARTCHAR uni1E34
ENCODING 7732
SWIDTH 688 0
DWIDTH 23 0
BBX 28 27 1 -3
BITMAP
07FF3FF0
01F80F80
01F81E00
01F03C00
01F07800
01F0F000
01F1C000
03E38000
03E30000
03E60000
03EE0000
03FE0000
07FF0000
07DF0000
07DF8000
079F8000
078FC000
0F8FC000
0F87E000
0F87E000
0F07F000
1F03F800
1F01FC00
FFE01E00
00000000
01FFC000
01FFC000
ENDCHAR
STARTCHAR uni1E35
ENCODING 7733
SWIDTH 570 0
DWIDTH 19 0
BBX 19 28 2 -3
BITMAP
01E000
1FC000
07C000
07C000
07C000
078000
0F8000
0F8000
0F80C0
0F03E0
1F07E0
1F09E0
1F10C0
1E2000
1E7000
3EF000
3EF000
3CF000
3CF800
7C7840
7C78C0
7C7C80
783F80
F83F00
F00E00
000000
1FFC00
1FFC00
ENDCHAR
STARTCHAR uni1E36
ENCODING 7734
SWIDTH 586 0
DWIDTH 20 0
BBX 20 30 1 -6
BITMAP
07FF00
01F800
01F800
01F000
01F000
01F000
03F000
03E000
03E000
03E000
03E000
07E000
07C000
07C000
07C000
07C000
078000
0F8030
0F8060
0F8060
0F80E0
1F83E0
1FFFC0
FFFFC0
000000
007000
00F800
00F800
00F800
007000
ENDCHAR
STARTCHAR uni1E37
ENCODING 7735
SWIDTH 327 0
DWIDTH 11 0
BBX 10 31 3 -6
BITMAP
01C0
3FC0
0F80
0780
0F80
0F80
0F00
0F00
1F00
1F00
1F00
1E00
3E00
3E00
3E00
3C00
7C00
7C00
7C00
7880
F980
FB00
FE00
FC00
7000
0000
1C00
3E00
3E00
3E00
1C00
ENDCHAR
STARTCHAR uni1E38
ENCODING 7736
SWIDTH 586 0
DWIDTH 20 0
BBX 20 33 1 -6
BITMAP
0FFE00
0FFE00
000000
07FF00
01F800
01F800
01F000
01F000
01F000
03F000
03E000
03E000
03E000
03E000
07E000
07C000
07C000
07C000
07C000
078000
0F8030
0F8060
0F8060
0F80E0
1F83E0
1FFFC0
FFFFC0
000000
007000
00F800
00F800
00F800
007000
ENDCHAR
STARTCHAR uni1E39
ENCODING 7737
SWIDTH 327 0
DWIDTH 11 0
BBX 12 34 3 -6
BITMAP
7FF0
7FF0
0000
01C0
3FC0
0F80
0780
0F80
0F80
0F00
0F00
1F00
1F00
1F00
1E00
3E00
3E00
3E00
3C00
7C00
7C00
7C00
7880
F980
FB00
FE00
FC00
7000
0000
1C00
3E00
3E00
3E00
1C00
ENDCHAR
STARTCHAR uni1E3A
ENCODING 7738
SWIDTH 586 0
DWIDTH 20 0
BBX 20 27 1 -3
BITMAP
07FF00
01F800
01F800
01F000
01F000
01F000
03F000
03E000
03E000
03E000
03E000
07E000
07C000
07C000
07C000
07C000
078000
0F8030
0F8060
0F8060
0F80E0
1F83E0
1FFFC0
FFFFC0
000000
07FF00
07FF00
ENDCHAR
STARTCHAR uni1E3B
ENCODING 7739
SWIDTH 327 0
DWIDTH 11 0
BBX 11 28 2 -3
BITMAP
00E0
1FE0
07C0
03C0
07C0
07C0
0780
0780
0F80
0F80
0F80
0F00
1F00
1F00
1F00
1E00
3E00
3E00
3E00
3C40
7CC0
7D80
7F00
7E00
3800
0000
FFE0
FFE0
ENDCHAR
STARTCHAR uni1E3C
ENCODING 7740
SWIDTH 586 0
DWIDTH 20 0
BBX 20 33 1 -9
BITMAP
07FF00
01F800
01F800
01F000
01F000
01F000
03F000
03E000
03E000
03E000
03E000
07E000
07C000
07C000
07C000
07C000
078000
0F8030
0F8060
0F8060
0F80E0
1F83E0
1FFFC0
FFFFC0
000000
002000
007000
00F800
01FC00
039C00
060E00
1C0700
080200
ENDCHAR
STARTCHAR uni1E3D
ENCODING 7741
SWIDTH 327 0
DWIDTH 11 0
BBX 13 34 0 -9
BITMAP
0038
07F8
01F0
00F0
01F0
01F0
01E0
01E0
03E0
03E0
03E0
03C0
07C0
07C0
07C0
0780
0F80
0F80
0F80
0F10
1F30
1F60
1FC0
1F80
0E00
0000
0100
0380
07C0
0FE0
1CE0
3070
E038
4010
ENDCHAR
STARTCHAR uni1E3E
ENCODING 7742
SWIDTH 921 0
DWIDTH 31 0
BBX 33 33 1 0
BITMAP
0000020000
00000F0000
00001F0000
00003E0000
00007C0000
0000F00000
0001C00000
0001000000
0000000000
07F8007F80
01F800FE00
01F800FC00
01FC01FC00
01FC01FC00
037C037C00
037C037800
033C06F800
033E0CF800
033E0CF800
063E18F800
063E18F000
063E31F000
061E31F000
061E61F000
061F61F000
0C1FC1E000
0C1FC3E000
0C1F83E000
0C1F83E000
1C0F03E000
1C0E07C000
1C0E07E000
FF8C3FF800
ENDCHAR
STARTCHAR uni1E3F
ENCODING 7743
SWIDTH 914 0
DWIDTH 30 0
BBX 29 26 3 0
BITMAP
00001000
00007800
0000F800
0001F000
0003E000
00078000
000E0000
00080000
00000000
078700E0
7F0F87F0
1F3F8FF0
1F2799F0
1E47B1F0
1E8761E0
3F8F43E0
3F0F83E0
3E0F83C0
3E1F07C0
7C1F07C0
7C1E0788
7C1E0F90
783E0FB0
F83E0FE0
F83C0FC0
F0780700
ENDCHAR
STARTCHAR uni1E40
ENCODING 7744
SWIDTH 921 0
DWIDTH 31 0
BBX 33 30 1 0
BITMAP
0000E00000
0001F00000
0001F00000
0001F00000
0000E00000
0000000000
07F8007F80
01F800FE00
01F800FC00
01FC01FC00
01FC01FC00
037C037C00
037C037800
033C06F800
033E0CF800
033E0CF800
063E18F800
063E18F000
063E31F000
061E31F000
061E61F000
061F61F000
0C1FC1E000
0C1FC3E000
0C1F83E000
0C1F83E000
1C0F03E000
1C0E07C000
1C0E07E000
FF8C3FF800
ENDCHAR
STARTCHAR uni1E41
ENCODING 7745
SWIDTH 914 0
DWIDTH 30 0
BBX 29 23 3 0
BITMAP
00038000
0007C000
0007C000
0007C000
00038000
00000000
078700E0
7F0F87F0
1F3F8FF0
1F2799F0
1E47B1F0
1E8761E0
3F8F43E0
3F0F83E0
3E0F83C0
3E1F07C0
7C1F07C0
7C1E0788
7C1E0F90
783E0FB0
F83E0FE0
F83C0FC0
F0780700
ENDCHAR
STARTCHAR uni1E42
ENCODING 7746
SWIDTH 921 0
DWIDTH 31 0
BBX 33 30 1 -6
BITMAP
07F8007F80
01F800FE00
01F800FC00
01FC01FC00
01FC01FC00
037C037C00
037C037800
033C06F800
033E0CF800
033E0CF800
063E18F800
063E18F000
063E31F000
061E31F000
061E61F000
061F61F000
0C1FC1E000
0C1FC3E000
0C1F83E000
0C1F83E000
1C0F03E000
1C0E07C000
1C0E07E000
FF8C3FF800
0000000000
0001C00000
0003E00000
0003E00000
0003E00000
0001C00000
ENDCHAR
STARTCHAR uni1E43
ENCODING 7747
SWIDTH 914 0
DWIDTH 30 0
BBX 29 23 3 -6
BITMAP
078700E0
7F0F87F0
1F3F8FF0
1F2799F0
1E47B1F0
1E8761E0
3F8F43E0
3F0F83E0
3E0F83C0
3E1F07C0
7C1F07C0
7C1E0788
7C1E0F90
783E0FB0
F83E0FE0
F83C0FC0
F0780700
00000000
000E0000
001F0000
001F0000
001F0000
000E0000
ENDCHAR
STARTCHAR uni1E44
ENCODING 7748
SWIDTH 741 0
DWIDTH 25 0
BBX 28 30 1 0
BITMAP
00070000
000F8000
000F8000
000F8000
00070000
00000000
07F80FF0
01F80380
01F80380
01FC0380
01FC0300
01FE0300
033E0300
033E0300
031F0600
031F0600
031F8600
060F8600
060F8600
0607CC00
0607CC00
0607EC00
0C03EC00
0C03EC00
0C01F800
0C01F800
1C01F800
1C00F800
1C00F800
FF007000
ENDCHAR
STARTCHAR uni1E45
ENCODING 7749
SWIDTH 635 0
DWIDTH 21 0
BBX 20 23 2 0
BITMAP
007000
00F800
00F800
00F800
007000
000000
07C1C0
7F87E0
0F9FE0
0F93E0
0F23E0
1F43C0
1F87C0
1E87C0
1F0780
3F0F80
3E0F80
3E0F10
3E1F30
7C1F60
7C1FC0
7C1F80
F80E00
ENDCHAR
STARTCHAR uni1E46
ENCODING 7750
SWIDTH 741 0
DWIDTH 25 0
BBX 28 30 1 -6
BITMAP
07F80FF0
01F80380
01F80380
01FC0380
01FC0300
01FE0300
033E0300
033E0300
031F0600
031F0600
031F8600
060F8600
060F8600
0607CC00
0607CC00
0607EC00
0C03EC00
0C03EC00
0C01F800
0C01F800
1C01F800
1C00F800
1C00F800
FF007000
00000000
000E0000
001F0000
001F0000
001F0000
000E0000
ENDCHAR
STARTCHAR uni1E47
ENCODING 7751
SWIDTH 635 0
DWIDTH 21 0
BBX 20 23 2 -6
BITMAP
07C1C0
7F87E0
0F9FE0
0F93E0
0F23E0
1F43C0
1F87C0
1E87C0
1F0780
3F0F80
3E0F80
3E0F10
3E1F30
7C1F60
7C1FC0
7C1F80
F80E00
000000
00E000
01F000
01F000
01F000
00E000
ENDCHAR
STARTCHAR uni1E48
ENCODING 7752
SWIDTH 741 0
DWIDTH 25 0
BBX 28 27 1 -3
BITMAP
07F80FF0
01F80380
01F80380
01FC0380
01FC0300
01FE0300
033E0300
033E0300
031F0600
031F0600
031F8600
060F8600
060F8600
0607CC00
0607CC00
0607EC00
0C03EC00
0C03EC00
0C01F800
0C01F800
1C01F800
1C00F800
1C00F800
FF007000
00000000
00FFE000
00FFE000
ENDCHAR
STARTCHAR uni1E49
ENCODING 7753
SWIDTH 635 0
DWIDTH 21 0
BBX 20 20 2 -3
BITMAP
07C1C0
7F87E0
0F9FE0
0F93E0
0F23E0
1F43C0
1F87C0
1E87C0
1F0780
3F0F80
3E0F80
3E0F10
3E1F30
7C1F60
7C1FC0
7C1F80
F80E00
000000
0FFE00
0FFE00
ENDCHAR
STARTCHAR uni1E4A
ENCODING 7754
SWIDTH 741 0
DWIDTH 25 0
BBX 28 33 1 -9
BITMAP
07F80FF0
01F80380
01F80380
01FC0380
01FC0300
01FE0300
033E0300
033E0300
031F0600
031F0600
031F8600
060F8600
060F8600
0607CC00
0607CC00
0607EC00
0C03EC00
0C03EC00
0C01F800
0C01F800
1C01F800
1C00F800
1C00F800
FF007000
00000000
00040000
000E0000
001F0000
003F8000
00738000
00C1C000
0380E000
01004000
ENDCHAR
STARTCHAR uni1E4B
ENCODING 7755
SWIDTH 635 0
DWIDTH 21 0
BBX 20 26 2 -9
BITMAP
07C1C0
7F87E0
0F9FE0
0F93E0
0F23E0
1F43C0
1F87C0
1E87C0
1F0780
3F0F80
3E0F80
3E0F10
3E1F30
7C1F60
7C1FC0
7C1F80
F80E00
000000
002000
007000
00F800
01FC00
039C00
060E00
1C0700
080200
ENDCHAR
STARTCHAR uni1E4C
ENCODING 7756
SWIDTH 761 0
DWIDTH 25 0
BBX 23 38 4 0
BITMAP
000040
0001E0
0003E0
0007C0
000F80
001E00
003800
002000
000000
003808
007E18
00FFF0
0087F0
0181C0
001E00
00FFC0
03E0F0
07C0F8
0FC078
1F807C
3F007C
3F007C
7E007E
7E007E
7E007E
FE007E
FC00FE
FC00FC
FC00FC
FC00FC
FC01F8
7C01F8
7C03F0
3C03E0
3E07C0
1F0F80
07FF00
00F800
ENDCHAR
STARTCHAR uni1E4D
ENCODING 7757
SWIDTH 562 0
DWIDTH 19 0
BBX 19 33 2 0
BITMAP
000100
000780
000F80
001F00
003E00
007800
00E000
008000
000000
000020
00F840
03FFC0
03FF80
021F00
040000
000000
00F800
07FF00
0FCF80
1F0780
3F07C0
3E07C0
7C07C0
7C0FC0
FC0FC0
F80F80
F80F80
F81F00
F83F00
783E00
787C00
3FF800
07C000
ENDCHAR
STARTCHAR uni1E4E
ENCODING 7758
SWIDTH 761 0
DWIDTH 25 0
BBX 23 35 4 0
BITMAP
00C180
03E3E0
03E3E0
03E3E0
00C180
000000
003808
007E18
00FFF0
0087F0
0181C0
001E00
00FFC0
03E0F0
07C0F8
0FC078
1F807C
3F007C
3F007C
7E007E
7E007E
7E007E
FE007E
FC00FE
FC00FC
FC00FC
FC00FC
FC01F8
7C01F8
7C03F0
3C03E0
3E07C0
1F0F80
07FF00
00F800
ENDCHAR
STARTCHAR uni1E4F
ENCODING 7759
SWIDTH 562 0
DWIDTH 19 0
BBX 19 30 2 0
BITMAP
018300
07C7C0
07C7C0
07C7C0
018300
000000
000020
00F840
03FFC0
03FF80
021F00
040000
000000
00F800
07FF00
0FCF80
1F0780
3F07C0
3E07C0
7C07C0
7C0FC0
FC0FC0
F80F80
F80F80
F81F00
F83F00
783E00
787C00
3FF800
07C000
ENDCHAR
STARTCHAR uni1E50
ENCODING 7760
SWIDTH 761 0
DWIDTH 25 0
BBX 23 36 4 0
BITMAP
010000
03C000
03E000
01F000
00F800
003C00
000E00
000200
000000
01FFC0
01FFC0
000000
001E00
00FFC0
03E0F0
07C0F8
0FC078
1F807C
3F007C
3F007C
7E007E
7E007E
7E007E
FE007E
FC00FE
FC00FC
FC00FC
FC00FC
FC01F8
7C01F8
7C03F0
3C03E0
3E07C0
1F0F80
07FF00
00F800
ENDCHAR
STARTCHAR uni1E51
ENCODING 7761
SWIDTH 562 0
DWIDTH 19 0
BBX 18 29 2 0
BITMAP
040000
0F0000
0F8000
07C000
03E000
00F000
003800
000800
000000
0FFE00
0FFE00
000000
00F800
07FF00
0FCF80
1F0780
3F07C0
3E07C0
7C07C0
7C0FC0
FC0FC0
F80F80
F80F80
F81F00
F83F00
783E00
787C00
3FF800
07C000
ENDCHAR
STARTCHAR uni1E52
ENCODING 7762
SWIDTH 761 0
DWIDTH 25 0
BBX 23 36 4 0
BITMAP
000080
0003C0
0007C0
000F80
001F00
003C00
007000
004000
000000
01FFC0
01FFC0
000000
001E00
00FFC0
03E0F0
07C0F8
0FC078
1F807C
3F007C
3F007C
7E007E
7E007E
7E007E
FE007E
FC00FE
FC00FC
FC00FC
FC00FC
FC01F8
7C01F8
7C03F0
3C03E0
3E07C0
1F0F80
07FF00
00F800
ENDCHAR
STARTCHAR uni1E53
ENCODING 7763
SWIDTH 562 0
DWIDTH 19 0
BBX 18 29 2 0
BITMAP
000200
000F00
001F00
003E00
007C00
00F000
01C000
010000
000000
0FFE00
0FFE00
000000
00F800
07FF00
0FCF80
1F0780
3F07C0
3E07C0
7C07C0
7C0FC0
FC0FC0
F80F80
F80F80
F81F00
F83F00
783E00
787C00
3FF800
07C000
ENDCHAR
STARTCHAR uni1E54
ENCODING 7764
SWIDTH 660 0
DWIDTH 22 0
BBX 23 33 1 0
BITMAP
000040
0001E0
0003E0
0007C0
000F80
001E00
003800
002000
000000
07FFC0
01FFF0
01F8F8
01F87C
01F03C
01F03E
01F03E
03F03E
03E03E
03E07C
03E07C
03E0F8
07E1F0
07FFC0
07FE00
07C000
07C000
0FC000
0F8000
0F8000
0F8000
1F8000
1F8000
FFF000
ENDCHAR
STARTCHAR uni1E55
ENCODING 7765
SWIDTH 606 0
DWIDTH 20 0
BBX 20 34 2 -8
BITMAP
000100
000780
000F80
001F00
003E00
007800
00E000
008000
000000
07C180
3FC7E0
0F8FE0
0F99F0
0FA1F0
0F61F0
0F41F0
0F83E0
1F83E0
1F03E0
1F03C0
1F07C0
3E0780
3E0F80
3E1F00
3FFC00
3CF000
7C0000
7C0000
7C0000
780000
780000
F80000
F80000
F00000
ENDCHAR
STARTCHAR uni1E56
ENCODING 7766
SWIDTH 660 0
DWIDTH 22 0
BBX 23 30 1 0
BITMAP
000E00
001F00
001F00
001F00
000E00
000000
07FFC0
01FFF0
01F8F8
01F87C
01F03C
01F03E
01F03E
03F03E
03E03E
03E07C
03E07C
03E0F8
07E1F0
07FFC0
07FE00
07C000
07C000
0FC000
0F8000
0F8000
0F8000
1F8000
1F8000
FFF000
ENDCHAR
STARTCHAR uni1E57
ENCODING 7767
SWIDTH 606 0
DWIDTH 20 0
BBX 20 31 2 -8
BITMAP
007000
00F800
00F800
00F800
007000
000000
07C180
3FC7E0
0F8FE0
0F99F0
0FA1F0
0F61F0
0F41F0
0F83E0
1F83E0
1F03E0
1F03C0
1F07C0
3E0780
3E0F80
3E1F00
3FFC00
3CF000
7C0000
7C0000
7C0000
780000
780000
F80000
F80000
F00000
ENDCHAR
STARTCHAR uni1E58
ENCODING 7768
SWIDTH 681 0
DWIDTH 23 0
BBX 22 30 2 0
BITMAP
001C00
003E00
003E00
003E00
001C00
000000
07FF80
01FFF0
01F0F8
01F0F8
01F07C
03E07C
03E07C
03E07C
03E07C
03E0F8
07C1F0
07C3E0
07FF80
07FF80
07C3C0
0F83E0
0F83E0
0F83E0
0F83E0
0F83E0
1F03E0
1F03E0
1F01F0
FFC0FC
ENDCHAR
STARTCHAR uni1E59
ENCODING 7769
SWIDTH 440 0
DWIDTH 15 0
BBX 15 23 3 0
BITMAP
01C0
03E0
03E0
03E0
01C0
0000
0F0C
7F3E
1E7E
1EFC
1F98
1F00
3F00
3E00
3E00
3E00
7C00
7C00
7C00
7C00
F800
F800
F000
ENDCHAR
STARTCHAR uni1E5A
ENCODING 7770
SWIDTH 681 0
DWIDTH 23 0
BBX 22 30 2 -6
BITMAP
07FF80
01FFF0
01F0F8
01F0F8
01F07C
03E07C
03E07C
03E07C
03E07C
03E0F8
07C1F0
07C3E0
07FF80
07FF80
07C3C0
0F83E0
0F83E0
0F83E0
0F83E0
0F83E0
1F03E0
1F03E0
1F01F0
FFC0FC
000000
003800
007C00
007C00
007C00
003800
ENDCHAR
STARTCHAR uni1E5B
ENCODING 7771
SWIDTH 440 0
DWIDTH 15 0
BBX 15 23 3 -6
BITMAP
0F0C
7F3E
1E7E
1EFC
1F98
1F00
3F00
3E00
3E00
3E00
7C00
7C00
7C00
7C00
F800
F800
F000
0000
1C00
3E00
3E00
3E00
1C00
ENDCHAR
STARTCHAR uni1E5C
ENCODING 7772
SWIDTH 681 0
DWIDTH 23 0
BBX 22 33 2 -6
BITMAP
01FFC0
01FFC0
000000
07FF80
01FFF0
01F0F8
01F0F8
01F07C
03E07C
03E07C
03E07C
03E07C
03E0F8
07C1F0
07C3E0
07FF80
07FF80
07C3C0
0F83E0
0F83E0
0F83E0
0F83E0
0F83E0
1F03E0
1F03E0
1F01F0
FFC0FC
000000
003800
007C00
007C00
007C00
003800
ENDCHAR
STARTCHAR uni1E5D
ENCODING 7773
SWIDTH 440 0
DWIDTH 15 0
BBX 15 26 3 -6
BITMAP
3FF8
3FF8
0000
0F0C
7F3E
1E7E
1EFC
1F98
1F00
3F00
3E00
3E00
3E00
7C00
7C00
7C00
7C00
F800
F800
F000
0000
1C00
3E00
3E00
3E00
1C00
ENDCHAR
STARTCHAR uni1E5E
ENCODING 7774
SWIDTH 681 0
DWIDTH 23 0
BBX 22 27 2 -3
BITMAP
07FF80
01FFF0
01F0F8
01F0F8
01F07C
03E07C
03E07C
03E07C
03E07C
03E0F8
07C1F0
07C3E0
07FF80
07FF80
07C3C0
0F83E0
0F83E0
0F83E0
0F83E0
0F83E0
1F03E0
1F03E0
1F01F0
FFC0FC
000000
03FF80
03FF80
ENDCHAR
STARTCHAR uni1E5F
ENCODING 7775
SWIDTH 440 0
DWIDTH 15 0
BBX 16 20 2 -3
BITMAP
0786
3F9F
0F3F
0F7E
0FCC
0F80
1F80
1F00
1F00
1F00
3E00
3E00
3E00
3E00
7C00
7C00
7800
0000
FFE0
FFE0
ENDCHAR
STARTCHAR uni1E60
ENCODING 7776
SWIDTH 551 0
DWIDTH 18 0
BBX 18 30 2 0
BITMAP
00E000
01F000
01F000
01F000
00E000
000000
003E00
01FF80
0783C0
0F81C0
0F01C0
1F0080
1F0080
1F8000
1FC000
0FF000
0FF800
07FC00
01FF00
00FF00
007F80
401F80
401F80
600F80
E00F80
F00F00
F01F00
7C3E00
3FF800
03C000
ENDCHAR
STARTCHAR uni1E61
ENCODING 7777
SWIDTH 417 0
DWIDTH 14 0
BBX 15 23 1 0
BITMAP
01C0
03E0
03E0
03E0
01C0
0000
01F0
07FC
0E3C
1E1E
1E0C
1F00
0F80
0FC0
07F0
03F0
01F0
20F8
7078
F878
7C70
3FE0
0F80
ENDCHAR
STARTCHAR uni1E62
ENCODING 7778
SWIDTH 551 0
DWIDTH 18 0
BBX 18 30 2 -6
BITMAP
003E00
01FF80
0783C0
0F81C0
0F01C0
1F0080
1F0080
1F8000
1FC000
0FF000
0FF800
07FC00
01FF00
00FF00
007F80
401F80
401F80
600F80
E00F80
F00F00
F01F00
7C3E00
3FF800
03C000
000000
01C000
03E000
03E000
03E000
01C000
ENDCHAR
STARTCHAR uni1E63
ENCODING 7779
SWIDTH 417 0
DWIDTH 14 0
BBX 15 23 1 -6
BITMAP
01F0
07FC
0E3C
1E1E
1E0C
1F00
0F80
0FC0
07F0
03F0
01F0
20F8
7078
F878
7C70
3FE0
0F80
0000
0700
0F80
0F80
0F80
0700
ENDCHAR
STARTCHAR uni1E64
ENCODING 7780
SWIDTH 551 0
DWIDTH 18 0
BBX 18 39 2 0
BITMAP
007000
00F800
00F800
00F800
007000
000000
000200
000F00
001F00
003E00
007C00
00F000
01C000
010000
000000
003E00
01FF80
0783C0
0F81C0
0F01C0
1F0080
1F0080
1F8000
1FC000
0FF000
0FF800
07FC00
01FF00
00FF00
007F80
401F80
401F80
600F80
E00F80
F00F00
F01F00
7C3E00
3FF800
03C000
ENDCHAR
STARTCHAR uni1E65
ENCODING 7781
SWIDTH 417 0
DWIDTH 14 0
BBX 15 32 1 0
BITMAP
00E0
01F0
01F0
01F0
00E0
0000
0004
001E
003E
007C
00F8
01E0
0380
0200
0000
01F0
07FC
0E3C
1E1E
1E0C
1F00
0F80
0FC0
07F0
03F0
01F0
20F8
7078
F878
7C70
3FE0
0F80
ENDCHAR
STARTCHAR uni1E66
ENCODING 7782
SWIDTH 551 0
DWIDTH 18 0
BBX 20 36 2 0
BITMAP
003800
007C00
007C00
007C00
003800
000000
018070
00E3C0
007F80
003F00
003C00
000800
003E00
01FF80
0783C0
0F81C0
0F01C0
1F0080
1F0080
1F8000
1FC000
0FF000
0FF800
07FC00
01FF00
00FF00
007F80
401F80
401F80
600F80
E00F80
F00F00
F01F00
7C3E00
3FF800
03C000
ENDCHAR
STARTCHAR uni1E67
ENCODING 7783
SWIDTH 417 0
DWIDTH 14 0
BBX 18 31 1 0
BITMAP
007000
00F800
00F800
00F800
007000
000000
040080
0601C0
030300
01CE00
01FC00
00F800
00F000
006000
01F000
07FC00
0E3C00
1E1E00
1E0C00
1F0000
0F8000
0FC000
07F000
03F000
01F000
20F800
707800
F87800
7C7000
3FE000
0F8000
ENDCHAR
STARTCHAR uni1E68
ENCODING 7784
SWIDTH 551 0
DWIDTH 18 0
BBX 18 36 2 -6
BITMAP
00E000
01F000
01F000
01F000
00E000
000000
003E00
01FF80
0783C0
0F81C0
0F01C0
1F0080
1F0080
1F8000
1FC000
0FF000
0FF800
07FC00
01FF00
00FF00
007F80
401F80
401F80
600F80
E00F80
F00F00
F01F00
7C3E00
3FF800
03C000
000000
01C000
03E000
03E000
03E000
01C000
ENDCHAR
STARTCHAR uni1E69
ENCODING 7785
SWIDTH 417 0
DWIDTH 14 0
BBX 15 29 1 -6
BITMAP
01C0
03E0
03E0
03E0
01C0
0000
01F0
07FC
0E3C
1E1E
1E0C
1F00
0F80
0FC0
07F0
03F0
01F0
20F8
7078
F878
7C70
3FE0
0F80
0000
0700
0F80
0F80
0F80
0700
ENDCHAR
STARTCHAR uni1E6A
ENCODING 7786
SWIDTH 616 0
DWIDTH 21 0
BBX 21 30 4 0
BITMAP
007000
00F800
00F800
00F800
007000
000000
3FFFF8
7FFFF8
78FC78
70F838
60F830
40F830
C0F810
01F800
01F000
01F000
01F000
01F000
03E000
03E000
03E000
03E000
07E000
07C000
07C000
07C000
07C000
0FC000
0FC000
7FF000
ENDCHAR
STARTCHAR uni1E6B
ENCODING 7787
SWIDTH 359 0
DWIDTH 12 0
BBX 12 28 3 0
BITMAP
0700
0F80
0F80
0F80
0700
0000
00C0
0380
0F80
0F80
0F00
7FF0
FFF0
1F00
1E00
3E00
3E00
3E00
3C00
7C00
7C00
7C00
78C0
F880
F900
FE00
FC00
3800
ENDCHAR
STARTCHAR uni1E6C
ENCODING 7788
SWIDTH 616 0
DWIDTH 21 0
BBX 21 30 4 -6
BITMAP
3FFFF8
7FFFF8
78FC78
70F838
60F830
40F830
C0F810
01F800
01F000
01F000
01F000
01F000
03E000
03E000
03E000
03E000
07E000
07C000
07C000
07C000
07C000
0FC000
0FC000
7FF000
000000
01C000
03E000
03E000
03E000
01C000
ENDCHAR
STARTCHAR uni1E6D
ENCODING 7789
SWIDTH 359 0
DWIDTH 12 0
BBX 12 28 3 -6
BITMAP
00C0
0380
0F80
0F80
0F00
7FF0
FFF0
1F00
1E00
3E00
3E00
3E00
3C00
7C00
7C00
7C00
78C0
F880
F900
FE00
FC00
3800
0000
1C00
3E00
3E00
3E00
1C00
ENDCHAR
STARTCHAR uni1E6E
ENCODING 7790
SWIDTH 616 0
DWIDTH 21 0
BBX 21 27 4 -3
BITMAP
3FFFF8
7FFFF8
78FC78
70F838
60F830
40F830
C0F810
01F800
01F000
01F000
01F000
01F000
03E000
03E000
03E000
03E000
07E000
07C000
07C000
07C000
07C000
0FC000
0FC000
7FF000
000000
1FFC00
1FFC00
ENDCHAR
STARTCHAR uni1E6F
ENCODING 7791
SWIDTH 359 0
DWIDTH 12 0
BBX 13 25 2 -3
BITMAP
0060
01C0
07C0
07C0
0780
3FF8
7FF8
0F80
0F00
1F00
1F00
1F00
1E00
3E00
3E00
3E00
3C60
7C40
7C80
7F00
7E00
1C00
0000
FFE0
FFE0
ENDCHAR
STARTCHAR uni1E70
ENCODING 7792
SWIDTH 616 0
DWIDTH 21 0
BBX 21 33 4 -9
BITMAP
3FFFF8
7FFFF8
78FC78
70F838
60F830
40F830
C0F810
01F800
01F000
01F000
01F000
01F000
03E000
03E000
03E000
03E000
07E000
07C000
07C000
07C000
07C000
0FC000
0FC000
7FF000
000000
008000
01C000
03E000
07F000
0E7000
183800
701C00
200800
ENDCHAR
STARTCHAR uni1E71
ENCODING 7793
SWIDTH 359 0
DWIDTH 12 0
BBX 15 31 0 -9
BITMAP
0018
0070
01F0
01F0
01E0
0FFE
1FFE
03E0
03C0
07C0
07C0
07C0
0780
0F80
0F80
0F80
0F18
1F10
1F20
1FC0
1F80
0700
0000
0100
0380
07C0
0FE0
1CE0
3070
E038
4010
ENDCHAR
STARTCHAR uni1E72
ENCODING 7794
SWIDTH 776 0
DWIDTH 26 0
BBX 25 30 5 -6
BITMAP
7FE3FF80
1F007C00
1F007C00
1F00FC00
1F00F800
3E00F800
3E00F800
3E00F800
3E01F000
3E01F000
7C01F000
7C01F000
7C03F000
7C03E000
F803E000
F803E000
F807C000
F807C000
F807C000
F80F8000
780F0000
7C1F0000
1FFC0000
03E00000
00000000
060C0000
1F1F0000
1F1F0000
1F1F0000
060C0000
ENDCHAR
STARTCHAR uni1E73
ENCODING 7795
SWIDTH 634 0
DWIDTH 21 0
BBX 19 23 3 -6
BITMAP
0703C0
FF07C0
3F07C0
1E0780
3E0F80
3E0F80
3E0F80
3C1F00
7C1F00
7C3F00
7C7F00
785E20
F89E60
F93EC0
FF3F80
FC3F00
700C00
000000
0C1800
3E3E00
3E3E00
3E3E00
0C1800
ENDCHAR
STARTCHAR uni1E74
ENCODING 7796
SWIDTH 776 0
DWIDTH 26 0
BBX 25 30 5 -6
BITMAP
7FE3FF80
1F007C00
1F007C00
1F00FC00
1F00F800
3E00F800
3E00F800
3E00F800
3E01F000
3E01F000
7C01F000
7C01F000
7C03F000
7C03E000
F803E000
F803E000
F807C000
F807C000
F807C000
F80F8000
780F0000
7C1F0000
1FFC0000
03E00000
00000000
01008000
07F30000
0FFF0000
08FE0000
10080000
ENDCHAR
STARTCHAR uni1E75
ENCODING 7797
SWIDTH 634 0
DWIDTH 21 0
BBX 19 23 3 -6
BITMAP
0703C0
FF07C0
3F07C0
1E0780
3E0F80
3E0F80
3E0F80
3C1F00
7C1F00
7C3F00
7C7F00
785E20
F89E60
F93EC0
FF3F80
FC3F00
700C00
000000
020100
0FE600
1FFE00
11FC00
201000
ENDCHAR
STARTCHAR uni1E76
ENCODING 7798
SWIDTH 776 0
DWIDTH 26 0
BBX 25 33 5 -9
BITMAP
7FE3FF80
1F007C00
1F007C00
1F00FC00
1F00F800
3E00F800
3E00F800
3E00F800
3E01F000
3E01F000
7C01F000
7C01F000
7C03F000
7C03E000
F803E000
F803E000
F807C000
F807C000
F807C000
F80F8000
780F0000
7C1F0000
1FFC0000
03E00000
00000000
00200000
00700000
00F80000
01FC0000
039C0000
060E0000
1C070000
08020000
ENDCHAR
STARTCHAR uni1E77
ENCODING 7799
SWIDTH 634 0
DWIDTH 21 0
BBX 19 26 3 -9
BITMAP
0703C0
FF07C0
3F07C0
1E0780
3E0F80
3E0F80
3E0F80
3C1F00
7C1F00
7C3F00
7C7F00
785E20
F89E60
F93EC0
FF3F80
FC3F00
700C00
000000
004000
00E000
01F000
03F800
073800
0C1C00
380E00
100400
ENDCHAR
STARTCHAR uni1E78
ENCODING 7800
SWIDTH 776 0
DWIDTH 26 0
BBX 25 39 5 0
BITMAP
00004000
0001E000
0003E000
0007C000
000F8000
001E0000
00380000
00200000
00000000
00402000
01FCC000
03FFC000
023F8000
04020000
00000000
7FE3FF80
1F007C00
1F007C00
1F00FC00
1F00F800
3E00F800
3E00F800
3E00F800
3E01F000
3E01F000
7C01F000
7C01F000
7C03F000
7C03E000
F803E000
F803E000
F807C000
F807C000
F807C000
F80F8000
780F0000
7C1F0000
1FFC0000
03E00000
ENDCHAR
STARTCHAR uni1E79
ENCODING 7801
SWIDTH 634 0
DWIDTH 21 0
BBX 19 32 3 0
BITMAP
000200
000F00
001F00
003E00
007C00
00F000
01C000
010000
000000
010080
07F300
0FFF00
08FE00
100800
000000
0703C0
FF07C0
3F07C0
1E0780
3E0F80
3E0F80
3E0F80
3C1F00
7C1F00
7C3F00
7C7F00
785E20
F89E60
F93EC0
FF3F80
FC3F00
700C00
ENDCHAR
STARTCHAR uni1E7A
ENCODING 7802
SWIDTH 776 0
DWIDTH 26 0
BBX 25 33 5 0
BITMAP
00C18000
03E3E000
03E3E000
03E3E000
00C18000
00000000
01FFC000
01FFC000
00000000
7FE3FF80
1F007C00
1F007C00
1F00FC00
1F00F800
3E00F800
3E00F800
3E00F800
3E01F000
3E01F000
7C01F000
7C01F000
7C03F000
7C03E000
F803E000
F803E000
F807C000
F807C000
F807C000
F80F8000
780F0000
7C1F0000
1FFC0000
03E00000
ENDCHAR
STARTCHAR uni1E7B
ENCODING 7803
SWIDTH 634 0
DWIDTH 21 0
BBX 19 26 3 0
BITMAP
060C00
1F1F00
1F1F00
1F1F00
060C00
000000
0FFE00
0FFE00
000000
0703C0
FF07C0
3F07C0
1E0780
3E0F80
3E0F80
3E0F80
3C1F00
7C1F00
7C3F00
7C7F00
785E20
F89E60
F93EC0
FF3F80
FC3F00
700C00
ENDCHAR
STARTCHAR uni1E7C
ENCODING 7804
SWIDTH 630 0
DWIDTH 21 0
BBX 23 30 4 0
BITMAP
010080
07F300
0FFF00
08FE00
100800
000000
FFC1FE
3E0078
3E0070
3E0060
3E00E0
1E00C0
1F01C0
1F0180
1F0300
1F0300
1F0600
1F0600
1F0C00
1F0C00
1F1800
0F1800
0FB000
0FB000
0FE000
0FE000
0FC000
0FC000
0F8000
0F8000
ENDCHAR
STARTCHAR uni1E7D
ENCODING 7805
SWIDTH 518 0
DWIDTH 17 0
BBX 15 23 4 0
BITMAP
0402
1FCC
3FFC
23F8
4020
0000
0F0C
FE1E
3E1E
3E1E
3E1E
3C1C
3C1C
7C1C
7C38
7C38
7830
F860
F8C0
F980
FF00
FE00
3800
ENDCHAR
STARTCHAR uni1E7E
ENCODING 7806
SWIDTH 630 0
DWIDTH 21 0
BBX 23 30 4 -6
BITMAP
FFC1FE
3E0078
3E0070
3E0060
3E00E0
1E00C0
1F01C0
1F0180
1F0300
1F0300
1F0600
1F0600
1F0C00
1F0C00
1F1800
0F1800
0FB000
0FB000
0FE000
0FE000
0FC000
0FC000
0F8000
0F8000
000000
01C000
03E000
03E000
03E000
01C000
ENDCHAR
STARTCHAR uni1E7F
ENCODING 7807
SWIDTH 518 0
DWIDTH 17 0
BBX 15 23 4 -6
BITMAP
0F0C
FE1E
3E1E
3E1E
3E1E
3C1C
3C1C
7C1C
7C38
7C38
7830
F860
F8C0
F980
FF00
FE00
3800
0000
0E00
1F00
1F00
1F00
0E00
ENDCHAR
STARTCHAR Wgrave
ENCODING 7808
SWIDTH 920 0
DWIDTH 31 0
BBX 32 33 4 0
BITMAP
00200000
00780000
007C0000
003E0000
001F0000
00078000
0001C000
00004000
00000000
FF80007F
3E01E01C
3E03E018
3E03E018
3E03E030
3E07E030
1E05E070
1E0DE060
1E0DE060
1E19E0C0
1E19E0C0
1E11E180
1E31F180
1E21F380
1E61F300
1E61F300
1EC1F600
1EC1F600
1E81FC00
1F81FC00
1F01F800
1F01F800
1F00F000
1E00F000
ENDCHAR
STARTCHAR wgrave
ENCODING 7809
SWIDTH 795 0
DWIDTH 27 0
BBX 25 26 4 0
BITMAP
01000000
03C00000
03E00000
01F00000
00F80000
003C0000
000E0000
00020000
00000000
0F0F8700
FF0F8780
3E0F0780
3E1F0780
3E1F0700
3E1F0700
3C1E0700
7C3E0600
7C3E0E00
7C7E0C00
785C1800
F8BC1000
F8BC2000
F93C4000
FE3F8000
FC1F0000
700C0000
ENDCHAR
STARTCHAR Wacute
ENCODING 7810
SWIDTH 920 0
DWIDTH 31 0
BBX 32 33 4 0
BITMAP
00001000
00007800
0000F800
0001F000
0003E000
00078000
000E0000
00080000
00000000
FF80007F
3E01E01C
3E03E018
3E03E018
3E03E030
3E07E030
1E05E070
1E0DE060
1E0DE060
1E19E0C0
1E19E0C0
1E11E180
1E31F180
1E21F380
1E61F300
1E61F300
1EC1F600
1EC1F600
1E81FC00
1F81FC00
1F01F800
1F01F800
1F00F000
1E00F000
ENDCHAR
STARTCHAR wacute
ENCODING 7811
SWIDTH 795 0
DWIDTH 27 0
BBX 25 26 4 0
BITMAP
00004000
0001E000
0003E000
0007C000
000F8000
001E0000
00380000
00200000
00000000
0F0F8700
FF0F8780
3E0F0780
3E1F0780
3E1F0700
3E1F0700
3C1E0700
7C3E0600
7C3E0E00
7C7E0C00
785C1800
F8BC1000
F8BC2000
F93C4000
FE3F8000
FC1F0000
700C0000
ENDCHAR
STARTCHAR Wdieresis
ENCODING 7812
SWIDTH 920 0
DWIDTH 31 0
BBX 32 30 4 0
BITMAP
00306000
00F8F800
00F8F800
00F8F800
00306000
00000000
FF80007F
3E01E01C
3E03E018
3E03E018
3E03E030
3E07E030
1E05E070
1E0DE060
1E0DE060
1E19E0C0
1E19E0C0
1E11E180
1E31F180
1E21F380
1E61F300
1E61F300
1EC1F600
1EC1F600
1E81FC00
1F81FC00
1F01F800
1F01F800
1F00F000
1E00F000
ENDCHAR
STARTCHAR wdieresis
ENCODING 7813
SWIDTH 795 0
DWIDTH 27 0
BBX 25 23 4 0
BITMAP
00C18000
03E3E000
03E3E000
03E3E000
00C18000
00000000
0F0F8700
FF0F8780
3E0F0780
3E1F0780
3E1F0700
3E1F0700
3C1E0700
7C3E0600
7C3E0E00
7C7E0C00
785C1800
F8BC1000
F8BC2000
F93C4000
FE3F8000
FC1F0000
700C0000
ENDCHAR
STARTCHAR uni1E86
ENCODING 7814
SWIDTH 920 0
DWIDTH 31 0
BBX 32 30 4 0
BITMAP
00070000
000F8000
000F8000
000F8000
00070000
00000000
FF80007F
3E01E01C
3E03E018
3E03E018
3E03E030
3E07E030
1E05E070
1E0DE060
1E0DE060
1E19E0C0
1E19E0C0
1E11E180
1E31F180
1E21F380
1E61F300
1E61F300
1EC1F600
1EC1F600
1E81FC00
1F81FC00
1F01F800
1F01F800
1F00F000
1E00F000
ENDCHAR
STARTCHAR uni1E87
ENCODING 7815
SWIDTH 795 0
DWIDTH 27 0
BBX 25 23 4 0
BITMAP
001C0000
003E0000
003E0000
003E0000
001C0000
00000000
0F0F8700
FF0F8780
3E0F0780
3E1F0780
3E1F0700
3E1F0700
3C1E0700
7C3E0600
7C3E0E00
7C7E0C00
785C1800
F8BC1000
F8BC2000
F93C4000
FE3F8000
FC1F0000
700C0000
ENDCHAR
STARTCHAR uni1E88
ENCODING 7816
SWIDTH 920 0
DWIDTH 31 0
BBX 32 30 4 -6
BITMAP
FF80007F
3E01E01C
3E03E018
3E03E018
3E03E030
3E07E030
1E05E070
1E0DE060
1E0DE060
1E19E0C0
1E19E0C0
1E11E180
1E31F180
1E21F380
1E61F300
1E61F300
1EC1F600
1EC1F600
1E81FC00
1F81FC00
1F01F800
1F01F800
1F00F000
1E00F000
00000000
000E0000
001F0000
001F0000
001F0000
000E0000
ENDCHAR
STARTCHAR uni1E89
ENCODING 7817
SWIDTH 795 0
DWIDTH 27 0
BBX 25 23 4 -6
BITMAP
0F0F8700
FF0F8780
3E0F0780
3E1F0780
3E1F0700
3E1F0700
3C1E0700
7C3E0600
7C3E0E00
7C7E0C00
785C1800
F8BC1000
F8BC2000
F93C4000
FE3F8000
FC1F0000
700C0000
00000000
00E00000
01F00000
01F00000
01F00000
00E00000
ENDCHAR
STARTCHAR uni1E8A
ENCODING 7818
SWIDTH 630 0
DWIDTH 21 0
BBX 27 30 -1 0
BITMAP
00070000
000F8000
000F8000
000F8000
00070000
00000000
07FF3FE0
01F80F00
00F80E00
00FC1C00
007C3800
007C3000
007E6000
003EC000
003FC000
001F8000
001F0000
001F8000
000F8000
001F8000
003FC000
0077C000
00E7E000
00C3E000
01C3E000
0383F000
0701F000
0E01F800
3E01F800
FF8FFF00
ENDCHAR
STARTCHAR uni1E8B
ENCODING 7819
SWIDTH 516 0
DWIDTH 17 0
BBX 19 23 0 0
BITMAP
007000
00F800
00F800
00F800
007000
000000
0060E0
07E3E0
1FE7E0
01E6C0
01F800
01F800
01F000
00F000
00F800
00F800
00F840
017840
237CC0
727D80
FC3F00
7C3F00
301C00
ENDCHAR
STARTCHAR uni1E8C
ENCODING 7820
SWIDTH 630 0
DWIDTH 21 0
BBX 27 30 -1 0
BITMAP
00306000
00F8F800
00F8F800
00F8F800
00306000
00000000
07FF3FE0
01F80F00
00F80E00
00FC1C00
007C3800
007C3000
007E6000
003EC000
003FC000
001F8000
001F0000
001F8000
000F8000
001F8000
003FC000
0077C000
00E7E000
00C3E000
01C3E000
0383F000
0701F000
0E01F800
3E01F800
FF8FFF00
ENDCHAR
STARTCHAR uni1E8D
ENCODING 7821
SWIDTH 516 0
DWIDTH 17 0
BBX 19 23 0 0
BITMAP
030600
0F8F80
0F8F80
0F8F80
030600
000000
0060E0
07E3E0
1FE7E0
01E6C0
01F800
01F800
01F000
00F000
00F800
00F800
00F840
017840
237CC0
727D80
FC3F00
7C3F00
301C00
ENDCHAR
STARTCHAR uni1E8E
ENCODING 7822
SWIDTH 622 0
DWIDTH 21 0
BBX 21 30 5 0
BITMAP
00E000
01F000
01F000
01F000
00E000
000000
FFCFF8
3E01E0
3E01C0
3E0380
1F0700
1F0600
1F0E00
1F0C00
0F1800
0F3800
0FB000
0FE000
07E000
07C000
07C000
078000
078000
078000
0F8000
0F8000
0F0000
0F0000
1F0000
FFE000
ENDCHAR
STARTCHAR uni1E8F
ENCODING 7823
SWIDTH 489 0
DWIDTH 16 0
BBX 19 31 0 -8
BITMAP
007000
00F800
00F800
00F800
007000
000000
00C040
0FC1E0
3FC1E0
07C1C0
07C1C0
03C1C0
03C380
03C380
03C300
03E300
03E600
03E400
03EC00
01E800
01F800
01F000
01F000
01E000
01E000
01C000
618000
F10000
FB0000
FE0000
780000
ENDCHAR
STARTCHAR uni1E90
ENCODING 7824
SWIDTH 618 0
DWIDTH 21 0
BBX 25 33 0 0
BITMAP
00010000
00038000
0007C000
000FE000
001CE000
00307000
00E03800
00401000
00000000
01FFFF80
01FFFF00
03C07F00
03007E00
0300FC00
0201F800
0203F000
0007E000
000FE000
000FC000
001F8000
003F0000
007E0000
00FC0000
01F80000
01F80000
03F00000
07E00C00
0FC01800
1F801800
3F003800
3F00F000
7FFFF000
FFFFF000
ENDCHAR
STARTCHAR uni1E91
ENCODING 7825
SWIDTH 466 0
DWIDTH 16 0
BBX 17 26 1 0
BITMAP
002000
007000
00F800
01FC00
039C00
060E00
1C0700
080200
000000
07FF80
0FFF00
0FFE00
181C00
103800
307000
00E000
01C000
038000
070100
0E0100
1C0300
3F8600
7FFE00
7FFE00
E1FC00
E03800
ENDCHAR
STARTCHAR uni1E92
ENCODING 7826
SWIDTH 618 0
DWIDTH 21 0
BBX 25 30 0 -6
BITMAP
01FFFF80
01FFFF00
03C07F00
03007E00
0300FC00
0201F800
0203F000
0007E000
000FE000
000FC000
001F8000
003F0000
007E0000
00FC0000
01F80000
01F80000
03F00000
07E00C00
0FC01800
1F801800
3F003800
3F00F000
7FFFF000
FFFFF000
00000000
00700000
00F80000
00F80000
00F80000
00700000
ENDCHAR
STARTCHAR uni1E93
ENCODING 7827
SWIDTH 466 0
DWIDTH 16 0
BBX 17 23 1 -6
BITMAP
07FF80
0FFF00
0FFE00
181C00
103800
307000
00E000
01C000
038000
070100
0E0100
1C0300
3F8600
7FFE00
7FFE00
E1FC00
E03800
000000
038000
07C000
07C000
07C000
038000
ENDCHAR
STARTCHAR uni1E94
ENCODING 7828
SWIDTH 618 0
DWIDTH 21 0
BBX 25 27 0 -3
BITMAP
01FFFF80
01FFFF00
03C07F00
03007E00
0300FC00
0201F800
0203F000
0007E000
000FE000
000FC000
001F8000
003F0000
007E0000
00FC0000
01F80000
01F80000
03F00000
07E00C00
0FC01800
1F801800
3F003800
3F00F000
7FFFF000
FFFFF000
00000000
07FF0000
07FF0000
ENDCHAR
STARTCHAR uni1E95
ENCODING 7829
SWIDTH 466 0
DWIDTH 16 0
BBX 17 20 1 -3
BITMAP
07FF80
0FFF00
0FFE00
181C00
103800
307000
00E000
01C000
038000
070100
0E0100
1C0300
3F8600
7FFE00
7FFE00
E1FC00
E03800
000000
3FF800
3FF800
ENDCHAR
STARTCHAR uni1E96
ENCODING 7830
SWIDTH 629 0
DWIDTH 21 0
BBX 19 28 3 -3
BITMAP
01C000
3FC000
0FC000
078000
0F8000
0F8000
0F8000
0F0000
1F0380
1F1FC0
1F3FC0
1E67C0
1E47C0
3E8780
3F0F80
3F0F80
3E0F00
7E1F00
7C1F00
7C1E20
7C3E40
783EC0
F83F80
F83F00
F01C00
000000
1FFC00
1FFC00
ENDCHAR
STARTCHAR uni1E97
ENCODING 7831
SWIDTH 359 0
DWIDTH 12 0
BBX 13 28 3 0
BITMAP
3060
F8F8
F8F8
F8F8
3060
0000
00C0
0380
0F80
0F80
0F00
7FF0
FFF0
1F00
1E00
3E00
3E00
3E00
3C00
7C00
7C00
7C00
78C0
F880
F900
FE00
FC00
3800
ENDCHAR
STARTCHAR uni1E98
ENCODING 7832
SWIDTH 795 0
DWIDTH 27 0
BBX 25 25 4 0
BITMAP
001E0000
00310000
00218000
00618000
00618000
00230000
001C0000
00000000
0F0F8700
FF0F8780
3E0F0780
3E1F0780
3E1F0700
3E1F0700
3C1E0700
7C3E0600
7C3E0E00
7C7E0C00
785C1800
F8BC1000
F8BC2000
F93C4000
FE3F8000
FC1F0000
700C0000
ENDCHAR
STARTCHAR uni1E99
ENCODING 7833
SWIDTH 489 0
DWIDTH 16 0
BBX 19 33 0 -8
BITMAP
00F000
018800
010C00
030C00
030C00
011800
00E000
000000
00C040
0FC1E0
3FC1E0
07C1C0
07C1C0
03C1C0
03C380
03C380
03C300
03E300
03E600
03E400
03EC00
01E800
01F800
01F000
01F000
01E000
01E000
01C000
618000
F10000
FB0000
FE0000
780000
ENDCHAR
STARTCHAR uni1EA0
ENCODING 7840
SWIDTH 634 0
DWIDTH 21 0
BBX 23 30 -1 -6
BITMAP
0003E0
0003E0
0007E0
0007E0
000FE0
000FE0
001BE0
001BE0
0033E0
0031E0
0061F0
0061F0
00C1F0
00C1F0
01FFF0
03FFF0
0301F0
0701F0
0601F0
0E01F0
0C01F0
1C00F8
3C01F8
FF07FE
000000
001C00
003E00
003E00
003E00
001C00
ENDCHAR
STARTCHAR uni1EA1
ENCODING 7841
SWIDTH 596 0
DWIDTH 20 0
BBX 19 23 2 -6
BITMAP
0073C0
03FFC0
07C7C0
0F87C0
1F0780
3E0F80
3E0F80
3C1F00
7C1F00
7C3F00
F83F00
F85E20
F89E60
F9BEC0
FF3F80
7E3F00
301C00
000000
01C000
03E000
03E000
03E000
01C000
ENDCHAR
STARTCHAR uni1EA4
ENCODING 7844
SWIDTH 634 0
DWIDTH 21 0
BBX 23 39 -1 0
BITMAP
000010
000078
0000F8
0001F0
0003E0
000780
000E00
000800
000000
000040
0001F0
0003F8
000FFC
003C0E
000000
0003E0
0003E0
0007E0
0007E0
000FE0
000FE0
001BE0
001BE0
0033E0
0031E0
0061F0
0061F0
00C1F0
00C1F0
01FFF0
03FFF0
0301F0
0701F0
0601F0
0E01F0
0C01F0
1C00F8
3C01F8
FF07FE
ENDCHAR
STARTCHAR uni1EA5
ENCODING 7845
SWIDTH 596 0
DWIDTH 20 0
BBX 19 34 2 0
BITMAP
000100
000780
000F80
001F00
003E00
007800
00E000
008000
000000
000800
001C00
003E00
007F00
00E780
018380
0700C0
020080
0073C0
03FFC0
07C7C0
0F87C0
1F0780
3E0F80
3E0F80
3C1F00
7C1F00
7C3F00
F83F00
F85E20
F89E60
F9BEC0
FF3F80
7E3F00
301C00
ENDCHAR
STARTCHAR uni1EA6
ENCODING 7846
SWIDTH 634 0
DWIDTH 21 0
BBX 23 39 -1 0
BITMAP
002000
007800
007C00
003E00
001F00
000780
0001C0
000040
000000
000040
0001F0
0003F8
000FFC
003C0E
000000
0003E0
0003E0
0007E0
0007E0
000FE0
000FE0
001BE0
001BE0
0033E0
0031E0
0061F0
0061F0
00C1F0
00C1F0
01FFF0
03FFF0
0301F0
0701F0
0601F0
0E01F0
0C01F0
1C00F8
3C01F8
FF07FE
ENDCHAR
STARTCHAR uni1EA7
ENCODING 7847
SWIDTH 596 0
DWIDTH 20 0
BBX 19 34 2 0
BITMAP
020000
078000
07C000
03E000
01F000
007800
001C00
000400
000000
000800
001C00
003E00
007F00
00E780
018380
0700C0
020080
0073C0
03FFC0
07C7C0
0F87C0
1F0780
3E0F80
3E0F80
3C1F00
7C1F00
7C3F00
F83F00
F85E20
F89E60
F9BEC0
FF3F80
7E3F00
301C00
ENDCHAR
STARTCHAR uni1EAA
ENCODING 7850
SWIDTH 634 0
DWIDTH 21 0
BBX 23 36 -1 0
BITMAP
000804
003F98
007FF8
0047F0
008040
000000
000040
0001F0
0003F8
000FFC
003C0E
000000
0003E0
0003E0
0007E0
0007E0
000FE0
000FE0
001BE0
001BE0
0033E0
0031E0
0061F0
0061F0
00C1F0
00C1F0
01FFF0
03FFF0
0301F0
0701F0
0601F0
0E01F0
0C01F0
1C00F8
3C01F8
FF07FE
ENDCHAR
STARTCHAR uni1EAB
ENCODING 7851
SWIDTH 596 0
DWIDTH 20 0
BBX 19 31 2 0
BITMAP
008040
03F980
07FF80
047F00
080400
000000
000800
001C00
003E00
007F00
00E780
018380
0700C0
020080
0073C0
03FFC0
07C7C0
0F87C0
1F0780
3E0F80
3E0F80
3C1F00
7C1F00
7C3F00
F83F00
F85E20
F89E60
F9BEC0
FF3F80
7E3F00
301C00
ENDCHAR
STARTCHAR uni1EAC
ENCODING 7852
SWIDTH 634 0
DWIDTH 21 0
BBX 23 39 -1 -6
BITMAP
000100
000380
0007C0
000FE0
001CE0
003070
00E038
004010
000000
0003E0
0003E0
0007E0
0007E0
000FE0
000FE0
001BE0
001BE0
0033E0
0031E0
0061F0
0061F0
00C1F0
00C1F0
01FFF0
03FFF0
0301F0
0701F0
0601F0
0E01F0
0C01F0
1C00F8
3C01F8
FF07FE
000000
001C00
003E00
003E00
003E00
001C00
ENDCHAR
STARTCHAR uni1EAD
ENCODING 7853
SWIDTH 596 0
DWIDTH 20 0
BBX 19 32 2 -6
BITMAP
001000
003800
007C00
00FE00
01CE00
030700
0E0380
040100
000000
0073C0
03FFC0
07C7C0
0F87C0
1F0780
3E0F80
3E0F80
3C1F00
7C1F00
7C3F00
F83F00
F85E20
F89E60
F9BEC0
FF3F80
7E3F00
301C00
000000
01C000
03E000
03E000
03E000
01C000
ENDCHAR
STARTCHAR uni1EAE
ENCODING 7854
SWIDTH 634 0
DWIDTH 21 0
BBX 23 39 -1 0
BITMAP
000020
0000F0
0001F0
0003E0
0007C0
000F00
001C00
001000
000000
006030
007070
007FE0
003FC0
001F00
000000
0003E0
0003E0
0007E0
0007E0
000FE0
000FE0
001BE0
001BE0
0033E0
0031E0
0061F0
0061F0
00C1F0
00C1F0
01FFF0
03FFF0
0301F0
0701F0
0601F0
0E01F0
0C01F0
1C00F8
3C01F8
FF07FE
ENDCHAR
STARTCHAR uni1EAF
ENCODING 7855
SWIDTH 596 0
DWIDTH 20 0
BBX 19 32 2 0
BITMAP
000100
000780
000F80
001F00
003E00
007800
00E000
008000
000000
030180
038380
03FF00
01FE00
00F800
000000
0073C0
03FFC0
07C7C0
0F87C0
1F0780
3E0F80
3E0F80
3C1F00
7C1F00
7C3F00
F83F00
F85E20
F89E60
F9BEC0
FF3F80
7E3F00
301C00
ENDCHAR
STARTCHAR uni1EB0
ENCODING 7856
SWIDTH 634 0
DWIDTH 21 0
BBX 23 39 -1 0
BITMAP
004000
00F000
00F800
007C00
003E00
000F00
000380
000080
000000
006030
007070
007FE0
003FC0
001F00
000000
0003E0
0003E0
0007E0
0007E0
000FE0
000FE0
001BE0
001BE0
0033E0
0031E0
0061F0
0061F0
00C1F0
00C1F0
01FFF0
03FFF0
0301F0
0701F0
0601F0
0E01F0
0C01F0
1C00F8
3C01F8
FF07FE
ENDCHAR
STARTCHAR uni1EB1
ENCODING 7857
SWIDTH 596 0
DWIDTH 20 0
BBX 19 32 2 0
BITMAP
040000
0F0000
0F8000
07C000
03E000
00F000
003800
000800
000000
030180
038380
03FF00
01FE00
00F800
000000
0073C0
03FFC0
07C7C0
0F87C0
1F0780
3E0F80
3E0F80
3C1F00
7C1F00
7C3F00
F83F00
F85E20
F89E60
F9BEC0
FF3F80
7E3F00
301C00
ENDCHAR
STARTCHAR uni1EB4
ENCODING 7860
SWIDTH 634 0
DWIDTH 21 0
BBX 23 36 -1 0
BITMAP
001008
007F30
00FFF0
008FE0
010080
000000
006030
007070
007FE0
003FC0
001F00
000000
0003E0
0003E0
0007E0
0007E0
000FE0
000FE0
001BE0
001BE0
0033E0
0031E0
0061F0
0061F0
00C1F0
00C1F0
01FFF0
03FFF0
0301F0
0701F0
0601F0
0E01F0
0C01F0
1C00F8
3C01F8
FF07FE
ENDCHAR
STARTCHAR uni1EB5
ENCODING 7861
SWIDTH 596 0
DWIDTH 20 0
BBX 19 29 2 0
BITMAP
010080
07F300
0FFF00
08FE00
100800
000000
030180
038380
03FF00
01FE00
00F800
000000
0073C0
03FFC0
07C7C0
0F87C0
1F0780
3E0F80
3E0F80
3C1F00
7C1F00
7C3F00
F83F00
F85E20
F89E60
F9BEC0
FF3F80
7E3F00
301C00
ENDCHAR
STARTCHAR uni1EB6
ENCODING 7862
SWIDTH 634 0
DWIDTH 21 0
BBX 23 36 -1 -6
BITMAP
006030
007070
007FE0
003FC0
001F00
000000
0003E0
0003E0
0007E0
0007E0
000FE0
000FE0
001BE0
001BE0
0033E0
0031E0
0061F0
0061F0
00C1F0
00C1F0
01FFF0
03FFF0
0301F0
0701F0
0601F0
0E01F0
0C01F0
1C00F8
3C01F8
FF07FE
000000
001C00
003E00
003E00
003E00
001C00
ENDCHAR
STARTCHAR uni1EB7
ENCODING 7863
SWIDTH 596 0
DWIDTH 20 0
BBX 19 29 2 -6
BITMAP
030180
038380
03FF00
01FE00
00F800
000000
0073C0
03FFC0
07C7C0
0F87C0
1F0780
3E0F80
3E0F80
3C1F00
7C1F00
7C3F00
F83F00
F85E20
F89E60
F9BEC0
FF3F80
7E3F00
301C00
000000
01C000
03E000
03E000
03E000
01C000
ENDCHAR
STARTCHAR uni1EB8
ENCODING 7864
SWIDTH 622 0
DWIDTH 21 0
BBX 23 30 1 -6
BITMAP
07FFFE
01FFFE
01F81E
01F00C
01F00C
01F00C
01F00C
03F000
03E060
03E060
03E0C0
03FFC0
07FFC0
07C0C0
07C0C0
07C080
07C000
0F8018
0F8030
0F8030
0F8070
1F80E0
1FFFE0
FFFFE0
000000
007000
00F800
00F800
00F800
007000
ENDCHAR
STARTCHAR uni1EB9
ENCODING 7865
SWIDTH 476 0
DWIDTH 16 0
BBX 16 23 2 -6
BITMAP
0030
03FE
078F
1F0F
3E0F
3C1F
7C1E
7C7C
79F8
FFC0
FC00
F806
F80C
F808
7C38
3FE0
1F00
0000
0700
0F80
0F80
0F80
0700
ENDCHAR
STARTCHAR uni1EBC
ENCODING 7868
SWIDTH 622 0
DWIDTH 21 0
BBX 23 30 1 0
BITMAP
002010
00FE60
01FFE0
011FC0
020100
000000
07FFFE
01FFFE
01F81E
01F00C
01F00C
01F00C
01F00C
03F000
03E060
03E060
03E0C0
03FFC0
07FFC0
07C0C0
07C0C0
07C080
07C000
0F8018
0F8030
0F8030
0F8070
1F80E0
1FFFE0
FFFFE0
ENDCHAR
STARTCHAR uni1EBD
ENCODING 7869
SWIDTH 476 0
DWIDTH 16 0
BBX 16 23 2 0
BITMAP
0201
0FE6
1FFE
11FC
2010
0000
0030
03FE
078F
1F0F
3E0F
3C1F
7C1E
7C7C
79F8
FFC0
FC00
F806
F80C
F808
7C38
3FE0
1F00
ENDCHAR
STARTCHAR uni1EBE
ENCODING 7870
SWIDTH 622 0
DWIDTH 21 0
BBX 23 39 1 0
BITMAP
000020
0000F0
0001F0
0003E0
0007C0
000F00
001C00
001000
000000
000080
0003C0
000FE0
001FF0
00783C
000000
07FFFE
01FFFE
01F81E
01F00C
01F00C
01F00C
01F00C
03F000
03E060
03E060
03E0C0
03FFC0
07FFC0
07C0C0
07C0C0
07C080
07C000
0F8018
0F8030
0F8030
0F8070
1F80E0
1FFFE0
FFFFE0
ENDCHAR
STARTCHAR uni1EBF
ENCODING 7871
SWIDTH 476 0
DWIDTH 16 0
BBX 17 34 2 0
BITMAP
000200
000F00
001F00
003E00
007C00
00F000
01C000
010000
000000
001800
003C00
007C00
01FE00
03C600
070300
0C0180
080100
003000
03FE00
078F00
1F0F00
3E0F00
3C1F00
7C1E00
7C7C00
79F800
FFC000
FC0000
F80600
F80C00
F80800
7C3800
3FE000
1F0000
ENDCHAR
STARTCHAR uni1EC0
ENCODING 7872
SWIDTH 622 0
DWIDTH 21 0
BBX 23 39 1 0
BITMAP
004000
00F000
00F800
007C00
003E00
000F00
000380
000080
000000
000080
0003C0
000FE0
001FF0
00783C
000000
07FFFE
01FFFE
01F81E
01F00C
01F00C
01F00C
01F00C
03F000
03E060
03E060
03E0C0
03FFC0
07FFC0
07C0C0
07C0C0
07C080
07C000
0F8018
0F8030
0F8030
0F8070
1F80E0
1FFFE0
FFFFE0
ENDCHAR
STARTCHAR uni1EC1
ENCODING 7873
SWIDTH 476 0
DWIDTH 16 0
BBX 17 34 2 0
BITMAP
040000
0F0000
0F8000
07C000
03E000
00F000
003800
000800
000000
001800
003C00
007C00
01FE00
03C600
070300
0C0180
080100
003000
03FE00
078F00
1F0F00
3E0F00
3C1F00
7C1E00
7C7C00
79F800
FFC000
FC0000
F80600
F80C00
F80800
7C3800
3FE000
1F0000
ENDCHAR
STARTCHAR uni1EC4
ENCODING 7876
SWIDTH 622 0
DWIDTH 21 0
BBX 23 36 1 0
BITMAP
001008
007F30
00FFF0
008FE0
010080
000000
000080
0003C0
000FE0
001FF0
00783C
000000
07FFFE
01FFFE
01F81E
01F00C
01F00C
01F00C
01F00C
03F000
03E060
03E060
03E0C0
03FFC0
07FFC0
07C0C0
07C0C0
07C080
07C000
0F8018
0F8030
0F8030
0F8070
1F80E0
1FFFE0
FFFFE0
ENDCHAR
STARTCHAR uni1EC5
ENCODING 7877
SWIDTH 476 0
DWIDTH 16 0
BBX 17 31 2 0
BITMAP
010080
07F300
0FFF00
08FE00
100800
000000
001800
003C00
007C00
01FE00
03C600
070300
0C0180
080100
003000
03FE00
078F00
1F0F00
3E0F00
3C1F00
7C1E00
7C7C00
79F800
FFC000
FC0000
F80600
F80C00
F80800
7C3800
3FE000
1F0000
ENDCHAR
STARTCHAR uni1EC6
ENCODING 7878
SWIDTH 622 0
DWIDTH 21 0
BBX 23 39 1 -6
BITMAP
000400
000E00
001F00
003F80
007380
00C1C0
0380E0
010040
000000
07FFFE
01FFFE
01F81E
01F00C
01F00C
01F00C
01F00C
03F000
03E060
03E060
03E0C0
03FFC0
07FFC0
07C0C0
07C0C0
07C080
07C000
0F8018
0F8030
0F8030
0F8070
1F80E0
1FFFE0
FFFFE0
000000
007000
00F800
00F800
00F800
007000
ENDCHAR
STARTCHAR uni1EC7
ENCODING 7879
SWIDTH 476 0
DWIDTH 16 0
BBX 16 32 2 -6
BITMAP
0040
00E0
01F0
03F8
0738
0C1C
380E
1004
0000
0030
03FE
078F
1F0F
3E0F
3C1F
7C1E
7C7C
79F8
FFC0
FC00
F806
F80C
F808
7C38
3FE0
1F00
0000
0700
0F80
0F80
0F80
0700
ENDCHAR
STARTCHAR uni1ECA
ENCODING 7882
SWIDTH 386 0
DWIDTH 13 0
BBX 15 30 2 -6
BITMAP
07FE
01F0
01F0
01F0
01E0
03E0
03E0
03E0
03E0
03C0
07C0
07C0
07C0
07C0
0780
0F80
0F80
0F80
0F80
0F00
1F00
1F00
1F00
FFC0
0000
0700
0F80
0F80
0F80
0700
ENDCHAR
STARTCHAR uni1ECB
ENCODING 7883
SWIDTH 339 0
DWIDTH 11 0
BBX 10 30 3 -6
BITMAP
0380
0780
0FC0
0780
0780
0000
0000
0780
7F00
BF00
1F00
1E00
3E00
3E00
3E00
3C00
7C00
7C00
7880
F980
FB00
FE00
FC00
7000
0000
1C00
3E00
3E00
3E00
1C00
ENDCHAR
STARTCHAR uni1ECC
ENCODING 7884
SWIDTH 761 0
DWIDTH 25 0
BBX 23 30 4 -6
BITMAP
001E00
00FFC0
03E0F0
07C0F8
0FC078
1F807C
3F007C
3F007C
7E007E
7E007E
7E007E
FE007E
FC00FE
FC00FC
FC00FC
FC00FC
FC01F8
7C01F8
7C03F0
3C03E0
3E07C0
1F0F80
07FF00
00F800
000000
007000
00F800
00F800
00F800
007000
ENDCHAR
STARTCHAR uni1ECD
ENCODING 7885
SWIDTH 562 0
DWIDTH 19 0
BBX 18 23 2 -6
BITMAP
00F800
07FF00
0FCF80
1F0780
3F07C0
3E07C0
7C07C0
7C0FC0
FC0FC0
F80F80
F80F80
F81F00
F83F00
783E00
787C00
3FF800
07C000
000000
01C000
03E000
03E000
03E000
01C000
ENDCHAR
STARTCHAR uni1ED0
ENCODING 7888
SWIDTH 761 0
DWIDTH 25 0
BBX 23 39 4 0
BITMAP
000040
0001E0
0003E0
0007C0
000F80
001E00
003800
002000
000000
000200
000780
001FC0
003FE0
0070F0
008010
001E00
00FFC0
03E0F0
07C0F8
0FC078
1F807C
3F007C
3F007C
7E007E
7E007E
7E007E
FE007E
FC00FE
FC00FC
FC00FC
FC00FC
FC01F8
7C01F8
7C03F0
3C03E0
3E07C0
1F0F80
07FF00
00F800
ENDCHAR
STARTCHAR uni1ED1
ENCODING 7889
SWIDTH 562 0
DWIDTH 19 0
BBX 18 34 2 0
BITMAP
000200
000F00
001F00
003E00
007C00
00F000
01C000
010000
000000
001800
003C00
007C00
00FE00
03C700
070300
0E0180
080080
00F800
07FF00
0FCF80
1F0780
3F07C0
3E07C0
7C07C0
7C0FC0
FC0FC0
F80F80
F80F80
F81F00
F83F00
783E00
787C00
3FF800
07C000
ENDCHAR
STARTCHAR uni1ED2
ENCODING 7890
SWIDTH 761 0
DWIDTH 25 0
BBX 23 39 4 0
BITMAP
008000
01E000
01F000
00F800
007C00
001E00
000700
000100
000000
000200
000780
001FC0
003FE0
0070F0
008010
001E00
00FFC0
03E0F0
07C0F8
0FC078
1F807C
3F007C
3F007C
7E007E
7E007E
7E007E
FE007E
FC00FE
FC00FC
FC00FC
FC00FC
FC01F8
7C01F8
7C03F0
3C03E0
3E07C0
1F0F80
07FF00
00F800
ENDCHAR
STARTCHAR uni1ED3
ENCODING 7891
SWIDTH 562 0
DWIDTH 19 0
BBX 18 34 2 0
BITMAP
040000
0F0000
0F8000
07C000
03E000
00F000
003800
000800
000000
001800
003C00
007C00
00FE00
03C700
070300
0E0180
080080
00F800
07FF00
0FCF80
1F0780
3F07C0
3E07C0
7C07C0
7C0FC0
FC0FC0
F80F80
F80F80
F81F00
F83F00
783E00
787C00
3FF800
07C000
ENDCHAR
STARTCHAR uni1ED6
ENCODING 7894
SWIDTH 761 0
DWIDTH 25 0
BBX 23 36 4 0
BITMAP
002010
00FE60
01FFE0
011FC0
020100
000000
000200
000780
001FC0
003FE0
0070F0
008010
001E00
00FFC0
03E0F0
07C0F8
0FC078
1F807C
3F007C
3F007C
7E007E
7E007E
7E007E
FE007E
FC00FE
FC00FC
FC00FC
FC00FC
FC01F8
7C01F8
7C03F0
3C03E0
3E07C0
1F0F80
07FF00
00F800
ENDCHAR
STARTCHAR uni1ED7
ENCODING 7895
SWIDTH 562 0
DWIDTH 19 0
BBX 18 31 2 0
BITMAP
010080
07F300
0FFF00
08FE00
100800
000000
001800
003C00
007C00
00FE00
03C700
070300
0E0180
080080
00F800
07FF00
0FCF80
1F0780
3F07C0
3E07C0
7C07C0
7C0FC0
FC0FC0
F80F80
F80F80
F81F00
F83F00
783E00
787C00
3FF800
07C000
ENDCHAR
STARTCHAR uni1ED8
ENCODING 7896
SWIDTH 761 0
DWIDTH 25 0
BBX 23 39 4 -6
BITMAP
000800
001C00
003E00
007F00
00E700
018380
0701C0
020080
000000
001E00
00FFC0
03E0F0
07C0F8
0FC078
1F807C
3F007C
3F007C
7E007E
7E007E
7E007E
FE007E
FC00FE
FC00FC
FC00FC
FC00FC
FC01F8
7C01F8
7C03F0
3C03E0
3E07C0
1F0F80
07FF00
00F800
000000
007000
00F800
00F800
00F800
007000
ENDCHAR
STARTCHAR uni1ED9
ENCODING 7897
SWIDTH 562 0
DWIDTH 19 0
BBX 18 32 2 -6
BITMAP
002000
007000
00F800
01FC00
039C00
060E00
1C0700
080200
000000
00F800
07FF00
0FCF80
1F0780
3F07C0
3E07C0
7C07C0
7C0FC0
FC0FC0
F80F80
F80F80
F81F00
F83F00
783E00
787C00
3FF800
07C000
000000
01C000
03E000
03E000
03E000
01C000
ENDCHAR
STARTCHAR uni1EDA
ENCODING 7898
SWIDTH 761 0
DWIDTH 25 0
BBX 28 33 4 0
BITMAP
00001000
00007800
0000F800
0001F000
0003E000
00078000
000E0000
00080000
00000000
001E00C0
00FFC1E0
03E0F1F0
07C0F9F0
0FC079E0
1F807CE0
3F007DC0
3F007DC0
7E007F80
7E007E00
7E007E00
FE007E00
FC00FE00
FC00FC00
FC00FC00
FC00FC00
FC01F800
7C01F800
7C03F000
3C03E000
3E07C000
1F0F8000
07FF0000
00F80000
ENDCHAR
STARTCHAR uni1EDB
ENCODING 7899
SWIDTH 562 0
DWIDTH 19 0
BBX 23 26 2 0
BITMAP
000040
0001E0
0003E0
0007C0
000F80
001E00
003800
002000
000000
00F818
07FF3C
0FCFBE
1F07BE
3F07FC
3E07DC
7C07F8
7C0FF8
FC0FF0
F80FC0
F80F80
F81F00
F83F00
783E00
787C00
3FF800
07C000
ENDCHAR
STARTCHAR uni1EDC
ENCODING 7900
SWIDTH 761 0
DWIDTH 25 0
BBX 28 33 4 0
BITMAP
00200000
00780000
007C0000
003E0000
001F0000
00078000
0001C000
00004000
00000000
001E00C0
00FFC1E0
03E0F1F0
07C0F9F0
0FC079E0
1F807CE0
3F007DC0
3F007DC0
7E007F80
7E007E00
7E007E00
FE007E00
FC00FE00
FC00FC00
FC00FC00
FC00FC00
FC01F800
7C01F800
7C03F000
3C03E000
3E07C000
1F0F8000
07FF0000
00F80000
ENDCHAR
STARTCHAR uni1EDD
ENCODING 7901
SWIDTH 562 0
DWIDTH 19 0
BBX 23 26 2 0
BITMAP
008000
01E000
01F000
00F800
007C00
001E00
000700
000100
000000
00F818
07FF3C
0FCFBE
1F07BE
3F07FC
3E07DC
7C07F8
7C0FF8
FC0FF0
F80FC0
F80F80
F81F00
F83F00
783E00
787C00
3FF800
07C000
ENDCHAR
STARTCHAR uni1EE0
ENCODING 7904
SWIDTH 761 0
DWIDTH 25 0
BBX 28 30 4 0
BITMAP
00080400
003F9800
007FF800
0047F000
00804000
00000000
001E00C0
00FFC1E0
03E0F1F0
07C0F9F0
0FC079E0
1F807CE0
3F007DC0
3F007DC0
7E007F80
7E007E00
7E007E00
FE007E00
FC00FE00
FC00FC00
FC00FC00
FC00FC00
FC01F800
7C01F800
7C03F000
3C03E000
3E07C000
1F0F8000
07FF0000
00F80000
ENDCHAR
STARTCHAR uni1EE1
ENCODING 7905
SWIDTH 562 0
DWIDTH 19 0
BBX 23 23 2 0
BITMAP
002010
00FE60
01FFE0
011FC0
020100
000000
00F818
07FF3C
0FCFBE
1F07BE
3F07FC
3E07DC
7C07F8
7C0FF8
FC0FF0
F80FC0
F80F80
F81F00
F83F00
783E00
787C00
3FF800
07C000
ENDCHAR
STARTCHAR uni1EE2
ENCODING 7906
SWIDTH 761 0
DWIDTH 25 0
BBX 28 30 4 -6
BITMAP
001E00C0
00FFC1E0
03E0F1F0
07C0F9F0
0FC079E0
1F807CE0
3F007DC0
3F007DC0
7E007F80
7E007E00
7E007E00
FE007E00
FC00FE00
FC00FC00
FC00FC00
FC00FC00
FC01F800
7C01F800
7C03F000
3C03E000
3E07C000
1F0F8000
07FF0000
00F80000
00000000
00380000
007C0000
007C0000
007C0000
00380000
ENDCHAR
STARTCHAR uni1EE3
ENCODING 7907
SWIDTH 562 0
DWIDTH 19 0
BBX 23 23 2 -6
BITMAP
00F818
07FF3C
0FCFBE
1F07BE
3F07FC
3E07DC
7C07F8
7C0FF8
FC0FF0
F80FC0
F80F80
F81F00
F83F00
783E00
787C00
3FF800
07C000
000000
00E000
01F000
01F000
01F000
00E000
ENDCHAR
STARTCHAR uni1EE4
ENCODING 7908
SWIDTH 776 0
DWIDTH 26 0
BBX 25 30 5 -6
BITMAP
7FE3FF80
1F007C00
1F007C00
1F00FC00
1F00F800
3E00F800
3E00F800
3E00F800
3E01F000
3E01F000
7C01F000
7C01F000
7C03F000
7C03E000
F803E000
F803E000
F807C000
F807C000
F807C000
F80F8000
780F0000
7C1F0000
1FFC0000
03E00000
00000000
00E00000
01F00000
01F00000
01F00000
00E00000
ENDCHAR
STARTCHAR uni1EE5
ENCODING 7909
SWIDTH 634 0
DWIDTH 21 0
BBX 19 23 3 -6
BITMAP
0703C0
FF07C0
3F07C0
1E0780
3E0F80
3E0F80
3E0F80
3C1F00
7C1F00
7C3F00
7C7F00
785E20
F89E60
F93EC0
FF3F80
FC3F00
700C00
000000
01C000
03E000
03E000
03E000
01C000
ENDCHAR
STARTCHAR uni1EE8
ENCODING 7912
SWIDTH 776 0
DWIDTH 26 0
BBX 29 33 5 0
BITMAP
00001000
00007800
0000F800
0001F000
0003E000
00078000
000E0000
00080000
00000000
7FE3FFE0
1F007CF0
1F007CF8
1F00FCF8
1F00F8F0
3E00F870
3E00F8E0
3E00F8E0
3E01F1C0
3E01F100
7C01F200
7C01F000
7C03F000
7C03E000
F803E000
F803E000
F807C000
F807C000
F807C000
F80F8000
780F0000
7C1F0000
1FFC0000
03E00000
ENDCHAR
STARTCHAR uni1EE9
ENCODING 7913
SWIDTH 634 0
DWIDTH 21 0
BBX 24 26 3 0
BITMAP
000040
0001E0
0003E0
0007C0
000F80
001E00
003800
002000
000000
0703CC
FF07DE
3F07DF
1E079F
3E0F9E
3E0F8E
3E0F9C
3C1F1C
7C1F38
7C3F20
7C7F40
785E20
F89E60
F93EC0
FF3F80
FC3F00
700C00
ENDCHAR
STARTCHAR uni1EEA
ENCODING 7914
SWIDTH 776 0
DWIDTH 26 0
BBX 29 33 5 0
BITMAP
00200000
00780000
007C0000
003E0000
001F0000
00078000
0001C000
00004000
00000000
7FE3FFE0
1F007CF0
1F007CF8
1F00FCF8
1F00F8F0
3E00F870
3E00F8E0
3E00F8E0
3E01F1C0
3E01F100
7C01F200
7C01F000
7C03F000
7C03E000
F803E000
F803E000
F807C000
F807C000
F807C000
F80F8000
780F0000
7C1F0000
1FFC0000
03E00000
ENDCHAR
STARTCHAR uni1EEB
ENCODING 7915
SWIDTH 634 0
DWIDTH 21 0
BBX 24 26 3 0
BITMAP
008000
01E000
01F000
00F800
007C00
001E00
000700
000100
000000
0703CC
FF07DE
3F07DF
1E079F
3E0F9E
3E0F8E
3E0F9C
3C1F1C
7C1F38
7C3F20
7C7F40
785E20
F89E60
F93EC0
FF3F80
FC3F00
700C00
ENDCHAR
STARTCHAR uni1EEE
ENCODING 7918
SWIDTH 776 0
DWIDTH 26 0
BBX 29 30 5 0
BITMAP
00080400
003F9800
007FF800
0047F000
00804000
00000000
7FE3FFE0
1F007CF0
1F007CF8
1F00FCF8
1F00F8F0
3E00F870
3E00F8E0
3E00F8E0
3E01F1C0
3E01F100
7C01F200
7C01F000
7C03F000
7C03E000
F803E000
F803E000
F807C000
F807C000
F807C000
F80F8000
780F0000
7C1F0000
1FFC0000
03E00000
ENDCHAR
STARTCHAR uni1EEF
ENCODING 7919
SWIDTH 634 0
DWIDTH 21 0
BBX 24 23 3 0
BITMAP
002010
00FE60
01FFE0
011FC0
020100
000000
0703CC
FF07DE
3F07DF
1E079F
3E0F9E
3E0F8E
3E0F9C
3C1F1C
7C1F38
7C3F20
7C7F40
785E20
F89E60
F93EC0
FF3F80
FC3F00
700C00
ENDCHAR
STARTCHAR uni1EF0
ENCODING 7920
SWIDTH 776 0
DWIDTH 26 0
BBX 29 30 5 -6
BITMAP
7FE3FFE0
1F007CF0
1F007CF8
1F00FCF8
1F00F8F0
3E00F870
3E00F8E0
3E00F8E0
3E01F1C0
3E01F100
7C01F200
7C01F000
7C03F000
7C03E000
F803E000
F803E000
F807C000
F807C000
F807C000
F80F8000
780F0000
7C1F0000
1FFC0000
03E00000
00000000
00700000
00F80000
00F80000
00F80000
00700000
ENDCHAR
STARTCHAR uni1EF1
ENCODING 7921
SWIDTH 634 0
DWIDTH 21 0
BBX 24 23 3 -6
BITMAP
0703CC
FF07DE
3F07DF
1E079F
3E0F9E
3E0F8E
3E0F9C
3C1F1C
7C1F38
7C3F20
7C7F40
785E20
F89E60
F93EC0
FF3F80
FC3F00
700C00
000000
00E000
01F000
01F000
01F000
00E000
ENDCHAR
STARTCHAR Ygrave
ENCODING 7922
SWIDTH 622 0
DWIDTH 21 0
BBX 21 33 5 0
BITMAP
040000
0F0000
0F8000
07C000
03E000
00F000
003800
000800
000000
FFCFF8
3E01E0
3E01C0
3E0380
1F0700
1F0600
1F0E00
1F0C00
0F1800
0F3800
0FB000
0FE000
07E000
07C000
07C000
078000
078000
078000
0F8000
0F8000
0F0000
0F0000
1F0000
FFE000
ENDCHAR
STARTCHAR ygrave
ENCODING 7923
SWIDTH 489 0
DWIDTH 16 0
BBX 19 34 0 -8
BITMAP
040000
0F0000
0F8000
07C000
03E000
00F000
003800
000800
000000
00C040
0FC1E0
3FC1E0
07C1C0
07C1C0
03C1C0
03C380
03C380
03C300
03E300
03E600
03E400
03EC00
01E800
01F800
01F000
01F000
01E000
01E000
01C000
618000
F10000
FB0000
FE0000
780000
ENDCHAR
STARTCHAR uni1EF4
ENCODING 7924
SWIDTH 622 0
DWIDTH 21 0
BBX 21 30 5 -6
BITMAP
FFCFF8
3E01E0
3E01C0
3E0380
1F0700
1F0600
1F0E00
1F0C00
0F1800
0F3800
0FB000
0FE000
07E000
07C000
07C000
078000
078000
078000
0F8000
0F8000
0F0000
0F0000
1F0000
FFE000
000000
038000
07C000
07C000
07C000
038000
ENDCHAR
STARTCHAR uni1EF5
ENCODING 7925
SWIDTH 489 0
DWIDTH 16 0
BBX 19 31 0 -14
BITMAP
00C040
0FC1E0
3FC1E0
07C1C0
07C1C0
03C1C0
03C380
03C380
03C300
03E300
03E600
03E400
03EC00
01E800
01F800
01F000
01F000
01E000
01E000
01C000
618000
F10000
FB0000
FE0000
780000
000000
070000
0F8000
0F8000
0F8000
070000
ENDCHAR
STARTCHAR uni1EF8
ENCODING 7928
SWIDTH 622 0
DWIDTH 21 0
BBX 21 30 5 0
BITMAP
010080
07F300
0FFF00
08FE00
100800
000000
FFCFF8
3E01E0
3E01C0
3E0380
1F0700
1F0600
1F0E00
1F0C00
0F1800
0F3800
0FB000
0FE000
07E000
07C000
07C000
078000
078000
078000
0F8000
0F8000
0F0000
0F0000
1F0000
FFE000
ENDCHAR
STARTCHAR uni1EF9
ENCODING 7929
SWIDTH 489 0
DWIDTH 16 0
BBX 19 31 0 -8
BITMAP
010080
07F300
0FFF00
08FE00
100800
000000
00C040
0FC1E0
3FC1E0
07C1C0
07C1C0
03C1C0
03C380
03C380
03C300
03E300
03E600
03E400
03EC00
01E800
01F800
01F000
01F000
01E000
01E000
01C000
618000
F10000
FB0000
FE0000
780000
ENDCHAR
STARTCHAR uni2000
ENCODING 8192
SWIDTH 500 0
DWIDTH 17 0
BBX 1 1 0 0
BITMAP
00
ENDCHAR
STARTCHAR uni2001
ENCODING 8193
SWIDTH 1000 0
DWIDTH 33 0
BBX 1 1 0 0
BITMAP
00
ENDCHAR
STARTCHAR uni2002
ENCODING 8194
SWIDTH 500 0
DWIDTH 17 0
BBX 1 1 0 0
BITMAP
00
ENDCHAR
STARTCHAR uni2003
ENCODING 8195
SWIDTH 1000 0
DWIDTH 33 0
BBX 1 1 0 0
BITMAP
00
ENDCHAR
STARTCHAR uni2004
ENCODING 8196
SWIDTH 333 0
DWIDTH 11 0
BBX 1 1 0 0
BITMAP
00
ENDCHAR
STARTCHAR uni2005
ENCODING 8197
SWIDTH 250 0
DWIDTH 8 0
BBX 1 1 0 0
BITMAP
00
ENDCHAR
STARTCHAR uni2006
ENCODING 8198
SWIDTH 167 0
DWIDTH 6 0
BBX 1 1 0 0
BITMAP
00
ENDCHAR
STARTCHAR uni2007
ENCODING 8199
SWIDTH 560 0
DWIDTH 19 0
BBX 1 1 0 0
BITMAP
00
ENDCHAR
STARTCHAR uni2008
ENCODING 8200
SWIDTH 280 0
DWIDTH 9 0
BBX 1 1 0 0
BITMAP
00
ENDCHAR
STARTCHAR uni2009
ENCODING 8201
SWIDTH 200 0
DWIDTH 7 0
BBX 1 1 0 0
BITMAP
00
ENDCHAR
STARTCHAR uni200A
ENCODING 8202
SWIDTH 100 0
DWIDTH 3 0
BBX 1 1 0 0
BITMAP
00
ENDCHAR
STARTCHAR uni200B
ENCODING 8203
SWIDTH 0 0
DWIDTH 0 0
BBX 1 1 0 0
BITMAP
00
ENDCHAR
STARTCHAR uni2010
ENCODING 8208
SWIDTH 392 0
DWIDTH 13 0
BBX 9 3 4 7
BITMAP
7F80
FF80
FF00
ENDCHAR
STARTCHAR uni2011
ENCODING 8209
SWIDTH 392 0
DWIDTH 13 0
BBX 9 3 4 7
BITMAP
7F80
FF80
FF00
ENDCHAR
STARTCHAR figuredash
ENCODING 8210
SWIDTH 500 0
DWIDTH 17 0
BBX 17 3 2 7
BITMAP
7FFF80
FFFF80
FFFF00
ENDCHAR
STARTCHAR endash
ENCODING 8211
SWIDTH 500 0
DWIDTH 17 0
BBX 17 3 2 7
BITMAP
7FFF80
FFFF80
FFFF00
ENDCHAR
STARTCHAR emdash
ENCODING 8212
SWIDTH 1000 0
DWIDTH 33 0
BBX 34 3 2 7
BITMAP
7FFFFFFFC0
FFFFFFFFC0
FFFFFFFF80
ENDCHAR
STARTCHAR afii00208
ENCODING 8213
SWIDTH 1000 0
DWIDTH 33 0
BBX 34 3 2 7
BITMAP
7FFFFFFFC0
FFFFFFFFC0
FFFFFFFF80
ENDCHAR
STARTCHAR quoteleft
ENCODING 8216
SWIDTH 246 0
DWIDTH 8 0
BBX 7 11 5 13
BITMAP
02
04
1C
38
38
70
78
F8
F8
78
30
ENDCHAR
STARTCHAR quoteright
ENCODING 8217
SWIDTH 246 0
DWIDTH 8 0
BBX 7 11 4 13
BITMAP
18
3C
3E
3E
3C
1C
38
38
70
40
80
ENDCHAR
STARTCHAR quotesinglbase
ENCODING 8218
SWIDTH 246 0
DWIDTH 8 0
BBX 7 11 0 -5
BITMAP
18
3C
3E
3E
3C
1C
38
38
70
40
80
ENDCHAR
STARTCHAR quotereversed
ENCODING 8219
SWIDTH 246 0
DWIDTH 8 0
BBX 7 11 4 13
BITMAP
30
78
F8
F8
78
70
38
38
1C
04
02
ENDCHAR
STARTCHAR quotedblleft
ENCODING 8220
SWIDTH 455 0
DWIDTH 15 0
BBX 14 11 5 13
BITMAP
0204
0408
1C38
3870
3870
70E0
78F0
F9F0
F9F0
78F0
2060
ENDCHAR
STARTCHAR quotedblright
ENCODING 8221
SWIDTH 455 0
DWIDTH 15 0
BBX 14 11 4 13
BITMAP
1830
3C78
3E7C
3E7C
3C78
1C38
3870
3870
70E0
4080
8100
ENDCHAR
STARTCHAR quotedblbase
ENCODING 8222
SWIDTH 455 0
DWIDTH 15 0
BBX 14 11 0 -5
BITMAP
1830
3C78
3E7C
3E7C
3C78
1C38
3870
3870
70E0
4080
8100
ENDCHAR
STARTCHAR uni201F
ENCODING 8223
SWIDTH 455 0
DWIDTH 15 0
BBX 14 11 4 13
BITMAP
3060
78F0
F9F0
F9F0
78F0
70E0
3870
3870
1C38
0408
0204
ENDCHAR
STARTCHAR dagger
ENCODING 8224
SWIDTH 514 0
DWIDTH 17 0
BBX 14 28 5 -4
BITMAP
01C0
03C0
03C0
03C0
0380
0380
0380
F33C
FFFC
F33C
0700
0700
0F00
0F00
0E00
0E00
1E00
1C00
1C00
1C00
1C00
1800
1800
1800
3000
3000
3000
2000
ENDCHAR
STARTCHAR daggerdbl
ENCODING 8225
SWIDTH 490 0
DWIDTH 16 0
BBX 17 27 2 -3
BITMAP
003800
007800
007800
007800
007000
007000
0F6780
1FFF80
1EEF00
00E000
01E000
01E000
03E000
03C000
03C000
03C000
038000
7BBC00
FFFC00
F37800
070000
070000
0F0000
0F0000
0F0000
1F0000
1E0000
ENDCHAR
STARTCHAR bullet
ENCODING 8226
SWIDTH 465 0
DWIDTH 16 0
BBX 12 12 4 6
BITMAP
0F00
3FC0
7FE0
7FE0
FFF0
FFF0
FFF0
FFF0
7FE0
7FE0
3FC0
0F00
ENDCHAR
STARTCHAR ellipsis
ENCODING 8230
SWIDTH 1000 0
DWIDTH 33 0
BBX 28 6 4 0
BITMAP
300600C0
7C0F81F0
FC1F83F0
FC1F83F0
F81F03E0
300600C0
ENDCHAR
STARTCHAR perthousand
ENCODING 8240
SWIDTH 1297 0
DWIDTH 43 0
BBX 38 24 5 -1
BITMAP
0F80040000
1CC01E0000
38FFF80000
38FFF80000
78F0300000
70F0600000
F0F0C00000
F0F1800000
F0E3800000
F1E7000000
71C6000000
738C7E03F0
1E18E70738
0031C78E3C
0073C79E3C
00E3879C3C
00C3879C3C
018787BC3C
0307873C38
07078F3C78
0E078E3C70
0C039C1CE0
1801F00F80
3000000000
ENDCHAR
STARTCHAR guilsinglleft
ENCODING 8249
SWIDTH 360 0
DWIDTH 12 0
BBX 8 14 4 1
BITMAP
01
02
06
0C
3C
78
F0
F0
70
38
38
18
08
0C
ENDCHAR
STARTCHAR guilsinglright
ENCODING 8250
SWIDTH 360 0
DWIDTH 12 0
BBX 8 14 3 1
BITMAP
30
10
18
1C
1C
0E
0F
0F
1E
3C
30
60
40
80
ENDCHAR
STARTCHAR fraction
ENCODING 8260
SWIDTH 100 0
DWIDTH 3 0
BBX 18 24 -5 0
BITMAP
000080
0001C0
000180
000300
000700
000600
000C00
001C00
003800
003000
006000
00E000
00C000
018000
030000
070000
060000
0C0000
1C0000
180000
300000
600000
E00000
400000
ENDCHAR
STARTCHAR oneinferior
ENCODING 8321
SWIDTH 402 0
DWIDTH 13 0
BBX 9 14 4 -8
BITMAP
0380
1F80
0700
0700
0700
0F00
0F00
0E00
0E00
0E00
1E00
1E00
1E00
FF00
ENDCHAR
STARTCHAR twoinferior
ENCODING 8322
SWIDTH 402 0
DWIDTH 13 0
BBX 13 14 2 -8
BITMAP
03E0
0E70
1E78
1C78
08F8
00F8
01F0
03C0
0780
0E00
3810
7FF0
7FE0
FFE0
ENDCHAR
STARTCHAR threeinferior
ENCODING 8323
SWIDTH 402 0
DWIDTH 13 0
BBX 12 14 3 -8
BITMAP
0780
3CE0
38F0
38F0
00F0
01E0
1F00
01C0
01C0
41E0
E1E0
F1E0
F3C0
1E00
ENDCHAR
STARTCHAR uni20A5
ENCODING 8357
SWIDTH 914 0
DWIDTH 30 0
BBX 29 24 3 -3
BITMAP
00007800
00007000
00007000
0000F000
0787E0E0
7F0FE7F0
1F3FCFF0
1F27D9F0
1E47F1F0
1E87E1E0
3F8FC3E0
3F0F83E0
3E0F83C0
3E1F07C0
7C1F07C0
7C1E0788
7C1E0F90
783E0FB0
F83E0FE0
F83C0FC0
F0780700
00700000
00700000
00F00000
ENDCHAR
STARTCHAR uni20A6
ENCODING 8358
SWIDTH 741 0
DWIDTH 25 0
BBX 28 24 1 0
BITMAP
07F80FF0
01F80380
01F80380
01FC0380
01FC0300
01FE0300
033E0300
03FFFF00
03FFFE00
03FFFE00
031F8600
060F8600
060F8600
0607CC00
07FFFC00
07FFFC00
0FFFFC00
0C03EC00
0C01F800
0C01F800
1C01F800
1C00F800
1C00F800
FF007000
ENDCHAR
STARTCHAR uni20A9
ENCODING 8361
SWIDTH 920 0
DWIDTH 31 0
BBX 32 24 4 0
BITMAP
FF80007F
3E01E01C
3E03E018
3E03E018
3E03E030
3E07E030
1E05E070
1EFFFF60
1EFFFF60
1EFFFFC0
1E19E0C0
1E11E180
1E31F180
1E21F380
1EFFFF00
1EFFFF00
1EFFFF00
1EC1F600
1E81FC00
1F81FC00
1F01F800
1F01F800
1F00F000
1E00F000
ENDCHAR
STARTCHAR Euro
ENCODING 8364
SWIDTH 672 0
DWIDTH 22 0
BBX 25 24 0 0
BITMAP
0001FC00
000FFF00
003F0780
007C0380
00F80380
01F80100
03F00100
FFFF0100
FFFF0000
FFFF0000
07C00000
07C00000
0FC00000
0FC00000
FFFF0000
FFFF0000
FFFF0200
07C00600
07C00C00
03E00C00
03E01C00
01F07C00
007FF800
0007C000
ENDCHAR
STARTCHAR uni20AD
ENCODING 8365
SWIDTH 688 0
DWIDTH 23 0
BBX 28 24 1 0
BITMAP
07FF3FF0
01F80F80
01F81E00
01F03C00
01F07800
01F0F000
01F1C000
03E38000
03E30000
03E60000
03EE0000
FFFFFFF0
FFFFFFF0
07DF0000
07DF8000
079F8000
078FC000
0F8FC000
0F87E000
0F87E000
0F07F000
1F03F800
1F01FC00
FFE01E00
ENDCHAR
STARTCHAR uni2103
ENCODING 8451
SWIDTH 1028 0
DWIDTH 34 0
BBX 33 24 4 0
BITMAP
000001FC00
0F000FFF00
3FC03F0780
79E07C0380
70E0F80380
E071F80100
E073F00100
E073E00100
70E7E00000
79E7E00000
3FC7C00000
0F07C00000
000FC00000
000FC00000
000FC00000
000FC00000
000FC00200
0007C00600
0007C00C00
0003E00C00
0003E01C00
0001F07C00
00007FF800
000007C000
ENDCHAR
STARTCHAR uni2109
ENCODING 8457
SWIDTH 941 0
DWIDTH 32 0
BBX 32 24 4 0
BITMAP
0003FFFF
0F007FFF
3FC07C0F
79E07C07
70E07C06
E070F802
E070F800
E070F800
70E0F800
79E0F818
3FC1F810
0F01F030
0001FFF0
0001FFF0
0001F070
0003E020
0003E020
0003E000
0003E000
0003E000
0007C000
0007C000
0007C000
003FF800
ENDCHAR
STARTCHAR trademark
ENCODING 8482
SWIDTH 1100 0
DWIDTH 37 0
BBX 33 15 5 9
BITMAP
FFFFE03F80
CF19F07E00
8F19F07E00
8F09705E00
0F0178DE00
0F0178DE00
0F01389E00
0F013D9E00
0F013D9E00
0F011F1E00
0F011F1E00
0F010F1E00
0F010E1E00
0F010E1E00
3FC7C67F80
ENDCHAR
STARTCHAR uni212A
ENCODING 8490
SWIDTH 688 0
DWIDTH 23 0
BBX 28 24 1 0
BITMAP
07FF3FF0
01F80F80
01F81E00
01F03C00
01F07800
01F0F000
01F1C000
03E38000
03E30000
03E60000
03EE0000
03FE0000
07FF0000
07DF0000
07DF8000
079F8000
078FC000
0F8FC000
0F87E000
0F87E000
0F07F000
1F03F800
1F01FC00
FFE01E00
ENDCHAR
STARTCHAR uni212B
ENCODING 8491
SWIDTH 634 0
DWIDTH 21 0
BBX 22 29 0 0
BITMAP
0003C0
000620
000430
000C30
000C60
0007C0
0007C0
0007C0
000FC0
000FC0
001FC0
0037C0
0037E0
0067E0
0063E0
00C3E0
00C3E0
0183E0
0183E0
03FFE0
03FFE0
0701E0
0601F0
0E01F0
0C01F0
1C01F0
1801F0
3801F0
FE07FC
ENDCHAR
STARTCHAR uni2132
ENCODING 8498
SWIDTH 585 0
DWIDTH 20 0
BBX 22 24 2 0
BITMAP
001FFC
0003E0
0003E0
0003E0
0007C0
0007C0
0007C0
0407C0
0407C0
0E0F80
0FFF80
0FFF80
0C0F80
081F80
181F00
001F00
001F00
001F00
401F00
603E00
E03E00
F03E00
FFFE00
FFFFC0
ENDCHAR
STARTCHAR minus
ENCODING 8722
SWIDTH 600 0
DWIDTH 20 0
BBX 16 3 4 7
BITMAP
FFFF
FFFF
FFFF
ENDCHAR
STARTCHAR fraction
ENCODING 8725
SWIDTH 100 0
DWIDTH 3 0
BBX 18 24 -5 0
BITMAP
000080
0001C0
000180
000300
000700
000600
000C00
001C00
003800
003000
006000
00E000
00C000
018000
030000
070000
060000
0C0000
1C0000
180000
300000
600000
E00000
400000
ENDCHAR
STARTCHAR periodcentered
ENCODING 8729
SWIDTH 280 0
DWIDTH 9 0
BBX 6 6 3 5
BITMAP
30
7C
FC
FC
F8
30
ENDCHAR
STARTCHAR uni2236
ENCODING 8758
SWIDTH 280 0
DWIDTH 9 0
BBX 8 17 2 0
BITMAP
0C
1E
1F
3F
1E
1C
00
00
00
00
00
38
78
FC
F8
78
30
ENDCHAR
STARTCHAR uni2259
ENCODING 8793
SWIDTH 600 0
DWIDTH 20 0
BBX 16 19 4 3
BITMAP
0040
00E0
01F0
03F8
0738
0C1C
380E
1004
0000
FFFF
FFFF
FFFF
0000
0000
0000
0000
FFFF
FFFF
FFFF
ENDCHAR
STARTCHAR uni225A
ENCODING 8794
SWIDTH 600 0
DWIDTH 20 0
BBX 16 19 4 3
BITMAP
1004
380E
1C18
0E70
0FE0
07C0
0380
0100
0000
FFFF
FFFF
FFFF
0000
0000
0000
0000
FFFF
FFFF
FFFF
ENDCHAR
STARTCHAR notequal
ENCODING 8800
SWIDTH 600 0
DWIDTH 20 0
BBX 16 24 4 -4
BITMAP
001E
001C
001C
003C
0038
0078
0070
FFFF
FFFF
FFFF
01E0
01C0
01C0
03C0
FFFF
FFFF
FFFF
0700
0F00
0E00
1E00
1C00
1C00
3C00
ENDCHAR
STARTCHAR equivalence
ENCODING 8801
SWIDTH 600 0
DWIDTH 20 0
BBX 16 8 0 4
BITMAP
FFFF
FFFF
0000
FFFF
FFFF
0000
FFFF
FFFF
ENDCHAR
STARTCHAR uni2262
ENCODING 8802
SWIDTH 600 0
DWIDTH 20 0
BBX 16 24 0 -4
BITMAP
001E
001C
001C
003C
0038
0078
0070
0070
FFFF
FFFF
01E0
FFFF
FFFF
03C0
FFFF
FFFF
0700
0700
0F00
0E00
1E00
1C00
1C00
3C00
ENDCHAR
STARTCHAR lessequal
ENCODING 8804
SWIDTH 600 0
DWIDTH 20 0
BBX 16 20 3 -3
BITMAP
0001
0007
003F
00FE
03F8
0FE0
7F00
FC00
E000
FC00
3F00
0FE0
03F8
007F
001F
0007
0001
0000
FFFF
FFFF
ENDCHAR
STARTCHAR greaterequal
ENCODING 8805
SWIDTH 600 0
DWIDTH 20 0
BBX 16 20 4 -3
BITMAP
8000
E000
FC00
7F00
1FC0
07F0
00FE
003F
0007
003F
00FC
07F0
1FC0
FE00
F800
E000
8000
0000
FFFF
FFFF
ENDCHAR
STARTCHAR uni226E
ENCODING 8814
SWIDTH 600 0
DWIDTH 20 0
BBX 16 24 3 -3
BITMAP
001E
001C
001C
003C
0039
007F
007F
00FE
03F8
0FE0
7FE0
FDC0
E1C0
FFC0
3F80
0FE0
07F8
077F
0F1F
0E07
1E01
1C00
1C00
3C00
ENDCHAR
STARTCHAR uni226F
ENCODING 8815
SWIDTH 600 0
DWIDTH 20 0
BBX 16 24 4 -3
BITMAP
001E
001C
001C
003C
8038
E078
FC70
7F70
1FF0
07F0
01FE
01FF
01C7
03FF
03FC
07F0
1FC0
FF00
FF00
EE00
9E00
1C00
1C00
3C00
ENDCHAR
STARTCHAR uni2270
ENCODING 8816
SWIDTH 600 0
DWIDTH 20 0
BBX 16 24 3 -5
BITMAP
001E
001C
001D
003F
003F
00FE
03F8
0FF0
7FF0
FCE0
E1E0
FDC0
3FC0
0FE0
03F8
07FF
071F
0707
0F01
0E00
FFFF
FFFF
1C00
3C00
ENDCHAR
STARTCHAR uni2271
ENCODING 8817
SWIDTH 600 0
DWIDTH 20 0
BBX 16 24 4 -5
BITMAP
001E
001C
801C
E03C
FC38
7F78
1FF0
07F0
00FE
00FF
01E7
01FF
01FC
07F0
1FC0
FF80
FF00
E700
8F00
0E00
FFFF
FFFF
1C00
3C00
ENDCHAR
STARTCHAR fi
ENCODING -1
SWIDTH 651 0
DWIDTH 22 0
BBX 26 33 -3 -8
BITMAP
00007C00
0003FF00
00078F80
000F07C0
001F07C0
001F0780
003E0000
003E0000
01FFFFC0
03FFFF80
007C0F80
007C0F80
007C0F00
007C1F00
00781F00
00F81E00
00F83E00
00F83E00
00F03E00
00F03C40
01F07CC0
01F07D80
01E07F00
01E07E00
01E03800
03E00000
03C00000
03C00000
43C00000
E3800000
F7000000
7E000000
18000000
ENDCHAR
STARTCHAR fl
ENCODING -1
SWIDTH 652 0
DWIDTH 22 0
BBX 27 33 -3 -8
BITMAP
00007060
0003FFE0
00078FE0
000F07C0
001F07C0
001F07C0
003E07C0
003E0780
01FFEF80
01FFCF80
007C0F80
007C0F00
007C1F00
007C1F00
00781F00
00F81E00
00F83E00
00F83E00
00F03E00
00F03C40
01F07CC0
01F07D80
01E07F00
01E07E00
01E03800
03E00000
03C00000
03C00000
43C00000
E3800000
F7000000
7E000000
18000000
ENDCHAR
ENDFONT
